<svg xmlns="http://www.w3.org/2000/svg" height="43.729" width="47.989" viewBox="0 0 44.989 40.997001"><path d="M18.373 26.702c2.934 0 5.313-2.365 5.313-5.282s-2.379-5.282-5.313-5.282-5.314 2.365-5.314 5.282 2.38 5.282 5.314 5.282zm3.481-10.816c1.675 1.044 2.85 2.811 3.065 4.862.683.317 1.441.5 2.245.5 2.935 0 5.313-2.365 5.313-5.283s-2.379-5.282-5.313-5.282c-2.908 0-5.265 2.323-5.31 5.203zm11.825-.453c.683.317 1.441.5 2.245.5 2.935 0 5.314-2.365 5.314-5.282 0-2.918-2.379-5.282-5.314-5.282-2.907-.001-5.265 2.322-5.309 5.202 1.675 1.044 2.85 2.811 3.064 4.862zm-15.572-3.968c3.185 0 5.767-2.567 5.767-5.733S21.292-.001 18.107-.001 12.34 2.566 12.34 5.732c-.001 3.166 2.581 5.733 5.767 5.733zm2.771 3.907a6.177 6.177 0 0 1 1.186-3.359 7.374 7.374 0 0 0-1.51-.155H15.66c-.516 0-1.02.054-1.506.154a6.196 6.196 0 0 1 1.19 3.617 6.295 6.295 0 0 1 3.028-.772 6.247 6.247 0 0 1 2.506.515zm8.541 6.237h-4.474a6.497 6.497 0 0 1-2.021 4.535c3.334.986 5.774 4.06 5.774 7.691v1.689c4.417-.162 6.963-1.405 7.13-1.489l.355-.179h.038v-5.484c0-3.729-3.052-6.763-6.802-6.763zm8.759-5.315h-4.473a6.493 6.493 0 0 1-2.021 4.534c3.334.986 5.774 4.06 5.774 7.691v1.689c4.416-.161 6.963-1.405 7.13-1.49l.355-.179h.038v-5.484c0-3.727-3.052-6.761-6.803-6.761zM20.627 27.062h-4.508c-3.751 0-6.804 3.035-6.804 6.765v5.482l.014.086.38.117c3.58 1.112 6.69 1.484 9.25 1.484 4.999 0 7.898-1.418 8.077-1.508l.355-.179h.038v-5.482c.001-3.73-3.05-6.765-6.802-6.765zm-6.805-.918a6.497 6.497 0 0 1-2.02-4.51c-.165-.012-.33-.025-.499-.025H6.796c-3.752 0-6.804 3.034-6.804 6.764v5.482l.014.085.38.118c2.871.892 5.435 1.303 7.661 1.431v-1.655c.001-3.63 2.44-6.705 5.775-7.69zM9.05 21.249a5.303 5.303 0 0 0 2.826-.816 6.532 6.532 0 0 1 2.472-4.17c.005-.099.015-.197.015-.297 0-2.918-2.379-5.282-5.312-5.282-2.935 0-5.314 2.365-5.314 5.282 0 2.918 2.378 5.283 5.313 5.283z" fill-rule="evenodd" clip-rule="evenodd" fill="#80ceff"/></svg>