<svg xmlns="http://www.w3.org/2000/svg" height="49.02" width="44.054" viewBox="0 0 41.299457 45.956813"><path fill="#80ceff" d="M15.827 28.582l-1.976 3.626c-.095.212-.365.571-1.036.571-.821 0-2.198-.517-3.083-.895l-.173.37-1.342-.616.173-.374c-1.175-.592-2.634-1.452-2.903-2.19l-.108-.41.108-.287 1.508-3.89c-1.551.982-2.89 3.124-4.578 6.556L.503 35.077c-.163.356-.322.72-.503 1.092l11.452 5.296c.175-.372.335-.735.502-1.083l1.84-4.063c1.525-3.517 2.29-5.92 2.033-7.738zm-3.674 8.84l-1.425 3.091L1.192 36.1l1.43-3.091c.407-.865 1.461-1.317 2.782-1.317.987 0 2.13.255 3.26.778 2.635 1.218 4.201 3.432 3.489 4.952zm-.753-1.379c.144.4.15.748.018 1.041l-1.084 2.348-8.06-3.73 1.087-2.35c.243-.53 1.003-.847 2.04-.847.904 0 1.939.252 2.919.703 1.517.698 2.698 1.784 3.08 2.834zm2.172-11.274c.282.12.577.198.879.222.049.29.064.587.037.885.843.524 1.351.958 1.263 1.144l-2.631 4.835c-.152.32-1.803-.132-3.705-1.006C7.52 29.97 6.097 29 6.246 28.67l1.986-5.133c.09-.184.745-.08 1.675.223.582-.594 1.348-.913 2.102-.913.056.267.138.542.307.83-.515-.09-1.047.065-1.508.402a23.95 23.95 0 0 1 2.862 1.324c-.015-.21-.02-.425-.091-.623 0-.006 0-.009-.007-.012zm19.567.832c-.114.622.03 1.795.293 2.364l6.732 14.607c.341.748.736 1.595.15 2.514a1.895 1.895 0 0 1-1.592.873c-1.131 0-1.64-.858-2.053-1.544l-8.318-13.979-2.255 4.575c-.527 1.074-1.574 2.594-2.379 3.461l-4.534 4.89c-.593.634-1.055 1.13-1.923 1.13a1.895 1.895 0 0 1-1.7-1.068c-.526-1.104.115-1.903.683-2.606l4.478-5.55c.477-.595 1.111-1.81 1.324-2.546l1.663-5.81c.24-.853.521-2.37.593-3.251l.733-8.922c-3.625 1.201-7.172 5.935-8.373 7.916-.512.828-.941 1.541-2.02 1.544h-.005c-.659 0-1.28-.351-1.614-.928-.558-.943-.15-1.685.322-2.536.275-.494 6.97-12.302 16.002-11.591 3.901.334 5.146 3.266 5.971 5.206.189.45.377.891.593 1.283l5.152 9.316c.491.89.195 2.046-.676 2.56-.88.516-1.987.276-2.526-.586l-3.835-6.122-.887 4.8zm2.238-21.966a4.33 4.33 0 1 1-8.545 1.4A4.326 4.326 0 0 1 30.398.06a4.332 4.332 0 0 1 4.979 3.575z"/></svg>