<svg xmlns="http://www.w3.org/2000/svg" height="42.66" width="31.997" viewBox="0 0 29.996913 39.993998"><path d="M14.998 19.56c4.385 0 7.94-4.379 7.94-9.78 0-5.402-1.167-9.78-7.94-9.78s-7.94 4.379-7.94 9.78 3.555 9.78 7.94 9.78zM.001 34.493c-.002-.33-.003-.093 0 0zm29.993.257c.004-.09.001-.626 0 0zm-.017-.652c-.147-9.409-1.359-12.091-10.632-13.788 0 0-1.305 1.687-4.348 1.687S10.65 20.31 10.65 20.31C1.478 21.989.192 24.63.023 33.792c-.014.748-.02.787-.023.701l.001.988s2.208 4.513 14.996 4.513 14.996-4.513 14.996-4.513l.001-.731c-.003.054-.008-.05-.017-.652z" fill-rule="evenodd" clip-rule="evenodd" fill="#80ceff"/></svg>