<svg xmlns="http://www.w3.org/2000/svg" height="41.597" width="44.795" viewBox="0 0 41.994104 38.996003"><path d="M15.425 31.674l.159-.155s6.335-6.294 12.017-11.933V5.002c0-.759-.62-1.37-1.38-1.37l-23.506-.01c0-.944.706-1.42 1.425-1.42h23.463c1.466 0 1.424 1.286 1.424 1.286V18.17c.753-.751 1.481-1.474 2.172-2.158V1.284C31.2.26 30.325 0 29.907 0H3.883C-.001 0-.001 3.576-.001 3.576v32.9c0 .756.615 1.372 1.38 1.372h11.75c.285-1.131.93-2.937 2.21-5.962l.085-.211zM6.783 11.401V8.727H21.03V11.4H6.783zm24.42 16.964H31.2v-.001c-.734.73-1.463 1.45-2.17 2.156v2.896c0 .154.054 1.057-.706 1.057l-.72.002v-2.538a4599.308 4599.308 0 0 0-4.999 4.968l-.914.945h4.533a1.38 1.38 0 0 0 1.38-1.373l2.22-.003c1.48 0 1.38-1.452 1.38-1.452v-6.657zm5.884-16.788c-1.633 1.629-20.693 20.554-20.693 20.554s-2.698 6.378-2.251 6.816c.444.439 6.904-2.302 6.904-2.302 1.037-1.028 19.41-19.28 20.64-20.502.215-.213.306-.488.306-.802.003-1.903-3.503-5.157-4.906-3.763zm3.8 3.825A22255.142 22255.142 0 0 0 20.992 35.15l-3.035-3.017 19.913-19.78c.027-.03.219-.03.513.094.353.144.7.384 1.032.668L21.455 30.95a.407.407 0 0 0 0 .58.42.42 0 0 0 .587 0l17.954-17.839c.522.597.893 1.242.893 1.652a.32.32 0 0 1-.004.06z" fill-rule="evenodd" clip-rule="evenodd" fill="#80ceff"/></svg>