<svg xmlns="http://www.w3.org/2000/svg" height="44.795" width="29.863" viewBox="0 0 27.9966 41.994799"><path d="M22.201 4.524A4.595 4.595 0 0 0 17.607 0h-6.982A4.594 4.594 0 0 0 6.03 4.524H0v37.47h27.997V4.524H22.2zM10.625 2.262h6.982c1.287 0 2.333 1.046 2.333 2.333s-1.046 2.333-2.333 2.333h-6.982a2.335 2.335 0 0 1-2.333-2.333 2.335 2.335 0 0 1 2.333-2.333zm3.373 33.794H4.666v-2.262h9.332v2.262zm0-7.07H4.666v-2.262h9.332v2.262zm0-6.928H4.666v-2.263h9.332v2.263zm0-7.07H4.666v-2.262h9.332v2.262zm6.189 22.628l-2.763-2.291 1.444-1.742 1.102.914 1.723-1.89 1.672 1.525-3.178 3.484zm0-7.07l-2.763-2.291 1.444-1.742 1.102.914 1.723-1.89 1.672 1.526-3.178 3.483zm0-6.928l-2.763-2.291 1.444-1.742 1.102.914 1.723-1.89 1.672 1.525-3.178 3.484zm0-7.07l-2.763-2.291 1.444-1.742 1.102.914 1.723-1.89 1.672 1.525-3.178 3.484z" fill-rule="evenodd" clip-rule="evenodd" fill="#80ceff"/></svg>