<svg xmlns="http://www.w3.org/2000/svg" height="40.513" width="42.648" viewBox="0 0 39.981462 37.979998"><path d="M3.616 12.044h5.247l1.582 4.564h2.043L7.438 2.097H5.133l-5.03 14.51h1.974l1.539-4.563zM5.46 6.382c.286-.88.527-1.765.747-2.626h.044c.22.841.44 1.702.767 2.651l1.45 4.174H4.01l1.449-4.2zm32.282 19.58c.922 0 1.517-.083 1.78-.239 0-.274-.206-.51-.615-.714-.353-.198-.683-.302-.988-.302-.676 0-1.532.118-2.574.35-1.375.286-2.218.449-2.525.492-2.108.229-3.691.386-4.744.476.409.643.849.97 1.316.97.41 0 .96-.06 1.649-.177.541-.082 1.091-.171 1.647-.254.235.226.353.55.353.966v6.66l-.11.19-.243.111a94.448 94.448 0 0 0-2.326-.562c.38.27.802.73 1.273 1.376.526.704.935 1.178 1.229 1.421.952-.546 1.429-1.601 1.429-3.168V29.92c-.03-1.422-.139-2.62-.328-3.595 1.596-.244 2.856-.362 3.777-.362zm-26.618 3.199s-11.558 1.282-8.247-9.728c-9.711 14.787 8.247 15.873 8.247 15.873v2.68h.024l9.142-5.753-9.166-5.77v2.698zm18.62.075c-.057 0-.176.235-.35.71-.191.531-.308.832-.35.903-.278.317-.565.641-.858.972-.365.46-.549.807-.549 1.055 0 .156.063.29.188.398a.637.637 0 0 0 .427.164c.455 0 .894-.302 1.318-.906.354-.506.528-1.124.528-1.855 0-.96-.118-1.44-.354-1.44zm5.889-8.186c-.22 0-.638.091-1.253.281-.864.242-1.304.365-1.318.365-.672.171-1.574.308-2.7.41.057.473.555.711 1.494.711.51 0 1.411-.095 2.7-.28 1.48-.232 2.287-.446 2.416-.649 0-.213-.175-.413-.526-.602-.295-.159-.564-.236-.813-.236zm-7.624 7.366c0-.79-.476-1.959-1.426-3.508.026-.52.364-1.109 1.01-1.768.718-.747 1.135-1.308 1.252-1.68-.308-.375-.805-.67-1.495-.885-.072.028-.55.27-1.427.732-.628.316-1.112.475-1.45.475-.161 0-.377-.05-.648-.141-.27-.093-.487-.138-.649-.138l-.395.063c.266.43.395.719.395.862v10.104c0 .242-.052.612-.164 1.1-.11.485-.165.855-.165 1.095 0 .63.22 1.077.659 1.336l.462-.108c.087-.026.154-.53.198-1.508.043-1.062.066-2.678.066-4.846 0-.802-.01-1.995-.024-3.572-.014-1.64-.022-2.838-.022-3.6 1.286-.33 2.246-.61 2.877-.84l.154.087.065.171c-.22.486-.439.979-.658 1.467-.336.732-.506 1.2-.506 1.396 0 .145.134.551.397 1.21.294.73.453 1.175.482 1.334l-.197.216a48.95 48.95 0 0 0-2.394-.368c.365.19.87.532 1.514 1.034.644.506 1.142.848 1.494 1.034.397-.158.595-.41.595-.754zm.841-19.568s11.556-1.284 8.248 9.725C46.81 3.787 28.85 2.701 28.85 2.701V.006l-9.166 5.769 9.166 5.77V8.848zm9.287 21.313a7.267 7.267 0 0 0-2.792-.67c.455.347 1.123.957 2 1.83.848.819 1.523 1.415 2.022 1.787.335-.054.505-.383.505-.99 0-.787-.578-1.441-1.735-1.957z" fill-rule="evenodd" clip-rule="evenodd" fill="#80ceff"/></svg>