<svg xmlns="http://www.w3.org/2000/svg" height="49.168" width="51.908" viewBox="0 0 48.665469 46.09597"><path d="M13.572 35.442S-.42 36.963 3.53 23.577C-8.335 41.526 13.572 42.9 13.572 42.9v3.197l11.105-7-11.105-7v3.345zm21.596-24.638S49.16 9.283 45.21 22.669C56.92 4.564 35.168 3.346 35.168 3.346V0L24.063 7l11.105 7v-3.197zM4.331 10.28h3.91c.85 0 1.487.205 1.913.605s.637.982.637 1.726c0 .768-.229 1.365-.695 1.799-.458.433-1.169.646-2.118.646H6.686v2.821H4.331V10.28zm2.355 3.238h.573c.45 0 .768-.081.957-.237a.773.773 0 0 0 .278-.605c0-.237-.082-.441-.238-.605s-.457-.245-.899-.245h-.67v1.692zm4.612-3.238h2.552l1.047 3.132 1.038-3.132h2.388l-2.494 5.872a8.402 8.402 0 0 1-.532 1.063c-.155.237-.376.425-.679.572s-.711.229-1.234.229c-.278 0-.753-.04-1.423-.123v-1.57c.4.041.687.066.867.066.54 0 .875-.205.99-.605l-2.52-5.504zm12.921 4.49l2.06.621c-.139.58-.36 1.063-.654 1.447s-.67.68-1.104.875c-.441.197-1.006.295-1.684.295-.826 0-1.505-.123-2.028-.36s-.973-.662-1.358-1.268-.572-1.381-.572-2.322c0-1.26.335-2.224 1.006-2.903s1.619-1.014 2.837-1.014c.957 0 1.71.196 2.257.58s.957.982 1.219 1.783l-2.077.458c-.074-.229-.148-.4-.23-.507-.13-.18-.294-.319-.482-.417s-.4-.147-.638-.147c-.531 0-.94.213-1.226.646-.213.319-.32.818-.32 1.497 0 .842.132 1.422.385 1.733s.613.466 1.08.466c.45 0 .793-.122 1.022-.376.229-.237.4-.605.507-1.087zm-2.012 12.56h6.297v1.627h-3.942v1.21h3.655v1.554h-3.655v1.497h4.056v1.725h-6.41V27.33zm7.695 0h2.192l2.862 4.211V27.33h2.216v7.605h-2.216l-2.846-4.179v4.179h-2.208V27.33zm12.658 4.857v-1.586h3.631v3.246c-.695.475-1.308.794-1.848.965-.531.172-1.169.254-1.905.254-.9 0-1.635-.156-2.208-.458-.572-.31-1.014-.769-1.325-1.374s-.466-1.308-.466-2.093c0-.834.172-1.554.515-2.167s.843-1.08 1.505-1.399c.515-.245 1.21-.368 2.077-.368.842 0 1.472.074 1.89.23s.76.384 1.038.71c.278.32.482.729.621 1.22l-2.265.4c-.09-.286-.254-.507-.474-.662s-.507-.23-.85-.23c-.516 0-.925.18-1.236.54-.302.36-.457.924-.457 1.701 0 .826.155 1.415.466 1.766s.744.532 1.292.532c.261 0 .515-.04.752-.114s.515-.205.818-.393v-.72h-1.57z" fill="#80ceff"/></svg>