<svg xmlns="http://www.w3.org/2000/svg" height="42.648" width="42.459" viewBox="0 0 39.806097 39.983698"><path d="M38.984 1.842H17.216a.825.825 0 0 0-.825.824v5.407c.495.47.92 1.044 1.198 1.771l.232-.16c.068-.063.147-.111.22-.167V3.489h20.116V17.81H18.042v-1.542l-1.651 1.105v1.26c0 .456.37.825.825.825h21.768a.824.824 0 0 0 .826-.824V2.667a.823.823 0 0 0-.826-.824zM20.319 13.49l.988-.66h-.001c.001-.006.004-.006.007-.01a1.548 1.548 0 0 0 .283-1.83l7.983-5.405-.362-.535-8.064 5.46a1.518 1.518 0 0 0-.832-.308 1.574 1.574 0 0 0-1.176.45s-.007.01-.01.01l-.198.137-1.79 1.219V11.5c-.334-3.947-4.917-3.89-4.917-3.89h-1.985l-1.67 2.738L6.898 7.61H4.994c-5.172.098-4.99 3.887-4.99 3.887v8.845h.003c.002.023-.002.05-.002.069 0 .842.681 1.52 1.522 1.52.839 0 1.52-.68 1.52-1.52 0-.018 0-.046-.003-.068h.003v-8.182h.951l-.011 25.772a2.056 2.056 0 0 0 4.11 0V21.302h.915v16.65l.017.019a2.044 2.044 0 0 0 2.046 2.015 2.044 2.044 0 0 0 2.044-2.04l-.006-25.827h.99v2.703a1.52 1.52 0 0 0 1.518 1.518c.247 0 .47-.07.68-.178l.006.01 2.628-1.76 1.384-.924zM8.545 6.952a3.477 3.477 0 0 0 3.481-3.473A3.477 3.477 0 0 0 8.545.005 3.477 3.477 0 0 0 5.064 3.48a3.477 3.477 0 0 0 3.481 3.473z" fill-rule="evenodd" clip-rule="evenodd" fill="#80ceff"/></svg>