<svg xmlns="http://www.w3.org/2000/svg" height="46.968" width="55.102" viewBox="0 0 51.656338 44.034004"><g fill="#80ceff"><path d="M21.187 29.8v-1.618s5.175.161 7.601-2.265c0 0-3.558-.97-2.91-7.44s-.81-12.13-5.985-11.645c0 0-2.265-2.75-6.793-.97-1.618.647-5.661 2.102-5.5 10.998s-3.234 9.057-3.234 9.057 1.779 2.588 7.763 2.426v1.618l4.529 13.262L21.187 29.8z"/><path d="M32.347 38.371c-.324-1.617-1.294-3.073-2.75-3.72l-5.823-2.911-.97-.485 1.78 5.337-2.427-.162-5.499 6.793-5.5-6.793-2.587.162 1.78-5.337-1.133.647-5.5 2.75c-1.455.808-2.587 2.102-2.749 3.72L0 43.384c0 .324.162.647.647.647H32.83c.324 0 .648-.323.648-.647l-1.132-5.014zM48.359 3.274c-4.367-4.367-11.484-4.367-15.85 0-4.206 4.205-4.368 10.998-.486 15.365l.162.162c-.485.97-1.132 2.102-2.264 2.588-.324.161-.324.808.161.808 1.294.162 3.073 0 4.852-1.294 4.367 2.588 9.867 1.941 13.587-1.779 4.205-4.367 4.205-11.483-.162-15.85zm-12.778 9.38c-.808 0-1.455-.646-1.455-1.455s.647-1.456 1.455-1.456 1.456.647 1.456 1.456-.647 1.456-1.456 1.456zm4.853 0c-.81 0-1.456-.646-1.456-1.455s.647-1.456 1.456-1.456 1.455.647 1.455 1.456-.647 1.456-1.455 1.456zm4.852 0c-.809 0-1.456-.646-1.456-1.455s.647-1.456 1.456-1.456 1.455.647 1.455 1.456-.647 1.456-1.455 1.456z"/></g></svg>