<svg xmlns="http://www.w3.org/2000/svg" height="62.083" width="38.759" viewBox="0 0 36.337615 58.203545"><g fill="#80ceff" transform="translate(-14.472 -.096) scale(1.8318)"><circle cx="13.956" cy="5.621" r="2.486"/><path d="M16.139 15.039h-.086v-4.106c1.686-.752 3.04-1.966 3.724-3.809.824-2.217-.168-4.748-1.513-6.52-1.003-1.32-3.269-.023-2.251 1.317.931 1.226 1.693 2.667 1.33 4.246-.317 1.366-1.557 2.13-2.808 2.573a2.551 2.551 0 0 0-1.26-.044c-1.218-.455-2.285-1.2-2.683-2.53-.455-1.518.447-3.084 1.33-4.246C12.938.58 10.671-.716 9.67.604 8.252 2.473 7.465 4.81 8.157 7.124c.521 1.74 1.884 2.934 3.462 3.69v4.557L9.534 21.6s10.038 2.737 9.213-8.649l-2.609 2.086z"/><path d="M10.785 30.567c0 1.68 2.607 1.68 2.607 0v-8.03h-2.607v8.03zM25.612 8.41c-1.366 1.12-4.738 3.97-6.104 5.092 0 0 .095 2.806-.354 3.791 0 0 6.745-5.747 8.112-6.868 1.3-1.065-.353-3.082-1.654-2.015z"/></g></svg>