<?xml version="1.0" encoding="UTF-8" standalone="no"?>
<!-- Created with Inkscape (http://www.inkscape.org/) -->

<svg
   xmlns:dc="http://purl.org/dc/elements/1.1/"
   xmlns:cc="http://creativecommons.org/ns#"
   xmlns:rdf="http://www.w3.org/1999/02/22-rdf-syntax-ns#"
   xmlns:svg="http://www.w3.org/2000/svg"
   xmlns="http://www.w3.org/2000/svg"
   xmlns:sodipodi="http://sodipodi.sourceforge.net/DTD/sodipodi-0.dtd"
   xmlns:inkscape="http://www.inkscape.org/namespaces/inkscape"
   width="14.402054mm"
   height="12.326308mm"
   viewBox="0 0 51.030899 43.675895"
   id="svg2"
   version="1.1"
   inkscape:version="0.91 r13725"
   sodipodi:docname="9.svg">
  <defs
     id="defs4" />
  <sodipodi:namedview
     id="base"
     pagecolor="#ffffff"
     bordercolor="#666666"
     borderopacity="1.0"
     inkscape:pageopacity="0.0"
     inkscape:pageshadow="2"
     inkscape:zoom="2.8"
     inkscape:cx="-28.15926"
     inkscape:cy="-1.8902937"
     inkscape:document-units="px"
     inkscape:current-layer="layer1"
     showgrid="false"
     fit-margin-top="0"
     fit-margin-left="0"
     fit-margin-right="0"
     fit-margin-bottom="0"
     inkscape:window-width="1920"
     inkscape:window-height="1027"
     inkscape:window-x="-8"
     inkscape:window-y="-8"
     inkscape:window-maximized="1" />
  <metadata
     id="metadata7">
    <rdf:RDF>
      <cc:Work
         rdf:about="">
        <dc:format>image/svg+xml</dc:format>
        <dc:type
           rdf:resource="http://purl.org/dc/dcmitype/StillImage" />
        <dc:title></dc:title>
      </cc:Work>
    </rdf:RDF>
  </metadata>
  <g
     inkscape:label="Layer 1"
     inkscape:groupmode="layer"
     id="layer1"
     transform="translate(-513.13479,-427.08172)">
    <g
       id="g4191"
       transform="matrix(0.05198326,0,0,0.05198326,513.13479,426.9902)">
      <g
         id="g4193">
        <path
           id="path4195"
           d="m 257.95813,304.74017 c 71.15948,0 128.77817,-57.65887 128.77817,-128.89873 0,-44.39934 15.63016,-85.0619 -18.6839,-108.12544 C 347.48004,53.69307 257.15451,47.0633 230.47473,47.0633 c -31.74251,0 -73.00777,25.87618 -95.46861,44.96186 -27.92538,23.58589 -5.90651,44.35916 -5.90651,83.77612 0,71.28003 57.57849,128.93889 128.85852,128.93889 z M 168.19511,163.22482 c 23.66624,-4.2993 39.7384,3.49568 39.7384,3.49568 l 39.53752,-19.24641 c 0,0 -20.13037,29.09061 -2.04921,19.24641 40.26079,-13.5006 85.30299,-7.87534 108.2058,-3.37514 0.80362,5.02255 1.52686,10.16563 1.52686,15.50964 0,53.03813 -42.10904,95.91061 -94.38373,95.91061 -51.99344,0 -94.14267,-42.87248 -94.14267,-95.91061 0,-5.344 0.72325,-10.48708 1.56703,-15.63018 z"
           inkscape:connector-curvature="0"
           style="fill:#80ceff" />
        <path
           id="path4197"
           d="m 886.62061,157.7603 c -0.60272,-7.35301 -1.20544,-14.66586 -2.81262,-21.73759 C 878.70502,90.85994 838.28357,-0.91208 722.28278,1.82019 622.31397,4.19083 600.49598,79.44871 595.23236,125.25438 c -3.53589,11.25052 -5.82617,23.02336 -6.58954,35.2784 -130.02377,22.70192 -115.71957,154.65432 -36.32312,156.90441 -7.55389,-68.90938 25.31366,-110.29517 37.97046,-123.59489 11.6925,71.15947 73.1283,125.84499 147.54236,125.84499 70.55682,0 129.46124,-49.14059 145.41284,-114.83556 12.17462,21.45633 32.62646,65.41371 27.6441,112.62563 125.08174,-1.08487 63.52527,-144.08689 -24.26885,-159.71706 z M 737.83258,277.25677 c -58.46246,0 -106.03601,-47.09143 -107.362,-105.31284 21.33575,-7.75481 37.16687,-44.72077 37.16687,-44.72077 0,0 12.65686,4.33947 12.65686,46.08691 22.1394,7.71463 60.59204,-64.85115 60.59204,-64.85115 l 0,57.1767 c 24.38947,6.66994 101.29474,-2.16974 101.29474,-2.16974 l 2.85278,2.41083 c 0.0402,1.20541 0.36163,2.45099 0.36163,3.69659 0.0803,59.38665 -48.13616,107.68347 -107.56292,107.68347 z"
           inkscape:connector-curvature="0"
           style="fill:#80ceff" />
        <polygon
           id="polygon4199"
           points="276.2402,662.50641 276.2402,823.10742 276.2402,841.95203 350.21228,841.95203 350.21228,823.10742 333.97943,823.10742 333.97943,662.50641 365.03888,662.50641 365.03888,455.21573 467.09708,560.00623 508.80432,549.72003 531.90808,555.50598 647.50702,423.19196 654.09662,475.62738 546.73462,660.13574 670.57056,660.13574 670.57056,820.77692 654.29755,820.77692 654.29755,839.46082 728.35004,839.46082 728.35004,820.77692 728.43036,820.77692 728.43036,660.13574 756.11469,660.13574 756.11469,820.77692 756.11469,839.46082 830.20734,839.46082 830.20734,820.77692 813.93427,820.77692 813.93427,660.13574 909.92517,660.13574 815.34058,475.62738 820.5238,411.09769 910.88953,532.20135 970.7583,517.29443 827.47504,323.54462 769.17328,323.54462 705.88922,323.54462 653.05194,323.54462 498.31726,509.98166 348.56491,325.87506 178.32059,325.87506 -1e-005,521.63397 37.36776,560.16693 165.02087,451.23788 165.02087,662.50641 190.61578,662.50641 190.61578,823.10742 174.34273,823.10742 174.34273,841.95203 248.47556,841.95203 248.47556,823.10742 248.47556,662.50641 "
           style="fill:#80ceff" />
      </g>
    </g>
  </g>
</svg>
