<?xml version="1.0" encoding="utf-8"?>
<!-- Generator: Adobe Illustrator 17.1.0, SVG Export Plug-In . SVG Version: 6.00 Build 0)  -->
<!DOCTYPE svg PUBLIC "-//W3C//DTD SVG 1.1//EN" "http://www.w3.org/Graphics/SVG/1.1/DTD/svg11.dtd">
<svg version="1.1" id="Слой_1" xmlns="http://www.w3.org/2000/svg" xmlns:xlink="http://www.w3.org/1999/xlink" x="0px" y="0px"
	 width="45.41268px" height="50px" viewBox="0 0 45.41268 50" enable-background="new 0 0 45.41268 50" xml:space="preserve">
<g>
	<path fill="#1B325F" d="M9.22359,0C9.24068,0.02765,9.25262,0.07394,9.2756,0.0803c2.17037,0.60031,3.53825,1.94884,3.60891,4.2565
		c0.07925,2.588-0.81493,4.80691-3.09224,6.23438c-1.4096,0.88357-3.06734,0.62507-4.3651-0.64718
		C3.7824,8.31155,3.02843,6.30472,3.27043,4.00396c0.2134-2.02889,1.38333-3.29824,3.36056-3.81932
		C6.78446,0.1442,6.92705,0.06252,7.0747,0C7.791,0,8.50729,0,9.22359,0z"/>
	<path fill="#1B325F" d="M8.04782,48.02966c-0.9275,0.99831-1.9657,1.48087-3.27231,1.03668
		c-1.30316-0.44302-1.95511-1.47545-1.9579-3.14751C2.80978,41.23173,2.81471,36.5446,2.8146,31.85748
		c-0.00001-0.35468,0-0.70937,0-1.13573c-0.36038-0.02306-0.67113-0.02515-0.97679-0.06566
		c-1.1729-0.15544-1.82606-1.01626-1.83009-2.47279c-0.01106-4.00356-0.00409-8.00716-0.00406-12.01075
		c0-0.42314-0.01055-0.84669,0.00418-1.26934c0.05044-1.44732,0.76329-2.26645,2.19586-2.34469
		c1.36307-0.07444,2.734-0.04844,4.09991-0.01041c0.75861,0.02112,1.26864,0.9137,1.10914,1.81943
		c-0.37771,2.14494-0.6934,4.3038-1.16647,6.42756c-0.2091,0.93869-0.01223,1.54485,0.72642,2.08312
		c0.36411,0.26533,0.667,0.61465,1.07173,0.99577c0.60362-0.56327,1.22387-1.07929,1.75543-1.67452
		c0.17-0.19037,0.18399-0.60383,0.13522-0.89256c-0.38985-2.30764-0.81048-4.61009-1.22472-6.91359
		c-0.21023-1.16907,0.35988-1.86801,1.55869-1.85585c5.55588,0.05636,3.93918-0.57398,7.75672,3.2058
		c1.24891,1.23656,2.47115,2.50016,3.69844,3.75837c0.24237,0.24848,0.45199,0.52891,0.67873,0.79699
		c-1.16284,0.84161-2.25047,1.62879-3.40815,2.46667c0.87464,0.85371,1.7027,0.99487,2.61266,0.54902
		c0.99449-0.48728,1.26524-1.32992,0.99781-2.93661c6.59073-3.73309,15.51969-1.47644,20.05385,5.06829
		c4.59333,6.63015,3.32259,15.69638-2.93578,20.94558c-6.14693,5.15573-15.2948,4.7388-21.0637-0.94438
		c-5.70979-5.62497-6.70069-15.69882,0.26271-22.61819c-1.87665-1.78679-3.75413-3.57437-5.62317-5.35391
		c0,0.12668,0,0.45569,0,0.7847c-0.00002,9.14639,0.00845,18.2928-0.01702,27.43911
		c-0.00193,0.69417-0.09463,1.46479-0.40384,2.06704C11.9427,49.58816,9.83425,49.69926,8.04782,48.02966z M42.86829,34.27514
		c-0.02567-7.2735-5.94642-13.18131-13.18254-13.15373c-7.24404,0.02761-13.1688,5.98898-13.13411,13.21528
		c0.03491,7.27184,5.93712,13.14773,13.19569,13.13684C36.99826,47.46265,42.89391,41.53222,42.86829,34.27514z"/>
	<path fill="#1B325F" d="M41.73704,34.29183c0.01601,6.64531-5.37785,12.03646-12.03463,12.02861
		c-6.63837-0.00784-12.07994-5.4547-12.03979-12.05151c0.04011-6.59093,5.43145-11.97438,12.0133-11.99575
		C36.31594,22.25162,41.72101,27.63766,41.73704,34.29183z M18.69341,34.19489c-0.13443,5.88692,4.7466,10.9769,10.66696,11.12361
		c6.15003,0.1524,11.19092-4.60225,11.35047-10.70592c0.16077-6.15018-4.68311-11.21934-10.83582-11.33977
		C23.83052,23.1545,18.83406,28.03498,18.69341,34.19489z"/>
	<path fill="#1B325F" d="M30.68891,40.7347c-0.03838,0.43295-0.07762,0.87564-0.12124,1.36764c-0.46042,0-0.87051,0-1.39541,0
		c-0.03193-0.42191-0.06507-0.85997-0.10431-1.37841c-1.43158-0.26778-3.18133,0.0882-4.12421-1.38786
		c-0.47418-0.74233-0.54679-1.74118-0.8397-2.75843c0.95539,0,1.65381,0,2.3578,0c0.59012,2.0583,0.7087,2.15577,2.57824,2.04506
		c0-1.14428,0-2.29433,0-3.50466c-1.36829-0.272-3.06656,0.10567-3.9073-1.27858c-0.49859-0.82092-0.67281-1.98415-0.6124-2.97015
		c0.14175-2.31345,0.88764-2.91506,4.51223-3.16843c0.04517-0.35838,0.09204-0.73018,0.14589-1.15748c0.46449,0,0.90131,0,1.37715,0
		c0.04877,0.39472,0.09188,0.74365,0.14052,1.13734c1.30398,0.31909,2.92515-0.04605,3.79088,1.31022
		c0.41998,0.65794,0.46524,1.55506,0.71175,2.45989c-0.887,0-1.52548,0-2.24493,0c-0.17179-1.18717-0.87368-1.7708-2.21972-1.57327
		c0,1.03319,0,2.08434,0,3.19961c1.40741,0.34086,3.22364-0.05717,4.10938,1.42504c0.48846,0.81739,0.54369,1.98935,0.52258,2.99576
		C35.32146,39.62632,34.61025,40.06583,30.68891,40.7347z M30.70935,35.21668c0,1.18306,0,2.29971,0,3.41227
		c1.68654,0.05167,2.40704-0.53509,2.38896-1.88464C33.08107,35.45886,32.5513,35.10766,30.70935,35.21668z M29.06912,29.8268
		c-0.90224,0.01179-1.78353-0.03329-2.10313,0.84764c-0.17533,0.48327-0.12548,1.19201,0.11204,1.64865
		c0.38675,0.74355,1.17983,0.77637,1.99109,0.63617C29.06912,31.9187,29.06912,30.92222,29.06912,29.8268z"/>
</g>
</svg>
