<svg xmlns="http://www.w3.org/2000/svg" viewBox="0 0 91.407835 48.000001" height="48" width="91.408"><g fill-rule="evenodd" fill="#1b325f" clip-rule="evenodd"><path d="M20.565 42.178h.658l.14-.007.065-.023.021-.07.007-.151v-1.27h-.547v.107l-.021.444-.065.385-.106.322zm4.303-1.194l.034.155.102.128.048.025.107.058.186.027.006.003.049-.006v-.696l-.144-.02-.171.023-.12.074-.074.105zm11.062-.137l-.061-.098-.084-.073-.098-.045-.102-.017-.151.032-.137.094-.1.15-.048.196h.82zm5.411.137l.035.155.102.128.05.025.107.058.185.027.004.003.05-.006v-.696l-.144-.02-.17.023-.122.074-.073.105zm2.689.936l.061.105.09.07.102.02.17-.046.216-.147v-.675l-.377.165-.131.086-.088.091-.05.099-.016.105zm16.404-.386l-.013-.224-.038-.198-.064-.173-.09-.148-.072-.082-.082-.058-.093-.035-.102-.011-.102.015-.104.046-.093.083-.075.131-.047.174-.016.218.037.36.05.161.067.148.082.122.095.088.107.052.12.017.09-.01.082-.029.138-.115.054-.092.038-.119zm3.606 0l-.012-.224-.039-.198-.063-.173-.088-.148-.075-.082-.082-.058-.093-.035-.102-.011-.102.015-.104.046-.093.083-.072.131-.05.174-.016.218.04.36.048.161.067.148.082.122.096.088.108.052.118.017.091-.01.08-.029.14-.115.054-.092.036-.119zm2.127-.674l-.026.124.035.155.104.128.047.025.108.058.185.027.006.003.047-.006v-.696l-.142-.02-.171.023-.122.074zm3.805 1.292l.14-.076.09-.117.03-.142-.032-.164-.097-.115-.162-.07-.226-.023-.124.002v.704l.206.027zm4.017-.232l.064.105.092.07.1.02.172-.046.213-.147v-.675l-.378.165-.128.086-.086.091-.05.099-.02.105zm-.429-8.13l-.035-.58-.1-.42-.2-.256-.292-.084-.257.082-.164.248-.164 1.01-.021.692h1.255l-.014-.28zm-42.362 1.738l.099-.626.029-.79-.03-.787-.092-.638-.13-.179-.2-.058-.188.06-.13.182-.098.633-.029.787.03.79.103.62.131.183.19.06.187-.058zm1.804 3.355l-.06-.252-.184-.149-.697-.096h-2.364l-.381.178-.088.166-.03.23.036.202.102.178.413.276.593.165.674.055.807-.056.633-.17.41-.295.102-.199z"/><path d="M78.425 28.984H12.982v14.298h65.442V28.985zm-9.157 3.701l.354.47.116.59v2.41l.011.498.051.519.11.091.224.06.17.011v.175h-2.835v-.175l.26-.03.13-.088.06-.563.01-.496v-2.183l-.01-.443-.098-.67-.137-.154-.215-.05-.363.178-.16.262-.096.434v2.626l.009.496.033.497.106.122.255.062v.175h-2.674v-.175l.256-.029.129-.09.065-.562.01-.498V33.97l-.01-.443-.098-.67-.137-.155-.215-.051-.27.058-.167.179-.183.487v2.78l.01.498.032.498.108.122.253.062v.175h-2.815v-.175l.208-.012.219-.055.109-.096.056-.52.011-.497v-2.584l-.01-.442-.057-.39-.102-.105-.237-.057-.215-.021v-.175h2.394v.81l.127-.304.207-.304.378-.231.634-.077.493.064.425.19.34.317.237.442.25-.603.148-.18.24-.128.757-.102.598.102.512.308zm-8.348 4.583l.218.055.226.011v.175h-3.05v-.175l.227-.01.217-.056.11-.096.057-.52.01-.497v-2.583l-.01-.443-.056-.39-.104-.105-.235-.058-.255-.02v-.175h2.469v3.774l.01.497.056.514.11.102zm-26.28.872h40.784v.781H34.64v-.781zm19.712 2.39h.824v.075l-.174.026-.07.065-.018.083-.007.17v.94l.022.244.067.07.067.023.113.007v.071h-.856v-.071l.133-.015.08-.045.042-.1.013-.184v-.835l-.766.89.013.138.033.087.067.048.117.016v.071h-.818v-.071l.14-.016.08-.048.037-.102.01-.179v-.94l-.02-.246-.065-.068-.068-.02-.115-.009v-.075h.857v.075l-.174.026-.07.066-.019.082-.005.169v.811l.766-.887-.017-.126-.04-.08-.07-.044-.109-.016v-.075zm-.422-.619l.06.11.07.06.141.033.106-.013.078-.04.06-.073.055-.115.092-.15.052-.038.057-.013.053.011.045.031.03.046.01.059-.013.072-.036.07-.146.134-.207.095-.232.033-.279-.03-.109-.036-.09-.051-.118-.13-.029-.074-.01-.08.01-.062.027-.048.044-.03.053-.011.062.014.058.046.106.18zm-1.699.62h.824v.075l-.173.025-.071.065-.019.082-.005.17v.94l.02.244.067.07.068.023.113.007v.071h-.857v-.07l.133-.015.082-.046.04-.1.013-.184v-.835l-.765.89.013.138.033.088.067.047.117.016v.071h-.819v-.07l.142-.017.079-.047.036-.102.013-.18v-.94l-.021-.245-.066-.068-.067-.022-.116-.007v-.075h.859v.075l-.174.025-.07.066-.02.082-.006.17v.81l.766-.887-.015-.126-.04-.08-.07-.044-.11-.016v-.075zm-1.882 0h.588v.075l-.176.025-.067.065-.02.082-.006.17v.94l.022.244.066.07.069.023.113.007v.071h-.919v-.07l.206-.017.051-.026.04-.049.024-.093.009-.16v-1.23h-.59v.745l-.01.361-.028.235-.057.15-.093.104-.119.062-.134.02-.11-.013-.077-.039-.047-.063-.014-.09.009-.064.031-.05.046-.033.056-.013.066.014.06.042.067.057.047.018.075-.036.053-.111.03-.2.009-.311v-.392l-.012-.242-.03-.126-.079-.053-.146-.025v-.075h.996zm5.422-3.419l.306.162.377.038.3.022v.175h-4.597v-.175l.621-.033.237-.056.15-.106.13-.486.019-.498v-6.329l-.367.02-.316.13-.352.384-.738 1.3-.625 1.434h-.16v-3.47h7.429v3.47h-.16l-.607-1.401-.738-1.294-.363-.414-.315-.139-.378-.02v6.307l.02.498.126.48zm-9.296 3.419h.857v.075l-.175.027-.046.033-.03.045-.017.237v.94l.014.223.024.049.045.038.075.026.11.009v.07h-.857v-.07l.135-.015.08-.045.04-.1.015-.185v-.439h-.767v.44l.014.222.026.049.045.038.073.026.111.009v.07h-.858v-.07l.142-.017.078-.047.037-.102.013-.179v-.94l-.015-.225-.025-.05-.045-.038-.073-.025-.111-.008v-.075h.858v.075l-.175.028-.047.032-.028.046-.02.237v.375h.768v-.375l-.015-.22-.068-.088-.073-.025-.115-.01v-.074zm3.786-3.263l.22.055.205.011v.175h-2.908v-.175l.122-.01.204-.033.106-.097.054-.541.012-.496v-2.205l-.012-.443-.033-.389-.098-.26-.162-.145-.23-.05-.273.06-.183.179-.22.487v2.766l.011.496.051.546.104.093.21.031.122.011v.175h-2.918v-.175l.217-.011.219-.055.109-.096.056-.52.01-.497v-5.34l-.01-.442-.08-.407-.342-.145-.36-.022v-.175h2.601v2.567l-.008.6-.028.393.213-.384.285-.286.385-.18.524-.06.612.103.538.302.373.465.126.58v2.43l.01.498.056.514.11.102zm24.065-4.597l.32.306.25.37.18.41.109.448.034.488h-2.89l.053.797.196.783.179.343.235.267.307.176.364.057.52-.092.393-.28.3-.422.213-.514.15.075-.342.723-.507.547-.628.344-.741.117-.535-.045-.478-.134-.435-.22-.38-.31-.314-.388-.224-.456-.134-.525-.044-.592.046-.557.138-.507.231-.452.325-.402.388-.328.425-.235.462-.14.5-.048.508.044.447.13.382.221zm-1.897 8.612l.108-.051.098-.104.088-.179.124-.277.058-.065.079-.051.09-.035.095-.01.093.012.073.036.047.059.015.074-.011.062-.033.053-.055.035-.069.013-.108-.024-.123-.03-.08.039-.066.115-.097.228-.118.136.13.09.101.136.16.272.135.219.095.12.095.054.127.022v.071h-.523l-.213-.36-.207-.367-.086-.128-.043-.03-.064-.01-.073.004v.474l.022.244.031.046.05.03.194.024v.071h-.885v-.071l.14-.017.08-.047.036-.102.011-.179v-.94l-.02-.246-.066-.067-.069-.022-.113-.007v-.075h.886v.074l-.199.024-.067.057-.024.082-.007.18v.348l.06.004.113-.017zm-4.916-.753h.082l.08.031.144-.031.299-.05.235.029.191.089.077.063.053.074.033.083.008.093-.027.139-.085.12-.142.098-.2.079.233.071.165.108.1.142.033.174-.011.1-.033.092-.127.167-.095.07-.113.047-.135.03-.151.01-.2-.02-.175-.056-.168-.102-.184-.157.05-.05.158.108.153.077.148.045.143.015.148-.027.12-.083.079-.127.025-.159-.031-.17-.093-.125-.155-.08-.218-.033v-.113l.202-.03.076-.04.062-.054.079-.13.026-.138-.023-.118-.067-.102-.104-.073-.135-.024-.159.031-.127.093-.1.155-.071.215h-.07v-.555zm-.521.417v.94l.016.221.026.05.049.04.074.025.104.01v.07h-.856v-.071l.133-.015.082-.045.04-.1.013-.184v-.385l-.079.002-.062-.002-.565.8h-.44v-.071l.136-.026.14-.17.416-.586-.195-.087-.14-.11-.082-.127-.03-.15.011-.087.03-.082.12-.144.095-.059.122-.04.328-.035h.787v.075l-.104.008-.073.025-.075.084-.017.226zm3.606-.417h.891v.075l-.166.025-.046.031-.029.046-.02.24v.941l.016.235.028.048.047.032.175.03v.07h-.891v-.07l.195-.02.042-.028.034-.047.024-.093.007-.157v-.94l-.02-.243-.029-.045-.045-.032-.208-.023v-.075zm-28.137 0v.075l-.1.008-.072.025-.075.084-.019.226v.94l.017.22.025.05.05.04.072.025.106.01v.07h-.858v-.07l.135-.015.08-.046.042-.1.012-.184v-.384l-.08.001-.062-.001-.565.8h-.44v-.071l.135-.026.14-.171.414-.585-.195-.088-.139-.11-.084-.127-.027-.15.011-.087.029-.082.12-.144.093-.058.122-.04.33-.035h.788zm-2.092.417v.94l.022.245.066.07.069.023.113.007v.071h-.858v-.071l.135-.015.08-.045.04-.1.014-.184v-.835l-.767.89.015.138.032.087.068.048.116.016v.071h-.82v-.071l.148-.015.08-.048.035-.102.013-.178v-.94l-.022-.246-.066-.068-.067-.022-.115-.007v-.075h.859v.075l-.175.025-.07.066-.018.082-.007.17v.81l.767-.887-.016-.126-.04-.08-.071-.044-.11-.016v-.075h.825v.075l-.175.025-.069.066-.02.082-.005.17zm-2.117.941l.014.223.026.048.046.039.075.025.109.01v.07h-.859v-.07l.135-.015.08-.046.042-.1.013-.184v-.439h-.765v.44l.013.222.025.049.046.038.074.026.11.009v.07h-.857v-.07l.14-.017.081-.048.037-.102.01-.178v-.94l-.014-.222-.024-.05-.046-.038-.074-.025-.11-.008v-.075h.857v.075l-.175.027-.046.033-.029.046-.018.237v.375h.765v-.375l-.012-.22-.068-.088-.074-.025-.115-.01v-.074h.859v.074l-.175.028-.048.032-.027.046-.02.237v.94zm-4.464-1.358h.856v.075l-.175.025-.07.066-.018.082-.007.17v.94l.018.237.029.047.047.033.175.027v.071h-.9v-.07l.203-.02.043-.028.034-.048.023-.092.007-.157v-.434l-.291.11-.308.036-.154-.011-.115-.033-.076-.048-.042-.052-.025-.186v-.322l-.017-.227-.025-.049-.044-.036-.16-.032v-.074h.835v.075l-.175.025-.07.066-.02.082-.006.17v.218l.019.171.03.042.055.033.188.031.206-.03.195-.087v-.379l-.018-.237-.027-.047-.048-.033-.173-.026v-.074zm-1.65 0h.576v.073l-.11.031-.085.088-.065.147-.475 1.161-.158.39-.09.218-.12.226-.153.163-.168.099-.158.032-.104-.016-.084-.05-.056-.068-.019-.081.015-.075.04-.056.062-.037.084-.013.173.043.096.029.063-.015.065-.045.07-.088.069-.144.126-.308-.636-1.337-.093-.15-.08-.09-.145-.054v-.073h.827v.073h-.04l-.076.01-.055.027-.033.043-.01.052.016.089.047.12.432.893.395-.979.035-.156-.015-.053-.047-.033-.117-.013v-.073zm11.883-3.574l-.24.236-.609.317-.723.106-.4-.05-.39-.146-.743-.438-.115.056-.102.169-.113.487h-.133V35.27h.123l.243.758.247.528.254.36.275.255.32.154.382.052.219-.037.186-.109.127-.175.042-.23-.033-.291-.1-.206-.414-.352-.654-.42-.62-.454-.387-.504-.102-.302-.035-.346.032-.378.101-.331.164-.286.231-.243.585-.328.704-.109.35.039.328.112.632.355.122-.045.104-.139.093-.433h.133v2.176h-.124l-.188-.575-.325-.634-.446-.492-.268-.131-.333-.044-.239.037-.19.111-.124.164-.042.198.032.223.087.168.343.298.618.401.7.481.284.266.233.323.155.377.053.428-.035.39-.104.34-.172.287zm-10.868 2.395l-.34.254-.844.331-.98.11-.803-.057-.698-.179-.282-.142-.203-.185-.12-.232-.04-.275.048-.254.143-.194.485-.234-.335-.264-.253-.293-.106-.228-.053-.113-.053-.41.078-.5.232-.418.343-.305.4-.151-.308-.286-.23-.345-.145-.4-.05-.46.036-.395.102-.354.169-.315.237-.273.596-.381.709-.128.408.036.368.112.33.186.288.26.13-.244.19-.188.241-.122.286-.04.297.05.232.145.147.23.052.298-.039.237-.113.196-.175.129-.22.044-.21-.037-.173-.11-.117-.18-.038-.246.09-.286.089-.2-.075-.042-.273.113-.245.34.265.514.092.644-.032.39-.104.352-.17.31-.24.271-.594.377-.687.126-.449-.052-.438-.154-.376.076-.135.128-.046.186.037.135.106.095.3.087h2.007l.694.128.54.379.338.561.008.011.114.7-.047.44-.146.376-.242.315zm-4.875 1.18h.824v.074l-.175.025-.07.066-.018.082-.007.17v.94l.022.244.067.07.068.023.113.007v.071h-.859v-.07l.135-.015.08-.046.042-.1.013-.184v-.835l-.765.89.012.138.033.088.068.047.116.016v.071h-.818v-.07l.14-.017.08-.048.037-.102.01-.178v-.94l-.02-.246-.065-.068-.07-.022-.113-.007v-.075h.857v.075l-.173.025-.071.066-.019.082-.005.17v.81l.766-.887-.016-.125-.04-.08-.072-.045-.107-.016v-.075zm1.075 0h.08l.08.03.143-.031.3-.05.234.028.191.09.075.063.055.073.03.084.012.093-.028.139-.085.12-.142.098-.2.078.233.072.165.108.099.141.034.175-.01.1-.033.091-.128.168-.095.07-.112.047-.136.03-.152.01-.2-.02-.174-.056-.17-.102-.182-.157.05-.05.158.108.15.076.15.046.145.014.147-.027.12-.082.079-.127.025-.159-.031-.17-.093-.125-.157-.08-.216-.033v-.113l.202-.031.076-.039.061-.054.08-.13.026-.138-.022-.118-.068-.102-.106-.073-.132-.024-.16.03-.127.094-.1.154-.07.216h-.07v-.556zm-3.632.417v.94l.015.22.027.05.047.04.075.025.104.01v.07h-.856v-.07l.134-.015.08-.046.04-.1.015-.184v-.384l-.08.001-.062-.001-.565.8h-.44v-.071l.135-.026.141-.171.414-.585-.196-.088-.138-.11-.084-.127-.027-.15.009-.087.03-.082.12-.144.095-.058.121-.04.329-.035h.786v.075l-.104.007-.073.025-.075.084-.016.226zm22.402 1.184l.066.07.067.023.113.008v.07h-.886v-.07l.157-.017.088-.044.04-.098.014-.186v-.94l-.022-.241-.029-.046-.046-.03-.202-.026v-.075h1.469l.071.485h-.083l-.075-.195-.075-.104-.114-.044-.2-.015h-.375v1.23l.022.245zm-8.778-9.75v3.773l.01.498.057.514.11.102.218.054.226.011v.175h-3.05v-.175l.226-.01.219-.055.11-.097.056-.519.01-.498v-2.584l-.01-.442-.056-.39-.105-.105-.234-.057-.253-.021v-.175h2.467zm-3.17-2.758v6.531l.01.498.056.514.112.102.218.054.226.011v.175h-3.054v-.175l.226-.01.218-.055.112-.097.057-.519.008-.498v-5.34l-.008-.442-.057-.39-.102-.105-.237-.057-.32-.022v-.175h2.536zm-8.181 7.029l.056.514.11.102.218.054.208.011v.175h-2.91v-.175l.271-.03.142-.094.075-.557.01-.498v-2.207l-.009-.442-.032-.37-.097-.265-.162-.156-.226-.053-.281.058-.184.179-.22.486v2.77l.008.498.07.563.14.09.279.029v.175h-2.93v-.175l.225-.011.22-.055.11-.096.057-.52.01-.498v-2.584l-.01-.442-.056-.39-.104-.104-.235-.058-.217-.02v-.176h2.395v.81l.371-.609.395-.23.646-.076.625.108.534.324.366.47.124.547v2.431l.009.498zm-4.65 3.877h.823v.075l-.173.025-.071.066-.018.082-.005.17v.94l.02.244.067.07.068.023.112.007v.071h-.856v-.071l.133-.015.082-.045.04-.1.013-.184v-.835l-.765.89.012.138.033.087.067.048.117.016v.071h-.818v-.071l.142-.016.078-.048.037-.102.012-.178v-.94l-.022-.247-.065-.067-.067-.022-.115-.008v-.074h.858v.074l-.175.026-.069.066-.02.082-.005.17v.81l.765-.887-.014-.126-.04-.08-.071-.044-.11-.016v-.075zm-1.885 0h.59v.075l-.176.025-.068.066-.02.082-.005.17v.876l.01.222.037.117.079.05.144.02v.562h-.075l-.024-.149-.055-.128-.084-.1-.112-.066-.155-.036-.215-.013h-.457l-.19.01-.144.028-.11.059-.09.098-.064.135-.033.162h-.07v-.563l.15-.034.03-.02.107-.072.122-.178.106-.292.074-.348.024-.34-.018-.146-.057-.108-.093-.063-.13-.026v-.075h.972zm6.458-2.39v.781H14.638v-.781h13.28zm-10.486 2.39h.603l.079.482h-.088l-.03-.13-.045-.095-.059-.066-.065-.04-.239-.024h-.155v1.23l.024.25.033.045.046.026.247.024v.07h-.964v-.07l.153-.017.088-.044.038-.098.015-.186v-1.23h-.159l-.228.02-.058.035-.057.062-.05.096-.043.14h-.087l.073-.48h.929zm.73 0h.827v.073h-.042l-.074.01-.055.027-.033.043-.01.052.016.089.047.12.432.893.396-.979.032-.156-.012-.053-.05-.033-.114-.013v-.073h.575v.073l-.109.031-.085.088-.066.147-.474 1.161-.158.39-.09.218-.12.226-.152.163-.169.099-.158.032-.104-.016-.084-.05-.056-.068-.019-.081.015-.075.038-.056.064-.037.084-.013.173.043.097.029.062-.015.065-.045.07-.088.07-.144.125-.308-.638-1.337-.093-.15-.079-.09-.143-.054v-.073zm50.846 0h.926v.075l-.235.022-.074.058-.022.084-.007.179v.373l.222-.004.344.03.137.038.11.052.087.07.062.083.036.099.013.114-.013.108-.036.096-.06.087-.084.072-.108.06-.127.042-.32.035h-.85v-.071l.14-.017.08-.047.037-.102.01-.179v-.94l-.019-.246-.065-.067-.07-.022-.113-.008v-.074zm-32.822.145l.084.105.06.124.036.139.011.156h-1.224l.012.186.037.165.06.144.084.124.102.097.11.071.116.042.128.014.162-.023.14-.073.118-.13.098-.198.06.038-.079.253-.157.23-.103.097-.117.067-.13.04-.14.015-.153-.017-.142-.045-.132-.079-.12-.109-.098-.135-.071-.157-.044-.177-.015-.198.015-.215.008-.027.025-.113.01-.051.074-.164.102-.14.124-.112.14-.078.153-.05.17-.014.142.013.127.036.117.06.102.088zm25.425-.145h.853l.07.485h-.085l-.072-.195-.075-.104-.116-.044-.2-.015h-.375v1.23l.022.244.068.07.067.023.113.008v.07h-.886v-.07l.155-.017.09-.043.04-.099.013-.186v-.94l-.02-.24-.032-.046-.043-.03-.203-.026v-.075h.616zm-39.685-6.46v3.44h-7.393v-.176l.282-.016.364-.044.31-.162.137-.482.02-.497v-5.124l-.02-.497-.05-.294-.09-.192-.316-.173-.368-.038-.297-.017v-.175h7.233v3.2h-.15l-.532-1.113-.636-.924-.63-.633-.522-.247-.785-.066-.425-.011h-.084l-.017 3.55.395-.022.48-.18.344-.41.21-.574.068-.667h.18v3.938h-.18l-.069-.68-.21-.587-.344-.422-.48-.184-.394-.022v3.728l.808-.016.876-.077.244-.092.271-.21.623-.769.59-1.017.407-1.046h.151zm52.654 6.43l.172.058.1.078.069.11.026.127.009.213v.602l.01.311.032.077.051.018.053-.013.157-.14v.107l-.106.128-.106.09-.102.054-.1.018-.085-.016-.066-.05-.042-.089-.014-.135-.343.245-.11.036-.114.011-.168-.03-.135-.096-.089-.146-.03-.184.015-.122.044-.102.107-.13.168-.118.262-.129.392-.153v-.071l-.014-.223-.065-.14-.1-.075-.142-.024-.107.017-.084.05-.055.068-.02.082.006.111-.013.079-.033.058-.053.037-.068.012-.063-.012-.053-.039-.035-.058-.01-.078.01-.082.033-.079.128-.145.093-.06.11-.044.274-.035.215.02zm-17.463.03h.886v.075l-.199.024-.067.056-.024.082-.007.18v.349l.06.004.116-.017.107-.051.098-.104.088-.179.124-.276.058-.066.079-.051.09-.035.096-.011.092.013.073.036.048.059.014.075-.01.062-.033.052-.055.035-.07.012-.107-.023-.123-.03-.081.04-.066.114-.096.228-.118.137.129.089.102.137.16.27.135.22.095.12.095.054.127.022v.071h-.523l-.23-.358-.21-.366-.084-.128-.046-.031-.058-.01-.073.004v.474l.022.244.03.046.05.03.195.024v.071h-.886v-.07l.14-.017.08-.048.037-.102.011-.178v-.94l-.02-.246-.065-.068-.07-.021-.112-.008v-.075zm-.272 1.073l.057.028-.046.164-.06.146-.078.124-.097.103-.107.084-.114.059-.118.034-.124.013-.146-.016-.136-.048-.126-.078-.119-.111-.098-.139-.07-.16-.041-.183-.015-.204.017-.198.045-.18.079-.161.109-.14.13-.115.143-.08.155-.05.168-.016.238.034.101.045.09.06.127.14.042.146-.011.067-.037.053-.056.033-.076.013-.099-.019-.073-.056-.027-.059-.017-.096-.026-.1-.052-.073-.08-.044-.108-.015-.175.037-.137.107-.067.102-.049.117-.03.133-.01.15.04.296.047.137.07.126.084.106.098.077.113.045.126.014.178-.032.16-.097.106-.126.102-.197zm6.708-1.124l.192.019.171.057.153.095.13.135.092.135.064.146.04.155.012.164-.028.238-.086.243-.135.213-.18.155-.212.093-.233.03-.191-.02-.17-.059-.148-.1-.129-.139-.085-.138-.064-.148-.037-.155-.012-.164.03-.242.09-.243.14-.21.179-.145.204-.086.213-.029zm-3.606 0l.191.018.171.059.152.095.133.134.089.135.065.146.04.155.013.164-.028.238-.085.243-.137.213-.178.155-.212.093-.235.03-.19-.02-.17-.06-.147-.1-.13-.138-.087-.138-.062-.148-.036-.155-.012-.164.028-.242.091-.243.14-.21.18-.145.202-.086.214-.029zm-14.952 1.208l.01.312.031.076.052.019.054-.013.157-.14v.107l-.107.128-.104.089-.102.054-.101.019-.086-.017-.065-.049-.042-.089-.016-.135-.343.244-.107.036-.116.011-.167-.03-.135-.095-.09-.146-.028-.184.015-.122.043-.103.108-.129.167-.118.26-.13.393-.153v-.07l-.02-.222-.064-.141-.104-.075-.14-.023-.11.016-.083.05-.057.068-.018.082.003.112-.01.078-.035.058-.051.037-.068.013-.065-.013-.051-.038-.035-.059-.01-.078.01-.082.031-.078.127-.146.095-.06.111-.044.274-.035.215.02.171.059.099.078.069.11.027.127.008.213v.601zm-29.103.565l-.113.059-.119.034-.124.013-.145-.016-.137-.048-.126-.078-.116-.111-.098-.139-.072-.16-.042-.183-.014-.204.016-.198.047-.18.078-.161.109-.14.13-.115.143-.08.155-.05.167-.016.24.035.101.044.09.06.126.14.043.146-.013.067-.035.053-.057.033-.075.013-.1-.019-.074-.056-.027-.059-.016-.096-.024-.1-.055-.073-.08-.044-.107-.015-.174.037-.138.107-.068.102-.048.117-.03.133-.01.15.04.296.048.137.068.126.084.106.098.077.113.045.126.014.18-.032.16-.097.105-.126.102-.197.056.028-.043.164-.062.146-.079.124-.097.103-.107.084zm44.796-12.078l.068.403-.068.398-.202.332-.297.223-.357.075-.35-.075-.297-.223-.2-.332-.068-.398.067-.39.2-.329.298-.224.35-.072.357.07.297.216.202.326zm-21.4.801l-.201.332-.3.223-.356.075-.35-.075-.295-.223-.203-.332-.067-.398.067-.39.203-.329.295-.224.35-.072.357.07.299.216.2.326.067.403-.067.398z"/><path d="M71.173 48h20.234l-7.39-7.632 7.39-7.603H78.425v10.517z"/><path d="M71.173 48l7.252-4.718h-7.252zM12.982 32.765H0l7.393 7.603L0 48h20.235l-7.253-4.718z"/><path d="M20.235 43.282h-7.253L20.235 48zm41.542-20.658l.34.54.114.145-.177.079-.374-.764h.097zm.481.942v-.22l-.18.078.18.142zm-2.055 2.26h-1.106v-5.353h.253v-.238l.277.46.297.447.279.381v4.303zm.916 0h-.747v-4.088l.2.25.349.399.198.204v3.235zm.17-3.058v3.058h.97V23.62l-.193-.152-.398-.342-.378-.36zm.322-.188h-.444l.122.126.025.027.381.36.212.181.093.099-.389-.793zm-.028-.317l.133.26.035.057h-.139l-.227-.468.198.151zm-.78-.701l.171.158.366.304.2.15-.165-.326-.04-.102-.075-.003-.08-.01-.078-.018-.077-.024-.073-.033-.07-.04-.066-.046-.013-.01zm-.085-.077l.085.077-.049-.04-.036-.037zm-47.735 7.219h65.444v-6.727h-.488v-.437h-1.39l.028-.033.046-.065.038-.071.033-.073.026-.077.018-.078.01-.08.003-.08-.005-.08-.013-.08-.02-.077-.027-.077-.035-.071-.04-.07-.047-.065-.055-.06-.059-.055-.062-.047.099-.487.078-.752.006-.757-.013-.149.063-.035.067-.043.062-.051.059-.057.05-.06.046-.067.04-.07.03-.074.026-.075.018-.078.01-.08.003-.08.007-.083-.014-.08-.022-.079-.028-.075-.029-.072-.043-.07-.05-.064-.05-.06-.064-.055-.064-.048-.064-.042-.071-.037-.079-.029-.078-.022-.072-.013-.135-.477-.278-.705-.343-.675-.05-.086.043-.056.036-.07.035-.074.022-.077.021-.076.007-.08.008-.08-.008-.08-.014-.08-.014-.08-.029-.074-.035-.073-.036-.07-.05-.065-.05-.06-.064-.055-.064-.049-.064-.043-.072-.037-.078-.029-.072-.021-.085-.015-.079-.007h-.078l-.079.009-.078.016-.078.022-.371-.401-.571-.5-.613-.444-.143-.088.007-.07v-.16l-.014-.081-.022-.077-.028-.076-.036-.073-.043-.07-.042-.063-.057-.06-.058-.055-.064-.047-.071-.044-.071-.035-.072-.029-.078-.022-.079-.013-.085-.007-.079.002-.078.009-.079.016-.078.024-.071.031-.072.039-.071.045-.057.051-.057.055-.45-.16-.732-.185-.747-.114-.038-.003-.024-.063-.033-.073-.04-.069-.047-.066-.051-.06-.059-.057-.063-.049-.068-.043-.071-.037-.074-.029-.079-.024-.078-.014-.08-.008h-.08l-.08.008-.08.014-.076.024-.074.03-.073.036-.068.043-.062.05-.058.056-.053.06-.047.066-.04.07-.033.072-.026.073-.605.08-.736.173-.552.184-.051-.05-.062-.052-.068-.046-.07-.038-.073-.03-.077-.027-.079-.015-.08-.012-.08-.001-.08.005-.079.013-.078.022-.074.027-.073.035-.07.041-.063.048-.06.054-.053.059-.05.065-.041.068-.035.073-.029.075-.02.078-.015.078-.006.08.003.08.007.073-.059.033-.619.434-.576.49-.475.49-.068-.02-.078-.016-.08-.01h-.08l-.081.007-.079.014-.078.022-.075.03-.07.033-.07.045-.064.047-.058.055-.053.06-.047.065-.042.07-.035.072-.027.075-.02.078-.013.079-.004.082.002.08.011.078.019.079.023.076.033.075.04.07.04.058-.337.639-.288.7-.182.605-.071.013-.077.02-.074.03-.073.033-.07.042-.064.05-.058.055-.054.057-.048.066-.041.068-.035.072-.03.077-.02.077-.012.08-.006.08.002.08.01.08.017.079.026.076.03.073.041.07.044.067.052.062.057.056.062.051.068.046.062.033-.003.018-.007.756.066.754.096.529-.06.043-.058.053-.054.06-.05.064-.042.068-.036.073-.03.075-.02.078-.014.078-.007.08.002.08.008.081.017.078.024.077.03.075.04.07.043.066.05.064.02.02-.096-.09-.34-.34-.327-.359-.31-.376-.293-.388v-3.06h-.128v-.38h-.09v-.735l-.183-.59-.184.663v.662h-.144v-.662l-.585-2.105-.585 2.105v.662h-.144v-.662l-.182-.663-.186.59v.735h-.09v.38h-.125v3.601h.253v5.353H44.304V20.47h.254v-3.6h-.126v-.381h-.09v-.735l-.185-.59-.183.663v.662h-.143v-.662l-.585-2.105-.585 2.105v.662h-.146v-.662l-.182-.663-.184.59v.735h-.09v.38h-.127v3.06l-.294.388-.31.376-.326.359-.34.34-.354.325-.366.304-.381.288-.319.217-.073.051-.4.246-.414.228-.422.204-.382.166-.006.002-.04.018v-9.225l.022-.069.035-.067.049-.06.058-.053.07-.045.076-.035v-5.77h.25v-.363h-.46v-.933h.219v-.218h-.219l-.195-.118-.18-.133-.162-.143-.145-.154-.127-.163-.107-.173h.11V5.48h-.11V4.222h.11v-.217h-.317l-.05-.098-.26-.52-.282-.64-.247-.664-.217-.68-.182-.696-.148-.709-.147.709-.183.696-.217.68-.247.663-.281.642-.263.52-.049.097h-.317v.217h.111v1.26h-.111v.238h.111l-.107.173-.125.163-.147.154-.162.143-.18.133-.195.118h-.22v.219h.22v.933h-.46v.362h.25v5.77l.077.035.07.045.058.053.047.06.037.067.022.07v10.917H30.1v-.656h-1.232v-1.44h-.448v-.218h-2.05v.219h-.185v.313h-.661v-1.345h-.412v-.532H23.03v.532h-.346v2.626h-.505v-6.537h-.33v-.439h-2.083v.44h-.333v7.32h-.505v-5.412H16.15v6.068h-.538v-2.659h-.344v-.375h-1.925v.375h-.35v5.287zm52.376-5.66v2.104l-.137-.064-.337-.198v-2.322l3.379-3.38-.955 3.408h-1.731v.451h-.22zm7.442.967h-.193v.736l-.076.055-.607.343-.381.17v-2.962H69.89l-.888-3.164 4.345 4.345-.013.016-.038.055H72.8v.406zm.763-.67l-4.472-4.476.014-.027.02-.045.011-.037h6.803l-.004.27-.071.693-.09.44-.078.017-.076.024-.075.03-.071.039-.068.044-.062.05-.056.057-.053.062-.046.066-.038.07-.033.074-.026.076-.018.079-.01.078-.003.08.005.08.013.08.02.079.027.075.035.072.04.07.047.063.055.06.004.006-.05.12-.32.617-.379.58-.285.353-.071-.02-.086-.015-.078-.008-.08.002-.08.01-.08.016-.076.023-.074.031-.072.039-.007.003zm2.375-4.873h-6.805l-.002-.017-.019-.048-.021-.045 4.81-4.81.166.18-.032.072-.026.077-.018.078-.01.08-.004.08.005.08.013.08.019.077.027.077.034.073.04.069.047.066.053.06.058.054.064.05.067.042.073.036.074.03.077.023.08.014.078.006h.083l.078-.007.01-.002.043.07.313.62.253.65.122.433-.062.05-.056.056-.053.062-.045.065-.039.071-.033.073-.025.077-.018.078-.01.08-.003.08.005.08.013.08.02.077.027.077.035.073.04.067.047.066.055.06.059.054.063.05.07.042.07.036.075.027.008.002.01.131-.002.139zm-13.68 7.608v1.759h-1.691v-1.077h-.388v-.682h2.079zm-6.593.676v1.083h-9.899v-1.077h.05l1.546-.27 1.555-.162 1.562-.055.27.012.003-.006.004.006.003-.006.004.006.27-.011 1.561.055 1.557.162 1.516.264zm-8.763-.39l-.099.141-.282.05-.134-.19.2-.286h.116l.198.286zm-.573.086l.086.122-.197.035.111-.157zm-.06-.085l-.186.266-.127.022-.2-.288.2-.286h.113l.2.286zm-.574.086l.073.103.082.117-.039.007h-.275l.159-.227zm-.058-.086l-.188.268v-.536l.188.268zm-6.827-3.107l-.038-.016-.375-.165.38-.21.345-.21-.312.6zm17.252 2.84v.535l-.186-.268.186-.268zm-.246.353l.159.227H55.7l-.033-.005-.006-.002.006-.007.15-.213zm-.149.041l-.111.16-.128-.022-.186-.266.2-.286h.115l.199.286-.09.128zm-.483-.042l.11.157-.197-.035.087-.122zm-.06-.086l-.133.19-.282-.05-.099-.14.2-.286h.114l.2.286zm-6.393-.098l-.404.042.16-.23h.114l.13.188zm-.364-.188l-.139.2-.14-.2h.279zm-.4 0l.176.248-.5.053.212-.3h.113zm-.233 0l-.14.2-.14-.2h.28zm-.399 0l.217.31-.199.02-.267.048-.064-.091.199-.286h.114zm-.233 0l-.14.2-.14-.2h.28zm-.632 0l-.14.2-.14-.2h.28zm-.634 0l-.14.2-.14-.2h.28zm-8.34 0h3.835v.682h-.465v1.077h-3.37v-1.759zm11.505 0l-.12.172-.038.003-.122-.175h.28zm-10.819-.251h-.685v-1.2l.445-.256.24-.155v1.61zm16.368.623l.022.031-.038-.008.016-.023zm-5.208-.219l-.337.011.115-.164h.114l.108.153zm-10.275-2.706l-.29.23-.357.25.39-.748.039.016.218.097.128.055-.128.1zm15.425 2.839l-.066.091-.268-.047-.198-.02.217-.31h.115l.2.286zm-4.858-.286l-.103.146-.074.004-.104-.15h.28zm-10.566-.251h-.716v-1.719l.025-.016.037-.028.386-.273.268-.211v2.247zm19.118-1.754v1.276h-.284v-1.276h.284zM43.782 22.36v.697h-.286v-.697h.286zm-.396 0v.697H43.1v-.697h.286zm-.395 0v.697h-.286v-.697h.286zm-3.005 3.466h-.747v-2.382l.368-.317.379-.36v3.059zm.916 0h-.747V22.59l.199-.204.348-.4.2-.249v4.088zm28.08-3.474v2.785h-.203v-5.644l.801 2.86h-.597zm-.494-2.847v6.418l-.312-.018v-2.861h-.35v-.452h-.204l.866-3.087zm-.314-.639l-.022-.043-.018-.047-.004-.019h-6.806v.139l.06.694.088.48h.003l.078.018.077.025.073.033.071.038.066.046.062.05.056.06.051.061.044.067.038.072.031.072.024.079.016.078.01.08.001.08-.007.081-.013.079-.021.078-.03.074-.036.072-.042.069-.05.064-.052.058-.004.001.035.088.308.612v-2.981h2.626v2.932l3.287-3.29zm-.044-.397h-6.803l.002-.27v-.005l.007-.001.075-.028.073-.036.07-.042.063-.05.058-.052.055-.06.047-.064.042-.07.035-.072.027-.075.022-.078.013-.079.005-.08-.002-.082-.01-.078-.017-.079-.026-.076-.03-.075-.041-.07-.045-.066-.051-.062-.057-.057-.062-.05-.005-.004.166-.549.264-.643.306-.58.005.002.081.007.08.002.08-.006.078-.014.077-.022.077-.03.07-.036.07-.042.064-.049.058-.054.053-.06.047-.064.042-.07.035-.072.027-.075.02-.078.013-.08.003-.081-.001-.08-.011-.08-.018-.078-.024-.075-.033-.075-.004-.007.164-.17 4.81 4.811-.015.027-.019.046-.01.036zm-25.953 2.005v5.352H41.07v-4.303l.278-.38.297-.447.278-.461v.239h.253zm-2.515 2.106h-.423l.335-.231.316-.237-.228.468zM37.373 9.11v4.657h-.22v-.407h-.469v.406h-.142v-.406h-.468v.406h-.142v-.406h-.469v.406h-.14v-.406h-.47v.406h-.14v-.406h-.47v.406h-.141v-.406h-.47v.406h-.14v-.406h-.471v.406h-.218V8.571h.218v.406h.47v-.406h.14v.406h.47v-.406h.141v.406h.47v-.406h.14v.406h.47v-.406h.141v.406h.469v-.406h.142v.406h.468v-.406h.142v.406h.469v-.406h.22v.54zm6.012 14.961v1.358h-.286v-1.358h.286zm-5.046-.007l-.156.1-.261.166-.384.222v-1.079l.645.474.156.117zm8.624 2.385l.016.023-.038.008.022-.031zm-9.7-.372v.191h-4.349v-.25h4.348v.059zm2.844-3.497l-.122.126-.025.027-.381.359-.212.183-.095.098.39-.793h.445zm.035-.046h-.412l.232-.474.515-.21-.335.684zm-1.39.744l-.389.75-.011-.01-.767-.565.357-.153.406-.199.403.177zm22.54-.743h.255l-.232-.475-.516-.21.335.684h.157zm12.407-9.195l-4.812 4.813-.005-.001-.046-.023-.046-.017-.013-.003v-6.323l.035-.007.079-.024.074-.03.071-.036.068-.043.064-.05.058-.056.05-.06.048-.066.04-.069.004-.01.026.002.689.105.674.17.406.145.005.08.013.078.02.079.027.074.035.073.042.07.047.063.053.06.06.055.064.05.067.041.073.035.075.029.078.022.079.013.08.007.08-.002.08-.01.079-.015.076-.024.075-.031.071-.038.066-.044.005-.004.13.077.563.408.496.437zm-5.211-1.547v6.317l-.04.012-.048.02-.02.013-4.815-4.812.068-.07.53-.45.57-.399.044-.026.004.004.068.044.069.04.075.03.076.026.079.017.08.01.08.003.08-.006.078-.014.079-.02.075-.028.072-.034.07-.042.063-.048.06-.054.055-.06.048-.065.041-.067.036-.072.028-.075.022-.079.013-.078.005-.08v-.006l.501-.17.678-.156.55-.075v.002l.04.07.048.065.053.06.058.057.062.049.067.044.073.036.075.03.077.023.073.014zm6.567 11.81h-.251l.259-.324.415-.634.23-.433v4.145H75.3V24.01h-.245v-.406zm-17.263-.546h-.284v-.697h.284v.697zm-14.92-4.038h-.315v-.521h.315v.52zm11.82 7.058l-.14.2-.14-.2h.28zm-.632 0l-.14.2-.14-.2h.28zm-.4 0l.21.3-.497-.052.173-.248h.115zm-.233 0l-.14.2-.14-.2h.281zm-.4 0l.16.23-.405-.042.131-.188h.113zm-.234 0l-.122.175-.038-.004-.12-.171h.28zm-.399 0l.115.164-.336-.01.107-.154h.115zm-.233 0l-.103.15-.075-.005-.102-.145h.28zm-.4 0l.1.142-.307-.011.093-.131h.115zm-.233 0l-.089.127-.106-.003-.085-.124h.28zm-.4 0l.083.12-.176-.007-.102.003.082-.116h.113zm-.234 0l-.084.122-.052.002-.051-.002-.086-.122h.273zm-.391 0l.081.116-.103-.003-.177.007.084-.12h.115zm-.236 0l-.085.124-.104.003-.09-.127h.28zm-.399 0l.093.131-.306.011.1-.142h.113zm8.853-7.58v.522h-.315v-.522h.315zm-.523.522h-.317v-.522h.317v.522zm-.523-.522v.522h-.317v-.522h.317zm3.038 3.27l-.39-.16.283.351.453.516-.346-.707zm-2.13-.608h-.285v-.343h.284v.343zm-.396-.343v.343h-.284v-.343h.284zm-.395 0v.343h-.285v-.343h.285zm.79 1.543v.698h-.284v-.698h.284zm-.395 0v.698h-.284v-.698h.284zm.395 1.105v.621h-.284v-.621h.284zm-.79 0v.621h-.285v-.621h.285zm-14.397-4.445h-.315v-.522h.315v.522zm.525-.522v.522h-.317v-.522h.317zm-.138 2.318v.343h-.286v-.343h.286zm-.396 0v.343H43.1v-.343h.286zm-.395 0v.343h-.286v-.343h.286zm.79 2.648v.622h-.285v-.622h.286zm-.79 0v.622h-.286v-.622h.286zm-6.566-19.24v1.26h-.14v-1.26h.14zm-.23 0v1.26h-.142v-1.26h.142zm-.23 0v1.26h-.141v-1.26h.142zm-.69 1.26h-.142v-1.26h.142v1.26zm-.231-1.26v1.26h-.14v-1.26h.14zm-.23 0v1.26h-.14v-1.26h.14zm-.23 0v1.26h-.142v-1.26h.143zm-.23 0v1.26h-.141v-1.26h.142zm-.23 0v1.26h-.14v-1.26h.14zm-.23 0v1.26h-.142v-1.26h.142zm1.84 0v1.26h-.14v-1.26h.14zm-.23 0v1.26h-.141v-1.26h.142zm1.76 10.466v2.877h-.156v-2.877h.155zm-.281 0v2.877h-.155v-2.877h.155zm-.28 0v2.877h-.154v-2.877h.155zm-.278 0v2.877h-.155v-2.877h.155zm-.28 0v2.877h-.155v-2.877h.154zm-.28 0v2.877h-.154v-2.877h.155zm-.278 0v2.877h-.157v-2.877h.157zm-.28 0v2.877h-.156v-2.877h.155zm-.28 0v2.877h-.155v-2.877h.155zm-.28 0v2.877h-.155v-2.877h.155zm-.28 0v2.877h-.154v-2.877h.155zm-.278 0v2.877h-.157v-2.877h.157zm-.28 0v2.877h-.155v-2.877h.154zm-.28 0v2.877h-.154v-2.877h.155zm-.28 0v2.877h-.155v-2.877h.155zm-.279 0v2.877h-.155v-2.877h.155zm4.193 3.538h-4.348v-.25h4.348v.25zm4.012 2.705l-.27.173.276-.303.084-.105-.09.235zm-.094.37l-.104.157.198-.527.284-.18-.242.362-.136.188zm.01-.265l-.187.5-.352.146.212-.436.328-.21zm-3.928-2.281v2.877h-.155v-2.877h.155zm-.281 0v2.877h-.155v-2.877h.155zm-.279 0v2.877h-.155v-2.877h.155zm3.861 3.01l.39-.16-.282.352-.454.516.346-.707zm.218-.448l-.218.449-.498.202.26-.215.355-.327.004-.001.097-.108zm-4.359-2.562v2.877h-.154v-2.877h.154zm-.28 0v2.877h-.155v-2.877h.155zm-.279 0v2.877h-.155v-2.877h.155zm-.279 0v2.877h-.157v-2.877h.157zm-.28 0v2.877h-.155v-2.877h.155zm-.28 0v2.877h-.154v-2.877h.155zm-.28 0v2.877h-.155v-2.877h.155zm-.279 0v2.877h-.155v-2.877h.155zm-.279 0v2.877h-.156v-2.877h.156zm-.28 0v2.877h-.155v-2.877h.155zm-.279 0v2.877h-.155v-2.877h.155zm-.28 0v2.877h-.156v-2.877h.155zm-.28 0v2.877h-.154v-2.877h.155zm6.525 3.867l-.355.727-.019.036-.151-.067-.198-.087.315-.609h.408zm-2.33-.329h-4.349v-.25h4.348v.25zm0 .434v2.878h-.156v-2.878h.155zm-.282 0v2.878h-.154v-2.878h.154zm-.278 0v2.878h-.155v-2.878h.155zm-.28 0v2.878h-.154v-2.878h.155zm-.28 0v2.878h-.155v-2.878h.155zm-.279 0v2.878h-.154v-2.878h.154zm-.278 0v2.878h-.157v-2.878h.157zm-.281 0v2.878h-.155v-2.878h.155zm-.279 0v2.878h-.155v-2.878h.155zm20.932 3.348l-.14.2-.141-.2h.28zM34.747 22.73v2.877h-.155V22.73h.155zm-.28 0v2.877h-.154V22.73h.155zm-.278 0v2.877h-.157V22.73h.157zm-.28 0v2.877h-.156V22.73h.155zm-.28 0v2.877h-.154V22.73h.154zm-.28 0v2.877h-.155V22.73h.155zm-.28 0v2.877h-.154V22.73h.155zm27.526-1.302l-.003-.001-.099-.108.219.449.498.201-.26-.214-.355-.327zm-.184-.18l-.326-.21.188.5.352.146-.213-.436zm-.41-.315l-.284-.18.242.362.137.188.104.156-.199-.526zm-.005-.13l-.084-.105.09.235.269.173-.275-.303zm-.157-.182l-.224-.27-.222-.295v.166l.266.441.259.166-.079-.208zm-17.955-.565v.166l-.266.441-.259.166.078-.208.224-.27.223-.295zm13.441 6.021l-.14.2-.14-.2h.28z"/><path d="M33.92 9.82l.276-.196.31-.14.33-.079.25-.012.25.012.329.079.308.14.277.197.235.244.139.217.045.067.126.315.065.332v.34l-.063.332-.126.315-.182.286-.233.247-.276.196-.308.14-.33.082-.256.013-.258-.013-.33-.082-.307-.14-.276-.196-.234-.247-.183-.286-.125-.315-.063-.334v-.339l.066-.331.126-.316.044-.067.14-.217.235-.244zm-.9 3.408h4.13V9.112h-4.13v4.116z"/><path d="M33.954 11.785l-.398.23-.029-.046-.122-.31-.062-.326v-.13h.457v.087l.046.24.091.228.016.027zm.012-.042l.13.202.164.174.195.138.217.1.23.057.184.008.18-.008.233-.057.216-.1.196-.138.164-.174.128-.202.089-.222.045-.233-.002-.24-.045-.235-.09-.222-.03-.047-.099-.153-.166-.173-.195-.139-.216-.098-.232-.056-.176-.008-.177.008-.232.056-.218.098-.196.139-.164.173-.098.153-.033.047-.09.223-.045.233v.24l.046.234.087.222zm.024-1.245l-.397-.227.118-.187.23-.24.242-.17.115.2.115.198-.171.12-.17.18-.082.127zm.48-.459l-.23-.399.277-.126.322-.076.214-.011v.459l-.15.005-.237.059-.196.089zm.616-.647l-.25.013-.33.079-.31.14-.275.196-.236.244-.14.217-.044.068-.125.315-.066.332v.339l.062.334.126.315.182.286.235.246.275.197.309.14.329.082.258.013.256-.013.33-.082.308-.14.275-.197.234-.246.181-.286.127-.315.063-.334v-.339l-.065-.332-.126-.315-.046-.068-.138-.216-.235-.244-.277-.197-.308-.14-.33-.079-.25-.012zm1.284 1.898v-.088h.458v.131l-.062.326-.125.31-.028.045-.397-.23.017-.026.09-.229.047-.24zm-2.57-.154h-.457V11l.064-.326.123-.308.026-.04.397.23-.014.02-.091.23-.048.24v.09zm2.417-.58l.396-.23.027.04.124.308.063.325v.137h-.459v-.09l-.046-.241-.092-.229-.013-.021zm-2.625 1.513l.115.179.23.242.246.177.23-.4-.175-.125-.168-.177-.08-.125-.398.23zm1.526.385l.153-.007.239-.059.19-.087.23.397-.269.124-.325.08-.218.011v-.459zm-.879.244l.23-.397.191.087.24.059.152.007v.46l-.22-.012-.323-.08-.27-.124zm1.027-2.806l-.149-.006v-.46l.214.012.323.077.277.125-.231.4-.196-.09-.238-.058zm.834 2.073l.08-.125.398.23-.115.178-.23.242-.246.177-.23-.4.174-.125.17-.177zm.08-1.467l-.084-.127-.169-.179-.17-.12.115-.199.115-.198.24.169.23.241.12.186-.397.227z"/><path d="M34.974 11.28l.033.025.038.015.04.005.04-.005.038-.015.033-.025.024-.033.764-.785-.82.572-.232.162.002.015.017.036z"/><path d="M34.932 11.196l.231-.162-.038-.015-.04-.005-.04.005-.536-.324.42.474z"/></g></svg>