<svg xmlns:rdf="http://www.w3.org/1999/02/22-rdf-syntax-ns#" xmlns="http://www.w3.org/2000/svg" enable-background="new 0 0 12.81515 6.72948" xml:space="preserve" viewBox="0 0 91.407835 48.000001" height="48" width="91.408" version="1.1" y="0px" x="0px" xmlns:cc="http://creativecommons.org/ns#" xmlns:dc="http://purl.org/dc/elements/1.1/"><g fill-rule="evenodd" fill="#1b325f" clip-rule="evenodd" transform="scale(7.1328)"><polygon points="2.8832 5.9132 2.9754 5.9132 2.9951 5.9122 3.0042 5.9091 3.0071 5.8992 3.0081 5.878 3.0081 5.7001 2.9314 5.7001 2.9314 5.715 2.9284 5.7773 2.9194 5.8312 2.9044 5.8764"/><polygon points="3.4864 5.7459 3.4912 5.7676 3.5055 5.7855 3.5122 5.789 3.5272 5.7972 3.5533 5.801 3.5541 5.8013 3.561 5.8005 3.561 5.7906 3.561 5.703 3.5408 5.7001 3.5168 5.7034 3.4999 5.7137 3.4897 5.7285"/><polygon points="5.0372 5.7267 5.0287 5.7129 5.017 5.7027 5.0032 5.6963 4.9889 5.694 4.9677 5.6984 4.9485 5.7116 4.9344 5.7326 4.9278 5.7602 5.0428 5.7602"/><polygon points="5.7959 5.7459 5.8008 5.7676 5.8151 5.7855 5.822 5.789 5.8371 5.7972 5.8631 5.801 5.8636 5.8013 5.8705 5.8005 5.8705 5.7906 5.8705 5.703 5.8504 5.7001 5.8266 5.7034 5.8095 5.7137 5.7993 5.7285"/><polygon points="6.1728 5.8772 6.1815 5.8918 6.194 5.9015 6.2083 5.9045 6.2321 5.8979 6.2625 5.8774 6.2625 5.7827 6.2096 5.8059 6.1912 5.8179 6.1789 5.8307 6.172 5.8445 6.1697 5.8593"/><polygon points="8.4727 5.823 8.4709 5.7916 8.4655 5.7638 8.4566 5.7395 8.444 5.7188 8.4338 5.7073 8.4223 5.6991 8.4093 5.6943 8.395 5.6927 8.3807 5.6948 8.3661 5.7012 8.3531 5.7129 8.3426 5.7313 8.336 5.7556 8.3337 5.7862 8.339 5.8368 8.3459 5.8593 8.3554 5.88 8.3669 5.8971 8.3802 5.9094 8.3952 5.9168 8.4121 5.9191 8.4246 5.9178 8.4361 5.9137 8.4555 5.8976 8.463 5.8846 8.4683 5.868"/><polygon points="8.9783 5.823 8.9765 5.7916 8.9711 5.7638 8.9622 5.7395 8.9499 5.7188 8.9394 5.7073 8.9279 5.6991 8.9149 5.6943 8.9006 5.6927 8.8863 5.6948 8.8717 5.7012 8.8587 5.7129 8.8485 5.7313 8.8416 5.7556 8.8393 5.7862 8.8449 5.8368 8.8516 5.8593 8.861 5.88 8.8725 5.8971 8.886 5.9094 8.9011 5.9168 8.9177 5.9191 8.9305 5.9178 8.9417 5.9137 8.9612 5.8976 8.9688 5.8846 8.9739 5.868"/><polygon points="9.2764 5.7285 9.2728 5.7459 9.2777 5.7676 9.2923 5.7855 9.2989 5.789 9.314 5.7972 9.34 5.801 9.3408 5.8013 9.3474 5.8005 9.3474 5.7906 9.3474 5.703 9.3275 5.7001 9.3035 5.7034 9.2864 5.7137"/><polygon points="9.8099 5.9096 9.8296 5.8989 9.8421 5.8826 9.8464 5.8626 9.8418 5.8396 9.8283 5.8235 9.8055 5.8136 9.7738 5.8105 9.7565 5.8108 9.7565 5.9094 9.7854 5.9132"/><polygon points="10.373 5.8772 10.382 5.8918 10.395 5.9015 10.409 5.9045 10.433 5.8979 10.463 5.8774 10.463 5.7827 10.41 5.8059 10.392 5.8179 10.38 5.8307 10.373 5.8445 10.37 5.8593"/><polygon points="10.313 4.7372 10.308 4.656 10.294 4.5972 10.266 4.5612 10.225 4.5494 10.189 4.5609 10.166 4.5957 10.143 4.7372 10.14 4.8343 10.316 4.8343 10.314 4.795"/><polygon points="4.3739 4.9809 4.3877 4.8931 4.3918 4.7824 4.3877 4.6721 4.3747 4.5826 4.3565 4.5576 4.3284 4.5494 4.3021 4.5579 4.284 4.5834 4.2702 4.6721 4.2661 4.7824 4.2702 4.8931 4.2847 4.9802 4.3031 5.0057 4.3297 5.0142 4.356 5.006"/><polygon points="4.6268 5.4513 4.6184 5.416 4.5926 5.3951 4.4948 5.3816 4.1634 5.3816 4.11 5.4066 4.0977 5.4298 4.0936 5.462 4.0985 5.4904 4.1128 5.5154 4.1708 5.554 4.2538 5.5772 4.3484 5.5849 4.4615 5.577 4.5502 5.5532 4.6077 5.5118 4.622 5.484"/><path d="m10.995 4.0635h-9.175v0.53013 1.4744h1.0168 7.1413 1.0168v-1.4744-0.53014zm-1.2838 0.5189 0.04956 0.06591 0.01635 0.08278v0.33775l0.00153 0.06975 0.00716 0.07281 0.01533 0.01277 0.03142 0.00844 0.02376 0.00153v0.02453h-0.39728v-0.02453l0.0365-0.0041 0.0182-0.0125 0.0084-0.0789 0.0013-0.0695v-0.30608l-0.0013-0.0621-0.0138-0.094-0.0192-0.0215-0.0301-0.0071-0.0509 0.025-0.0224 0.0368-0.01354 0.0608v0.36815l0.00127 0.0695 0.0046 0.06975 0.01482 0.01712 0.03577 0.00869v0.02453h-0.3748v-0.02454l0.0358-0.0041 0.0181-0.0125 0.0092-0.0789 0.0013-0.0698v-0.3063l-0.0013-0.0621-0.0138-0.094-0.0192-0.0217-0.0301-0.0072-0.0378 0.0082-0.0235 0.025-0.0256 0.0683v0.38987l0.00127 0.06975 0.0046 0.06975 0.01507 0.01712 0.03551 0.00869v0.02453h-0.39472v-0.02454l0.0292-0.0016 0.0307-0.0077 0.0153-0.0135 0.0079-0.0728 0.0015-0.0698v-0.36228l-0.0015-0.062-0.0079-0.0547-0.0143-0.0146-0.0332-0.0081-0.0302-0.0029v-0.02453h0.33571v0.11369l0.0177-0.0427 0.0291-0.0426 0.0529-0.0325 0.0889-0.0107 0.0692 0.0089 0.0595 0.0266 0.0476 0.0445 0.0334 0.062 0.035-0.0845 0.0207-0.0253 0.0337-0.0179 0.1061-0.0143 0.0838 0.01431 0.07179 0.04318zm-1.1704 0.64254 0.03065 0.00767 0.03168 0.00153v0.02453h-0.42768v-0.02453l0.0318-0.0015 0.0304-0.0077 0.0156-0.0135 0.0079-0.0728 0.0013-0.0698v-0.3622l-0.0013-0.0621-0.0079-0.0547-0.0146-0.0146-0.0329-0.0081-0.0358-0.0029v-0.02453h0.34619v0.52911l0.00128 0.06975 0.00792 0.07205 0.01558 0.0143zm-3.6844 0.12212h5.7178v0.1096h-5.7178v-0.1096zm2.7636 0.3352h0.11548v0.01048l-0.0244 0.0036-0.0097 0.0092-0.0026 0.0115-0.001 0.0238v0.13183l0.00307 0.03424 0.00945 0.00971 0.00945 0.00332 0.01584 0.00102v0.00996h-0.12007v-0.00997l0.01865-0.00205 0.01124-0.00638 0.00587-0.01405 0.00179-0.0258v-0.11702l-0.1073 0.12468 0.00179 0.01942 0.0046 0.01226 0.00945 0.00664 0.01635 0.0023v0.00996h-0.11471v-0.00996l0.0196-0.0023 0.0113-0.0067 0.0051-0.0143 0.0015-0.025v-0.1318l-0.0028-0.0345-0.0092-0.0095-0.0095-0.003-0.0161-0.0011v-0.01048h0.12008v0.01048l-0.0243 0.0036-0.0099 0.0092-0.0026 0.0115-0.00077 0.02376v0.11369l0.1074-0.1244-0.0023-0.0176-0.0056-0.0112-0.01-0.0062-0.0151-0.0023v-0.01048zm-0.0592-0.0868 0.0085 0.0153 0.0097 0.0085 0.0199 0.0046 0.0148-0.0018 0.011-0.0057 0.0084-0.0102 0.0077-0.0161 0.0128-0.0209 0.0074-0.0054 0.0079-0.0018 0.0074 0.0015 0.0064 0.0044 0.0043 0.0064 0.0013 0.0082-0.0018 0.0102-0.0051 0.0099-0.0204 0.0187-0.0291 0.0133-0.0325 0.0046-0.0391-0.0041-0.0153-0.0051-0.0125-0.0072-0.0166-0.0181-0.0041-0.0105-0.0013-0.0112 0.0013-0.0087 0.0038-0.0067 0.0061-0.0043 0.0075-0.0015 0.0086 0.002l0.00818 0.00639 0.01481 0.0253zm-0.23811 0.08686h0.11548v0.01048l-0.0243 0.0035-0.0099 0.0092-0.0026 0.0115-0.00077 0.02376v0.13183l0.00281 0.03424 0.00945 0.00971 0.00945 0.00332 0.01585 0.00101v0.00996h-0.12008v-0.00996l0.01865-0.00205 0.0115-0.00639 0.00562-0.01405 0.00179-0.0258v-0.11701l-0.1073 0.12468 0.00179 0.01942 0.0046 0.01226 0.00946 0.00664 0.01635 0.0023v0.00996h-0.11473v-0.00996l0.01993-0.0023 0.01098-0.00664 0.00511-0.01431 0.00179-0.02504v-0.13182l-0.003-0.0345-0.0092-0.0095-0.0094-0.003-0.0162-0.0011v-0.01048h0.12033v0.01048l-0.0244 0.0036-0.0097 0.0092-0.0029 0.0115-0.00076 0.02376v0.11369l0.1074-0.1244-0.0021-0.0176-0.0056-0.0112-0.01-0.0062-0.0153-0.0023v-0.01048zm-0.26391 0h0.08252v0.01048l-0.0248 0.0035-0.0094 0.0092-0.0028 0.0115-0.00077 0.02376v0.13183l0.00307 0.03424 0.0092 0.00971 0.00971 0.00332 0.01584 0.00102v0.00996h-0.12877v-0.00997l0.0288-0.0023 0.0072-0.0036 0.0056-0.0069 0.0033-0.013 0.0013-0.0225v-0.17246h-0.08278v0.10449l-0.0012 0.0506-0.0041 0.033-0.008 0.0209-0.013 0.0146-0.0166 0.0087-0.0189 0.0028-0.0153-0.0018-0.0108-0.0054-0.0066-0.0089-0.002-0.0125 0.0012-0.009 0.0044-0.0071 0.0064-0.0046 0.0079-0.0018 0.0092 0.002 0.0084 0.0059 0.0095 0.0079 0.0066 0.0026 0.0105-0.0051 0.0074-0.0156 0.0041-0.0281 0.0013-0.0435v-0.05493l-0.0016-0.034-0.0043-0.0176-0.011-0.0074-0.0205-0.0036v-0.01047h0.05698 0.08278zm0.7601-0.4793 0.0429 0.0227l0.05289 0.00536 0.04216 0.00307v0.02453h-0.6446v-0.02453l0.08712-0.0046 0.03321-0.00792 0.02095-0.01482 0.01839-0.06822 0.00256-0.06975v-0.8873l-0.0514 0.0028-0.0444 0.0182-0.0493 0.0539-0.1035 0.1822-0.0876 0.201h-0.02248v-0.48644h0.3587 0.32396 0.35896v0.38655 0.09989h-0.02249l-0.0851-0.1964-0.1034-0.1814-0.0509-0.058-0.0442-0.0195-0.0529-0.0028v0.88423l0.00281 0.06975 0.01762 0.06745zm-1.3032 0.47929h0.12008v0.01048l-0.02453 0.00383-0.00639 0.0046-0.00409 0.00638-0.00255 0.03322v0.13183l0.00204 0.03117 0.00332 0.0069 0.00639 0.00537 0.01047 0.00357 0.01533 0.00128v0.00996h-0.12007v-0.00997l0.0189-0.00205 0.01124-0.00639 0.00562-0.01405 0.00204-0.0258v-0.06156h-0.10755v0.06157l0.00204 0.03117 0.00358 0.0069 0.00638 0.00536 0.01022 0.00358 0.01558 0.00128v0.00996h-0.12032v-0.00997l0.01993-0.0023 0.01098-0.00664 0.00511-0.01431 0.00179-0.02504v-0.13182l-0.002-0.0316-0.0035-0.0069-0.0064-0.0054-0.0102-0.0035-0.0156-0.0011v-0.01047h0.12033v0.01048l-0.02453 0.00383-0.00664 0.0046-0.00383 0.00638-0.00281 0.03322v0.05263h0.10756v-0.05263l-0.0021-0.0309-0.0094-0.0122-0.0103-0.0036-0.0161-0.0013v-0.01047zm0.5308-0.4574 0.0307 0.0077l0.02887 0.00153v0.02453h-0.40775v-0.02453l0.0171-0.0015 0.0286-0.0046 0.0149-0.0135 0.0076-0.0759 0.0016-0.0695v-0.30914l-0.0016-0.0621-0.0046-0.0545-0.0138-0.0365-0.0227-0.0204-0.0322-0.0069-0.0383 0.0084-0.0256 0.025-0.0309 0.0683v0.38783l0.00153 0.06949 0.00716 0.07665 0.01456 0.01303 0.02938 0.00434 0.01712 0.00153v0.02453h-0.40903v-0.02453l0.0304-0.0016 0.0307-0.0077 0.0153-0.0135 0.0079-0.0728 0.0013-0.0698v-0.74857l-0.0013-0.062-0.0112-0.057-0.048-0.0204-0.0504-0.0031v-0.02453h0.36458v0.35998l-0.0012 0.084-0.0039 0.0552 0.0299-0.0539 0.0399-0.0401 0.0541-0.0251 0.0734-0.0084 0.08584 0.01431 0.07537 0.04241 0.05238 0.06515 0.01763 0.08124v0.34082l0.00128 0.06975 0.00792 0.07205 0.01557 0.0143zm3.3739-0.64459 0.04471 0.04292 0.03526 0.05186 0.02504 0.05749 0.01533 0.06285 0.0048 0.06847h-0.4052l0.0074 0.11165 0.02759 0.10986 0.025 0.048 0.033 0.0375 0.043 0.0246 0.051 0.0081 0.073-0.013 0.055-0.0393 0.042-0.0591 0.03-0.072 0.021 0.0105-0.048 0.1014-0.071 0.0766-0.088 0.0483-0.104 0.0164-0.075-0.0064-0.067-0.0187-0.061-0.0309-0.0532-0.0434-0.044-0.0544-0.0314-0.0639-0.0189-0.0736-0.0061-0.083 0.0064-0.0782 0.0194-0.071 0.0324-0.0634 0.0455-0.0564 0.05442-0.04599 0.05953-0.03296 0.06489-0.01967 0.07-0.00664 0.07128 0.00613 0.06259 0.01839 0.05364 0.03092zm-0.26596 1.2074 0.01507-0.00715 0.0138-0.01456 0.01226-0.02504 0.01737-0.03883 0.0082-0.0092 0.01099-0.00715 0.01277-0.00485 0.01329-0.00153 0.01303 0.00179 0.01022 0.00511 0.0066 0.00818 0.002 0.01048-0.0015 0.00869-0.0046 0.00741-0.0077 0.00485-0.0097 0.00179-0.01508-0.00332-0.01737-0.00409-0.01124 0.00536-0.0092 0.0161-0.01354 0.03194-0.01661 0.01916 0.01814 0.01252 0.01431 0.01916 0.02248 0.03807 0.01891 0.03066 0.01329 0.01686 0.01328 0.00767 0.01788 0.00307v0.00996h-0.07332l-0.03-0.0506-0.029-0.0514-0.012-0.0179-0.006-0.0043-0.009-0.0013-0.01022 0.00051v0.06643l0.0031 0.03424 0.0043 0.00639 0.0069 0.00434 0.02734 0.00332v0.00996h-0.12417v-0.01002l0.01967-0.0023 0.01124-0.00664 0.0051-0.01431 0.0015-0.02504v-0.13182l-0.0028-0.03449-0.0092-0.00945-0.0097-0.00306-0.01584-0.00102v-0.01049h0.12417v0.01048l-0.02785 0.00332-0.0095 0.00792-0.0033 0.0115-0.001 0.02529v0.0488l0.0084 0.00051 0.01585-0.0023zm-0.6893-0.10552h0.0115l0.0112 0.0044 0.0202-0.0044 0.0419-0.0071 0.033 0.0041 0.0268 0.0125 0.0107 0.0089 0.0075 0.0103 0.0046 0.0117 0.0012 0.013-0.0038 0.0195-0.012 0.0168-0.0199 0.0138-0.0279 0.011 0.0325 0.01 0.0232 0.0151 0.0141 0.0199 0.0046 0.0245-0.0016 0.014-0.0046 0.0128-0.0179 0.0235-0.0132 0.0097-0.0159 0.0067-0.0189 0.0043-0.0212 0.0013-0.0281-0.0028-0.0245-0.0079-0.0235-0.0143-0.0258-0.022 0.0071-0.0069 0.022 0.0151 0.0215 0.0107 0.0207 0.0064 0.0201 0.002 0.0207-0.0038 0.0169-0.0115 0.011-0.0179 0.0036-0.0222-0.0044-0.024-0.013-0.0174-0.0217-0.0112-0.0307-0.0046v-0.0159l0.0284-0.0043 0.0107-0.0054 0.0087-0.0077 0.011-0.0181 0.0036-0.0194-0.0031-0.0166-0.0095-0.0143-0.0145-0.0102-0.0189-0.0034-0.0223 0.0044-0.0178 0.013-0.0141 0.0217-0.01 0.0302h-0.00971v-0.07792zm-0.07307 0.05851v0.13183l0.0023 0.03091 0.00358 0.0069 0.0069 0.00562 0.01047 0.00358 0.01457 0.00128v0.00996h-0.12008v-0.00997l0.01865-0.00205 0.0115-0.00639 0.00562-0.01405 0.00179-0.0258v-0.0539l-0.01099 0.00026-0.00869-0.00026-0.0792 0.11216h-0.06183v-0.00997l0.0192-0.0036 0.0197-0.024 0.0582-0.082-0.0273-0.0123-0.0197-0.0153-0.0115-0.0179-0.0041-0.021 0.0015-0.0122 0.0041-0.0115 0.0169-0.0202 0.0133-0.0082 0.0171-0.0056 0.046-0.0049h0.02785 0.08252v0.01048l-0.0146 0.0011-0.0102 0.0035-0.0105 0.0118-0.0025 0.0317zm0.50561-0.05851h0.12493v0.01048l-0.0233 0.0036-0.0064 0.0043-0.0041 0.0064-0.0028 0.0338v0.13183l0.0023 0.03296 0.00383 0.00664 0.00664 0.0046 0.02453 0.00409v0.00996h-0.12493v-0.00997l0.0273-0.0028 0.0059-0.0039 0.0048-0.0066 0.0034-0.013 0.001-0.022v-0.13183l-0.0028-0.034-0.0041-0.0064-0.0064-0.0044-0.0291-0.0033v-0.01047zm-3.9447 0v0.01048l-0.014 0.0011-0.0102 0.0035-0.0105 0.0118-0.0026 0.0317v0.13183l0.0023 0.03091 0.00358 0.0069 0.0069 0.00562 0.01022 0.00358 0.01482 0.00128v0.00996h-0.12034v-0.00997l0.01891-0.00205 0.01124-0.00639 0.00588-0.01405 0.00179-0.0258v-0.0539l-0.01125 0.00026-0.00868-0.00026-0.0792 0.11216h-0.06183v-0.00997l0.019-0.0036 0.0197-0.024 0.058-0.082-0.0274-0.0123-0.0194-0.0153-0.0118-0.0179-0.0038-0.021 0.0016-0.0122 0.004-0.0115 0.0169-0.0202 0.013-0.0082 0.0171-0.0056 0.0463-0.0049h0.02785 0.08252zm-0.2933 0.05851v0.13183l0.00306 0.03424 0.0092 0.00971 0.00971 0.00332 0.01584 0.00102v0.00996h-0.12033v-0.00997l0.01891-0.00205 0.01124-0.00639 0.00562-0.01405 0.00205-0.0258v-0.11701l-0.10757 0.12468 0.00204 0.01942 0.0046 0.01226 0.00945 0.00664 0.01635 0.0023v0.00996h-0.11496v-0.00996l0.0207-0.0021 0.0113-0.0067 0.0048-0.0143 0.0018-0.025v-0.13182l-0.0031-0.0345-0.0092-0.0095-0.0094-0.003-0.0161-0.0011v-0.01047h0.12033v0.01048l-0.0245 0.0036-0.0097 0.0092-0.0026 0.0115-0.001 0.0238v0.11369l0.1076-0.1245-0.0023-0.0176-0.0057-0.0112-0.0099-0.0062-0.0154-0.0023v-0.01048h0.11574v0.01048l-0.02454 0.00357-0.0097 0.0092-0.00282 0.0115-0.00076 0.02376zm-0.2968 0.1319 0.002 0.0312 0.0036 0.0068 0.0064 0.0054 0.0105 0.0036 0.0153 0.0013v0.00996h-0.12034v-0.00996l0.01891-0.00205 0.01124-0.00639 0.00587-0.01405 0.00179-0.0258v-0.06156h-0.1073v0.06157l0.00179 0.03117 0.00358 0.0069 0.00639 0.00537 0.01047 0.00357 0.01533 0.00128v0.00996h-0.12008v-0.00997l0.0197-0.0023 0.0113-0.0067 0.0051-0.0143 0.0015-0.025v-0.1318l-0.002-0.0312-0.0034-0.0069-0.0064-0.0054-0.0104-0.0035-0.0154-0.0011v-0.01047h0.12008v0.01048l-0.02453 0.00383-0.00639 0.0046-0.00409 0.00638-0.00255 0.03322v0.05263h0.1073v-0.05263l-0.0017-0.0309-0.0095-0.0122-0.0104-0.0036-0.0161-0.0013v-0.01047h0.12034v0.01048l-0.02453 0.00383-0.00664 0.0046-0.00384 0.00638-0.00281 0.03322v0.13183zm-0.62594-0.19034h0.12008v0.01048l-0.0246 0.0035-0.0097 0.0092-0.0026 0.0115-0.001 0.0238v0.13183l0.00255 0.03321 0.00409 0.00664 0.00665 0.0046 0.02453 0.00383v0.00996h-0.12622v-0.00996l0.0284-0.0028 0.0061-0.0039 0.0048-0.0066 0.0031-0.013 0.001-0.022v-0.0608l-0.0408 0.0153-0.0432 0.0051-0.0215-0.0015-0.0161-0.0046-0.0107-0.0067-0.0059-0.0074-0.0035-0.026v-0.04522l-0.0024-0.0317-0.0035-0.0069-0.0062-0.0051-0.0224-0.0044v-0.01047h0.11701v0.01048l-0.0245 0.0036-0.0098 0.0092-0.0028 0.0115-0.00077 0.02376v0.03066l0.00255 0.02402 0.00434 0.00587 0.00766 0.0046 0.02631 0.00434 0.02887-0.00409 0.02735-0.01226v-0.05314l-0.0025-0.0333-0.0038-0.0066-0.0067-0.0046-0.0243-0.0036v-0.01047zm-0.23121 0h0.08073v0.01022l-0.01533 0.00434-0.012 0.01226-0.0092 0.0207-0.0665 0.1627-0.0222 0.0547-0.0125 0.0306-0.0169 0.0317-0.0215 0.0228-0.0235 0.0138-0.0222 0.0046-0.0146-0.0023-0.0117-0.0069-0.0079-0.0097-0.0026-0.0113 0.0021-0.0105 0.0056-0.0079 0.0087-0.0051 0.0117-0.0018 0.0243 0.0059 0.0135 0.0041 0.0087-0.0021 0.0092-0.0063 0.0097-0.0123 0.0097-0.0202 0.0177-0.0432-0.0892-0.1875-0.013-0.021-0.0113-0.0125-0.0202-0.0076v-0.01022h0.11599v0.01022h-0.00562l-0.0107 0.0013-0.0077 0.0038-0.0046 0.0061-0.0015 0.0072 0.0023 0.0125 0.0066 0.0168 0.0606 0.1252 0.0554-0.1372 0.0049-0.0219-0.0021-0.0074-0.0066-0.0046-0.0164-0.0018v-0.01022zm1.6659-0.5011-0.0337 0.033-0.0853 0.0445-0.1014 0.0148-0.056-0.0069-0.0547-0.0205-0.1042-0.0615-0.0161 0.0079-0.0143 0.0237-0.0158 0.0683h-0.01865v-0.3398h0.01712l0.0342 0.1062 0.0345 0.0741 0.0357 0.0504 0.0386 0.0357 0.0447 0.0217 0.0537 0.0072 0.0306-0.0051 0.0261-0.0153 0.0179-0.0246 0.0058-0.0322-0.0046-0.0408-0.014-0.0289-0.058-0.0493-0.0917-0.059-0.0871-0.0636-0.0542-0.0706-0.0143-0.0424-0.0049-0.0485 0.0046-0.0529 0.0141-0.0465 0.023-0.0401 0.0324-0.034 0.082-0.046 0.0987-0.0153 0.049 0.0054 0.046 0.0158 0.0886 0.0498 0.0172-0.0064 0.0145-0.0194 0.0131-0.0608h0.01864v0.30505h-0.01737l-0.0264-0.0805-0.0455-0.0889-0.0626-0.069-0.0375-0.0184-0.0468-0.0061-0.0334 0.0051-0.0266 0.0156-0.0174 0.023-0.0059 0.0278 0.0044 0.0312 0.0122 0.0235 0.0481 0.0419 0.0866 0.0562 0.0981 0.0674 0.0399 0.0373 0.0327 0.0453 0.0217 0.0528 0.0074 0.0601-0.0049 0.0547-0.0145 0.0475-0.0241 0.0403zm-1.5237 0.3358-0.0477 0.0355-0.1183 0.0465-0.1372 0.0155-0.1127-0.0081-0.0978-0.0251-0.0396-0.0199-0.0284-0.026-0.0169-0.0325-0.0056-0.0386 0.0067-0.0355 0.0201-0.0273 0.068-0.0327-0.047-0.0371-0.0355-0.0411-0.0148-0.0319-0.0074-0.0159-0.0075-0.0575 0.011-0.07 0.0325-0.0587 0.048-0.0427 0.0562-0.0212-0.0432-0.0401-0.0324-0.0483-0.0202-0.0562-0.0069-0.0644 0.0049-0.0554 0.0143-0.0496 0.0237-0.0442 0.0332-0.0383 0.0836-0.0534 0.0994-0.0179 0.0572 0.0051 0.0516 0.0156 0.0462 0.0261 0.0404 0.0365 0.0184-0.0342 0.0266-0.0264 0.0337-0.0171 0.0401-0.0056 0.0416 0.0069 0.0325 0.0204 0.0207 0.0322 0.0072 0.0419-0.0054 0.0332-0.0158 0.0274-0.0246 0.0181-0.0309 0.0062-0.0294-0.0052-0.0242-0.0153-0.0164-0.0253-0.0054-0.0345 0.0126-0.0401 0.0125-0.0281-0.0105-0.0059-0.0383 0.0159-0.0343 0.0477 0.0371 0.0721 0.013 0.0902-0.0046 0.0547-0.0145 0.0493-0.0238 0.0434-0.0337 0.0381-0.0833 0.0528-0.0963 0.0177-0.0629-0.0072-0.0615-0.0217-0.0527 0.0107-0.0189 0.0179-0.0064 0.0261 0.0051 0.0189 0.0149 0.0133 0.0421 0.0123h0.28129l0.09734 0.01788 0.07562 0.05314 0.04752 0.07869 0.00103 0.00153 0.0161 0.0981-0.00665 0.06183-0.02044 0.05263-0.03398 0.0442zm-0.68342 0.1653h0.11548v0.01048l-0.0245 0.0035-0.0097 0.0092-0.0026 0.0115-0.001 0.0238v0.13183l0.00307 0.03424 0.00945 0.0097 0.00945 0.00332 0.01584 0.00102v0.00996h-0.12033v-0.00996l0.01891-0.00205 0.01123-0.00638 0.00588-0.01405 0.00179-0.0258v-0.11702l-0.10731 0.12468 0.00179 0.01942 0.0046 0.01226 0.00945 0.00664 0.01635 0.0023v0.00996h-0.11471v-0.00996l0.0196-0.0023 0.0113-0.0067 0.0051-0.0143 0.0015-0.025v-0.1318l-0.0028-0.0345-0.0092-0.0095-0.0097-0.003-0.0159-0.0011v-0.01047h0.12008v0.01048l-0.0243 0.0036-0.0099 0.0092-0.0026 0.0115-0.00077 0.02376v0.11369l0.1074-0.1244-0.0023-0.0176-0.0056-0.0112-0.01-0.0062-0.0151-0.0023v-0.01048zm0.15074 0h0.01124l0.0111 0.0043 0.0201-0.0044 0.042-0.0071 0.0329 0.0041 0.0268 0.0125 0.0105 0.0089 0.0077 0.0103 0.0043 0.0117 0.0016 0.013-0.0039 0.0195-0.012 0.0168-0.0199 0.0138-0.0279 0.011 0.0325 0.01 0.0232 0.0151 0.0138 0.0199 0.0049 0.0245-0.0015 0.014-0.0046 0.0128-0.0179 0.0235-0.0133 0.0097-0.0158 0.0067-0.019 0.0043-0.0214 0.0013-0.0279-0.0028-0.0245-0.0079-0.0238-0.0143-0.0255-0.022 0.0071-0.0069 0.022 0.0151 0.0212 0.0107 0.021 0.0064 0.0202 0.002 0.0206-0.0038 0.0169-0.0115 0.011-0.0179 0.0036-0.0222-0.0044-0.024-0.013-0.0174-0.022-0.0112-0.0304-0.0046v-0.01584l0.0284-0.0044 0.0107-0.0054 0.0085-0.0076 0.0112-0.0182 0.0036-0.0194-0.0031-0.0166-0.0094-0.0143-0.0149-0.0102-0.0186-0.0034-0.0223 0.0044-0.0178 0.013-0.0141 0.0217-0.0099 0.0302h-0.00971v-0.07792zm-0.50919 0.05851v0.13183l0.00205 0.03091 0.00383 0.0069 0.00664 0.00562 0.01048 0.00358 0.01456 0.00128v0.00996h-0.12008v-0.00997l0.01891-0.00205 0.01124-0.00639 0.00562-0.01405 0.00204-0.0258v-0.0539l-0.01123 0.00026-0.00869-0.00026-0.0792 0.11216h-0.06183v-0.00997l0.0191-0.0036 0.0197-0.024 0.058-0.082-0.0274-0.0123-0.0194-0.0153-0.0117-0.0179-0.0039-0.021 0.0013-0.0122 0.0043-0.0115 0.0167-0.0202 0.0133-0.0082 0.0171-0.0056 0.046-0.0049h0.0281 0.08227v0.01048l-0.01457 0.00102-0.01022 0.00357-0.01047 0.01175-0.00231 0.03169zm3.1407 0.16606 0.0092 0.00971 0.00945 0.00332 0.01584 0.00102v0.00996h-0.12417v-0.00996l0.02197-0.0023 0.01226-0.00613 0.00562-0.0138 0.00205-0.02606v-0.13182l-0.0031-0.0338-0.0041-0.0064-0.0064-0.0043-0.0283-0.0036v-0.01047h0.08661 0.11931l0.00996 0.06796h-0.01174l-0.0105-0.0273-0.0105-0.0146-0.016-0.0061-0.0279-0.0021h-0.05263v0.17245l0.00307 0.03424zm-1.2307-1.3671v0.52911l0.00153 0.06975 0.00792 0.07205 0.01533 0.01431 0.03066 0.00766 0.03168 0.00153v0.02453h-0.42769v-0.02453l0.0318-0.0015 0.0306-0.0077 0.0154-0.0135 0.0079-0.0728 0.0013-0.0698v-0.36228l-0.0013-0.062-0.0079-0.0547-0.0146-0.0146-0.0329-0.0081-0.0355-0.0029v-0.02453h0.34593zm-0.44429-0.38655v0.91566l0.00128 0.06975 0.00792 0.07205 0.01558 0.01431 0.03066 0.00766 0.03168 0.00153v0.02453h-0.4282v-0.02453l0.0317-0.0015 0.0306-0.0077 0.0156-0.0135 0.008-0.0728 0.0012-0.0698v-0.74857l-0.0012-0.062-0.008-0.0547-0.0143-0.0148-0.0332-0.0079-0.0447-0.0031v-0.02453h0.35539zm-1.1471 0.98541 0.00792 0.07205 0.01533 0.01431 0.03065 0.00766 0.02912 0.00153v0.02453h-0.408v-0.02453l0.03807-0.00434 0.01993-0.01303 0.01048-0.07818 0.00128-0.06975v-0.30939l-0.0011-0.062-0.0046-0.0519-0.0136-0.0371-0.0227-0.0219-0.0317-0.0074-0.0394 0.0081-0.0258 0.0251-0.0309 0.0682v0.38834l0.00128 0.06975 0.00971 0.07895 0.01967 0.01252 0.03909 0.00409v0.02453h-0.41082v-0.02454l0.0317-0.0015 0.0307-0.0077 0.0156-0.0135 0.0079-0.0728 0.0013-0.0698v-0.36228l-0.0013-0.062-0.0079-0.0547-0.0146-0.0146-0.0329-0.0081-0.0304-0.0029v-0.02453h0.33571v0.11344l0.0521-0.0853 0.0554-0.0322 0.0905-0.0107 0.0876 0.0151 0.07486 0.04548 0.05135 0.06592 0.01737 0.07664v0.34082l0.00128 0.06974zm-0.652 0.54367h0.11548v0.01048l-0.0242 0.0035-0.01 0.0092-0.0025 0.0115-0.00077 0.02376v0.13183l0.00281 0.03424 0.00945 0.00971 0.00946 0.00331 0.01584 0.00102v0.00996h-0.12008v-0.00996l0.01865-0.00205 0.0115-0.00639 0.00562-0.01405 0.00179-0.0258v-0.11701l-0.1073 0.12468 0.00178 0.01942 0.0046 0.01226 0.00945 0.00664 0.01635 0.0023v0.00996h-0.11471v-0.00996l0.0199-0.0023 0.011-0.0067 0.0051-0.0143 0.0018-0.025v-0.1318l-0.0031-0.0345-0.0092-0.0095-0.0094-0.003-0.0161-0.0011v-0.01047h0.12033v0.01048l-0.0245 0.0036-0.0097 0.0092-0.0028 0.0115-0.00077 0.02376v0.11369l0.1073-0.1244-0.002-0.0176-0.0056-0.0112-0.01-0.0062-0.0153-0.0023v-0.01048zm-0.26418 0h0.08278v0.01048l-0.0247 0.0035-0.0095 0.0092-0.0028 0.0115-0.00077 0.02376v0.12289l0.00153 0.03117 0.00511 0.01635 0.01099 0.0069 0.02018 0.00281v0.00996 0.06898h-0.01047l-0.0033-0.0209-0.0077-0.0179-0.0118-0.0141-0.0158-0.0092-0.0217-0.0051-0.0301-0.0018h-0.06413l-0.02657 0.00128-0.02019 0.00408-0.01532 0.00818-0.01277 0.0138-0.00895 0.0189-0.0046 0.02274h-0.00996v-0.07895l0.0212-0.0048 0.0041-0.0028 0.015-0.01 0.0172-0.025 0.0148-0.0409 0.0104-0.0488 0.0034-0.0477-0.0026-0.0205-0.0079-0.0151-0.0131-0.0089-0.0183-0.0036v-0.01047h0.13642zm0.90545-0.3352v0.1096h-1.8617v-0.1096h1.8617zm-1.4701 0.3352h0.08456l0.01099 0.06745h-0.01226l-0.0042-0.0182-0.0064-0.0133-0.0082-0.0092-0.0092-0.0057-0.0334-0.0033h-0.02172v0.17245l0.00332 0.035 0.0046 0.00639 0.00639 0.00358 0.03474 0.00332v0.00996h-0.13514v-0.00996l0.02146-0.0023 0.01226-0.00613 0.00537-0.0138 0.00204-0.02605v-0.17246h-0.02223l-0.032 0.0029-0.0081 0.0048-0.008 0.0087-0.0071 0.0135-0.0059 0.0197h-0.01226l0.01022-0.06745h0.08533 0.04496zm0.1022 0h0.11599v0.01022h-0.00588l-0.0103 0.0013-0.0077 0.0038-0.0046 0.0061-0.0015 0.0072 0.0023 0.0125 0.0066 0.0168 0.0606 0.1252 0.0554-0.1372 0.0046-0.0219-0.0018-0.0074-0.0069-0.0046-0.0161-0.0018v-0.01022h0.08074v0.01022l-0.01533 0.00434-0.012 0.01226-0.0092 0.0207-0.0664 0.1627-0.0222 0.0547-0.0125 0.0306-0.0169 0.0317-0.0214 0.0228-0.0236 0.0138-0.0222 0.0046-0.0145-0.0023-0.0118-0.0069-0.0079-0.0097-0.0026-0.0113 0.0021-0.0105 0.0053-0.0079 0.009-0.0051 0.0117-0.0018 0.0243 0.0059 0.0136 0.0041 0.0086-0.0021 0.0092-0.0063 0.0098-0.0123 0.0097-0.0202 0.0176-0.0432-0.0894-0.1875-0.0131-0.021-0.011-0.0125-0.0201-0.0076v-0.01022zm7.1286 0h0.12979v0.01048l-0.0329 0.003-0.0104 0.0082-0.0031 0.0117-0.001 0.0251v0.05237l0.0311-0.0006 0.0483 0.0041 0.0192 0.0054 0.0153 0.0074 0.0123 0.0097 0.0087 0.0117 0.0051 0.0138 0.0018 0.0161-0.0018 0.0151-0.0051 0.0135-0.0085 0.0121-0.0117 0.0102-0.0151 0.0084-0.0179 0.0059-0.0447 0.0048h-0.03704-0.08227v-0.00997l0.01967-0.0023 0.01124-0.00664 0.00511-0.01431 0.00153-0.02504v-0.13182l-0.0027-0.0344-0.0092-0.0095-0.0098-0.003-0.0158-0.0011v-0.01047zm-4.6016 0.02019 0.01175 0.01482 0.00843 0.01737 0.00511 0.01942 0.00153 0.02197h-0.17168l0.0018 0.026 0.0051 0.0232 0.0085 0.0202 0.0117 0.0174 0.0143 0.0135 0.0154 0.01 0.0163 0.0059 0.0179 0.002 0.0227-0.0033 0.0197-0.0102 0.0166-0.0182 0.0136-0.0278 0.0084 0.0053-0.011 0.0355-0.022 0.0322-0.0145 0.0136-0.0164 0.0094-0.0181 0.0057-0.0197 0.002-0.0215-0.0023-0.0199-0.0064-0.0184-0.011-0.0168-0.0153-0.0138-0.0189-0.01-0.022-0.0061-0.0248-0.0021-0.0278 0.0021-0.0302 0.001-0.0038 0.0036-0.0158 0.0015-0.0072 0.0102-0.023 0.0143-0.0196 0.0174-0.0156 0.0197-0.011 0.0214-0.0069 0.0238-0.0021 0.0199 0.0018 0.0179 0.0051 0.01635 0.00843 0.01431 0.01227zm3.5645-0.02019h0.11957l0.00996 0.06796h-0.01201l-0.0101-0.0274-0.0105-0.0146-0.0163-0.0061-0.0279-0.0021h-0.05262v0.17245l0.00307 0.03424 0.00945 0.00971 0.00945 0.00332 0.01584 0.00102v0.00996h-0.12417v-0.00996l0.02172-0.0023 0.01252-0.00613 0.00562-0.0138 0.00179-0.02606v-0.13182l-0.0028-0.0337-0.0044-0.0064-0.0061-0.0043-0.0284-0.0036v-0.01047h0.08636zm-5.5637-0.90569v0.4821h-0.5567-0.4798v-0.02453l0.0396-0.0023 0.051-0.0062 0.0435-0.0227 0.0191-0.0675 0.0028-0.0697v-0.71842l-0.0028-0.0696-0.0069-0.0413-0.0127-0.0269-0.0442-0.0242-0.0517-0.0054-0.0416-0.0023v-0.02453h0.48644 0.52758v0.44863h-0.02095l-0.0746-0.1561-0.0892-0.1295-0.0884-0.0887-0.0731-0.0347-0.1101-0.0092-0.0595-0.0016h-0.01176l-0.0025 0.4977 0.0554-0.003 0.0672-0.0253 0.0483-0.0575 0.0294-0.0805 0.0097-0.0935h0.02504v0.5521h-0.02504l-0.0097-0.0953-0.0294-0.0823-0.0483-0.0592-0.0672-0.0258-0.0554-0.0031v0.52272l0.1134-0.0023 0.1227-0.0107 0.0342-0.013 0.0381-0.0294 0.0873-0.1078 0.0826-0.1426 0.0572-0.1466h0.0212v0.00001zm7.382 0.90135 0.02402 0.00818 0.01405 0.01098 0.0097 0.01533 0.0036 0.01788 0.0013 0.02989v0.08431l0.0013 0.04369 0.0046 0.01073 0.0072 0.00256 0.0074-0.00179 0.02197-0.01967v0.01507l-0.01482 0.01788-0.01482 0.01252-0.01431 0.00767-0.01405 0.00255-0.01201-0.0023-0.0092-0.0069-0.0059-0.01252-0.002-0.0189-0.04803 0.03424-0.01533 0.00511-0.01609 0.00153-0.02351-0.00435-0.01891-0.01329-0.01252-0.02044-0.0041-0.0258 0.002-0.01712 0.0061-0.01431 0.01507-0.01814 0.0235-0.0166 0.03679-0.01814 0.05493-0.02146v-0.00996l-0.002-0.0312-0.009-0.0197-0.014-0.0105-0.02-0.0033-0.015 0.0023-0.01175 0.0069-0.0077 0.00971-0.0028 0.01149 0.00077 0.01558-0.0018 0.01099-0.0046 0.00818-0.0074 0.00511-0.0095 0.00179-0.0089-0.00179-0.0074-0.00536-0.0049-0.00818-0.0015-0.01098 0.0015-0.0115 0.0046-0.01099 0.01788-0.02044 0.01303-0.00843 0.01558-0.00613 0.03832-0.00485 0.03016 0.00281zm-2.4483 0.00434h0.12417v0.01048l-0.02786 0.00332-0.00945 0.00792-0.00332 0.0115-0.00102 0.02529v0.0488l0.00843 0.00051 0.0163-0.0023 0.015-0.0072 0.0138-0.0145 0.0123-0.0251 0.0174-0.0388 0.0081-0.0092 0.011-0.0072 0.0128-0.0048 0.0133-0.0016 0.013 0.0018 0.0102 0.0051 0.0067 0.0082 0.002 0.0105-0.0015 0.0087-0.0046 0.0074-0.0077 0.0048-0.0097 0.0018-0.0151-0.0033-0.0173-0.0041-0.0113 0.0054-0.0092 0.0161-0.0135 0.0319-0.0166 0.0192 0.0181 0.0125 0.0143 0.0192 0.0225 0.038 0.0189 0.0307 0.0133 0.0169 0.0133 0.0076 0.01788 0.00307v0.00996h-0.07333l-0.0324-0.0503-0.0294-0.0513-0.0117-0.0179-0.0064-0.0044-0.0082-0.0013-0.01022 0.00051v0.06643l0.00307 0.03424 0.00434 0.00638 0.0069 0.00434 0.02734 0.00332v0.00996h-0.12417v-0.00996l0.01967-0.0023 0.01124-0.00664 0.00511-0.01431 0.00153-0.02504v-0.13182l-0.0028-0.0344-0.0092-0.0095-0.0097-0.003-0.0158-0.0011v-0.01047zm-0.0381 0.1504 0.0079 0.0039-0.0064 0.023-0.0084 0.0204-0.011 0.0174-0.0135 0.0145-0.0151 0.0118-0.0159 0.0082-0.0166 0.0048-0.0173 0.0018-0.0205-0.0023-0.0191-0.0066-0.0177-0.011-0.0166-0.0156-0.0138-0.0194-0.0097-0.0225-0.0059-0.0256-0.002-0.0286 0.0023-0.0278 0.0064-0.0253 0.011-0.0225 0.0153-0.0197 0.0182-0.0161 0.0201-0.0112 0.0217-0.0069 0.0235-0.0023 0.0335 0.0048 0.0141 0.0062 0.0127 0.0084 0.0177 0.0197 0.0059 0.0204-0.0016 0.0095-0.0051 0.0074-0.0079 0.0046-0.0107 0.0018-0.0138-0.0026-0.0103-0.0079-0.0038-0.0082-0.0023-0.0135-0.0036-0.0141-0.0074-0.0102-0.0112-0.0061-0.0151-0.0021-0.0245 0.0052-0.0192 0.015-0.0094 0.0143-0.0069 0.0164-0.0041 0.0186-0.0015 0.021 0.0056 0.0416 0.0066 0.0192 0.0097 0.0176 0.0118 0.0148 0.0138 0.0108 0.0158 0.0063 0.0177 0.0021 0.025-0.0046 0.0225-0.0135 0.0148-0.0177l0.0143-0.02759zm0.9404-0.1576 0.0269 0.0026 0.024 0.0081 0.0214 0.0133 0.0184 0.0189 0.0128 0.0189 0.0089 0.0205 0.0057 0.0217 0.0017 0.023-0.004 0.0334-0.012 0.034-0.019 0.0299-0.0252 0.0217-0.0297 0.0131-0.0327 0.0043-0.0268-0.0028-0.0238-0.0084-0.0207-0.0141-0.0181-0.0194-0.012-0.0194-0.009-0.0207-0.0051-0.0217-0.0017-0.023 0.0043-0.034 0.0125-0.034 0.0197-0.0294 0.025-0.0204 0.0286-0.012 0.0299-0.0041zm-0.5056 0 0.02683 0.00256 0.02402 0.00818 0.0212 0.01329 0.01865 0.0189 0.01252 0.01891 0.0092 0.02044l0.0055 0.0217 0.0018 0.023-0.0038 0.0334-0.012 0.034-0.0192 0.0299-0.025 0.0217-0.0297 0.0131-0.0329 0.0043-0.0266-0.0028-0.0238-0.0084-0.0207-0.0141-0.0181-0.0194-0.0123-0.0194-0.0087-0.0207-0.0051-0.0217-0.0017-0.023 0.004-0.034 0.0128-0.034 0.0197-0.0294 0.025-0.0204 0.0284-0.012 0.0301-0.0041zm-2.0962 0.1694 0.0015 0.0437 0.0043 0.0107 0.0072 0.0026 0.0077-0.0018 0.0219-0.0197v0.01507l-0.015 0.0179-0.0146 0.0125-0.0143 0.0076-0.0141 0.0026-0.012-0.0023-0.0092-0.0069-0.0058-0.0125-0.0023-0.0189-0.0481 0.0342-0.015 0.0051-0.0162 0.0015-0.0234-0.0043-0.019-0.0133-0.0125-0.0204-0.0041-0.0258 0.0021-0.0171 0.0061-0.0144 0.0151-0.0181 0.0235-0.0166 0.0365-0.0181 0.055-0.0215v-0.00996l-0.0029-0.0311-0.0089-0.0197-0.0146-0.0105-0.0196-0.0033-0.0154 0.0023-0.0117 0.0069-0.0079 0.0097-0.0026 0.0115 0.0005 0.0156-0.0015 0.011-0.0049 0.0081-0.0071 0.0052-0.0095 0.0018-0.0092-0.0018-0.0071-0.0054-0.0049-0.0082-0.0015-0.011 0.0015-0.0115 0.0044-0.0109 0.0178-0.0205 0.0133-0.0084 0.0156-0.0061 0.0383-0.0049 0.0302 0.0028 0.02402 0.00818 0.0138 0.01098 0.00969 0.01533 0.00383 0.01788 0.00102 0.02989v0.08431h0.00001zm-4.0801 0.0792-0.0159 0.0082-0.0166 0.0048-0.0174 0.0018-0.0204-0.0023-0.0192-0.0066-0.0176-0.011-0.0163-0.0156-0.0138-0.0194-0.01-0.0225-0.0059-0.0256-0.002-0.0286 0.0023-0.0278 0.0066-0.0253 0.0108-0.0225 0.0153-0.0197 0.0184-0.0161 0.0199-0.0112 0.0217-0.0069 0.0235-0.0023 0.0335 0.0049 0.0143 0.0061 0.0125 0.0084 0.0177 0.0197 0.0061 0.0204-0.0018 0.0095-0.0049 0.0074-0.0081 0.0046-0.0105 0.0018-0.0141-0.0026-0.0102-0.0079-0.0038-0.0082-0.0023-0.0135-0.0033-0.0141-0.0077-0.0102-0.0112-0.0061-0.0151-0.0021-0.0243 0.0052-0.0194 0.015-0.0095 0.0143-0.0068 0.0164-0.0041 0.0186-0.0016 0.021 0.0057 0.0416 0.0068 0.0192 0.0095 0.0176 0.0117 0.0148 0.0138 0.0108 0.0159 0.0063 0.0176 0.0021 0.0253-0.0046 0.0225-0.0135 0.0146-0.0177 0.0143-0.0276 0.0079 0.0039-0.0061 0.023-0.0087 0.0204-0.011 0.0174-0.0136 0.0145-0.015 0.0118zm6.2803-1.6934 0.0095 0.0565-0.0095 0.0559-0.0284 0.0465-0.0416 0.0312-0.0501 0.0105-0.049-0.0105-0.0417-0.0312-0.0281-0.0465-0.0094-0.0559 0.0094-0.0547 0.0281-0.046 0.0417-0.0314 0.049-0.0102 0.0501 0.0099 0.0416 0.0302l0.02836 0.04573zm-3.0004 0.1124-0.0281 0.0465-0.0419 0.0312-0.0501 0.0105-0.049-0.0105-0.0414-0.0312-0.0284-0.0465-0.0094-0.0559 0.0094-0.0547 0.0284-0.046 0.0414-0.0314 0.049-0.0102 0.0501 0.0099 0.0419 0.0302 0.0281 0.0457 0.0094 0.0565-0.0094 0.0559z"/><polygon points="9.9782 6.7295 12.815 6.7295 11.779 5.6595 12.815 4.5936 10.995 4.5936 10.995 6.068"/><polygon points="9.9782 6.7295 10.995 6.068 9.9782 6.068"/><polygon points="1.8201 4.5936 0 4.5936 1.0365 5.6595 0 6.7295 2.8369 6.7295 1.8201 6.068"/><polygon points="2.8369 6.068 1.8201 6.068 2.8369 6.7295"/><path d="m8.661 3.1718 0.0477 0.0757 0.0159 0.0204-0.0248 0.011-0.0524-0.1071h0.01355zm0.06744 0.13209v-0.03092l-0.02529 0.01099 0.02529 0.01993zm-0.28818 0.3168h-0.00333-0.15175v-0.75036h0.03551v-0.03347l0.03884 0.06464 0.04164 0.06259 0.03909 0.0534v0.6032zm0.12851 0h-0.10475v-0.57305l0.0281 0.035 0.0488 0.05595 0.02785 0.02861v0.45349zm0.02375-0.42871v0.4287h0.13592v-0.30913l-0.027-0.0212-0.0557-0.048-0.0531-0.0504zm0.04523-0.02631h-0.04523-0.01711l0.01712 0.01763 0.00358 0.00383 0.0534 0.05033 0.02963 0.02555 0.01303 0.0138-0.05442-0.11114zm-0.004-0.0444 0.0187 0.0365l0.00485 0.00792h-0.01941l-0.03194-0.06566 0.02785 0.0212zm-0.1093-0.0984 0.024 0.0222 0.0513 0.0427 0.0279 0.021-0.023-0.0458-0.0056-0.0143-0.0105-0.0003-0.0112-0.0015-0.011-0.0025-0.0108-0.0034-0.0102-0.0046-0.0099-0.0056-0.0092-0.0064-0.0018-0.0015zm-0.012-0.0107 0.012 0.0107-0.0069-0.0056-0.0051-0.0051zm-6.6922 1.012h9.175v-0.943h-0.06847v-0.06131h-0.19468l0.0038-0.0046 0.0064-0.0092 0.0054-0.00996 0.0046-0.01022 0.0036-0.01073 0.0026-0.01099 0.0013-0.01124 0.00051-0.01124-0.00077-0.01124-0.0018-0.01098-0.0028-0.01099-0.0038-0.01073-0.0049-0.00996-0.0056-0.00971-0.0066-0.0092-0.0077-0.00843-0.0082-0.00767-0.0087-0.00664 0.0138-0.06822 0.01098-0.10552 0.00077-0.10603-0.0018-0.02094 0.0089-0.00485 0.0094-0.00613 0.0087-0.00715 0.0082-0.00792 0.0071-0.00843 0.0064-0.00945 0.0056-0.00971 0.0043-0.01048 0.0036-0.01047 0.0025-0.01098 0.0015-0.01124 0.00026-0.01124 0.001-0.0116-0.002-0.0112-0.003-0.011-0.004-0.0105-0.004-0.0102-0.006-0.0097-0.007-0.009-0.007-0.0084-0.009-0.0077-0.009-0.0068-0.009-0.0059-0.01-0.0051-0.011-0.0041-0.011-0.0031-0.01-0.0018-0.019-0.0669-0.039-0.0989-0.048-0.0945-0.007-0.0121 0.006-0.0079 0.005-0.0099 0.005-0.0102 0.003-0.0108 0.003-0.0107 0.001-0.0113 0.001-0.0112-0.001-0.0112-0.002-0.0113-0.002-0.011-0.004-0.0104-0.005-0.0103-0.005-0.0097-0.007-0.0092-0.007-0.0084-0.009-0.0077-0.009-0.0069-0.009-0.0061-0.01-0.0051-0.011-0.0041-0.01-0.003-0.012-0.0021-0.011-0.001-0.011 0.0002-0.011 0.0011-0.011 0.0023-0.011 0.003-0.052-0.0562-0.08-0.07-0.086-0.0623-0.02-0.0123 0.001-0.0099v-0.0113-0.0112l-0.002-0.0113-0.003-0.0107-0.004-0.0107-0.005-0.0102-0.006-0.0098-0.006-0.0089-0.008-0.0084-0.008-0.0077-0.009-0.0066-0.01-0.0062-0.01-0.0048-0.01-0.0041-0.011-0.0031-0.011-0.0018-0.012-0.001-0.011 0.0002-0.011 0.0013-0.011 0.0023-0.011 0.0034-0.01 0.0043-0.01 0.0054-0.01 0.0064-0.008 0.0071-0.008 0.0077-0.063-0.0223-0.1027-0.026-0.1047-0.0161-0.0054-0.0003-0.0033-0.0089-0.0046-0.0102-0.0056-0.0097-0.0067-0.0092-0.0071-0.0085-0.0082-0.0079-0.0089-0.0069-0.0095-0.0061-0.01-0.0051-0.0104-0.0041-0.011-0.0033-0.011-0.0021-0.0113-0.001h-0.0112l-0.0112 0.001-0.011 0.0021-0.0108 0.0033-0.0104 0.0041-0.0102 0.0051-0.0095 0.0061-0.0087 0.0069-0.0082 0.0079-0.0074 0.0085-0.0066 0.0092-0.0056 0.0097-0.0046 0.0102-0.0036 0.0102-0.0848 0.0113-0.1032 0.0242-0.0775 0.0258-0.0071-0.0071-0.0087-0.0072-0.0095-0.0064-0.0097-0.0053-0.0104-0.0044-0.0108-0.0036-0.011-0.0022-0.0112-0.0016-0.0112-0.0002-0.0113 0.0007-0.011 0.0018-0.011 0.0031-0.0104 0.0038-0.0102 0.0049-0.0098 0.0058-0.0089 0.0067-0.0084 0.0076-0.0074 0.0082-0.0069 0.0092-0.0059 0.0095-0.0049 0.0102-0.004 0.0105-0.0029 0.011-0.002 0.0109-0.0008 0.0113 0.0003 0.0112 0.001 0.0102-0.0082 0.0046-0.0868 0.0608-0.0808 0.0688-0.0666 0.0687-0.0095-0.0028-0.011-0.0023-0.0112-0.0013h-0.01124l-0.0113 0.0008-0.011 0.002-0.011 0.0031-0.0105 0.0041-0.0099 0.0048-0.0097 0.0062-0.009 0.0066-0.0081 0.0077-0.0075 0.0084-0.0066 0.0092-0.0059 0.0097-0.0048 0.0102-0.0039 0.0105-0.0028 0.011-0.0018 0.011-0.0005 0.0115 0.0003 0.0112 0.0015 0.011 0.0026 0.011 0.0033 0.0107 0.0046 0.0105 0.0056 0.0097 0.0056 0.0082-0.0472 0.0896-0.0404 0.0982-0.0255 0.0848-0.01 0.0018-0.0107 0.0028-0.0105 0.0041-0.0102 0.0048-0.0097 0.0059-0.009 0.0069-0.0082 0.0077-0.0076 0.0081-0.0067 0.0092-0.0058 0.0095-0.0049 0.0102-0.0041 0.0107-0.0028 0.0108-0.0018 0.0112-0.0008 0.0112 0.0003 0.0113 0.0015 0.0112 0.0023 0.011 0.0036 0.0107 0.0043 0.0103 0.0057 0.0099 0.0061 0.0092 0.0074 0.0087 0.0079 0.0079 0.0087 0.0072 0.0095 0.0064 0.0087 0.0046-0.0003 0.0025-0.001 0.106 0.0092 0.1058 0.0135 0.0741-0.0084 0.0061-0.0082 0.0074-0.0076 0.0085-0.007 0.0089-0.0058 0.0095-0.0051 0.0102-0.0041 0.0105-0.0028 0.011-0.0021 0.0109-0.001 0.0113 0.0003 0.0112 0.0012 0.0113 0.0024 0.0109 0.0033 0.0108 0.0043 0.0105 0.0054 0.0099 0.0061 0.0092 0.0071 0.009 0.0028 0.0028-0.0135-0.0126-0.0477-0.0477-0.0458-0.0503-0.0434-0.0527-0.0412-0.0544v-0.42896h-0.01789v-0.0534h-0.01251v-0.10296l-0.02581-0.08278-0.0258 0.093v0.09274h-0.02018v-0.09274l-0.08202-0.29508-0.08201 0.29508v0.09274h-0.02018v-0.09274l-0.02555-0.093-0.02606 0.08278v0.10296h-0.01252v0.0534h-0.01763v0.50484h0.03551v0.75036h-1.7782v-0.75036h0.03551v-0.50484h-0.01763v-0.0534h-0.01252v-0.10296l-0.02606-0.08278-0.02555 0.093v0.09274h-0.02018v-0.09274l-0.08201-0.29508-0.08201 0.29508v0.09274h-0.02044v-0.09274l-0.02555-0.093-0.0258 0.08278v0.10296h-0.01252v0.0534h-0.01788v0.42896l-0.0412 0.0544-0.0434 0.0527-0.0457 0.0503-0.0478 0.0477-0.0495 0.0455-0.0514 0.0427-0.0534 0.0404-0.0447 0.0304-0.0102 0.0071-0.0562 0.0345-0.058 0.032-0.0591 0.0286-0.0536 0.0232-0.00077 0.00025-0.00562 0.00256v-0.00767-0.15329-0.03525-0.53499-0.035-0.52707l0.0031-0.0097 0.0048-0.0094 0.0069-0.0084 0.0082-0.0074 0.0097-0.0064 0.0107-0.0049v-0.80887h0.035v-0.05084h-0.06439v-0.13081h0.03066v-0.03065h-0.03066l-0.0273-0.01657-0.0253-0.01865-0.0227-0.01993-0.0204-0.02172-0.0177-0.02273-0.015-0.02428h0.01533v-0.03347h-0.01533v-0.17653h0.01533v-0.0304h-0.01533-0.02912l-0.007-0.0138-0.0365-0.07282-0.0394-0.08993-0.0347-0.093-0.0304-0.0953-0.0255-0.0976-0.0207-0.09937-0.0207 0.09938-0.0256 0.0976-0.0304 0.0953-0.0347 0.093-0.0394 0.08992-0.0368 0.07282-0.0069 0.0138h-0.02886-0.01559v0.0304h0.01558v0.17654h-0.01558v0.03347h0.01558l-0.015 0.02427-0.0176 0.02273-0.0205 0.02172-0.0227 0.01993-0.0253 0.01865-0.0273 0.01661h-0.03092v0.03066h0.03091v0.1308h-0.06463v0.05084h0.03526v0.80887l0.01073 0.00485 0.00971 0.00639 0.00818 0.00741 0.00664 0.00843 0.00511 0.00945 0.00307 0.00971v0.52707 0.035 0.53499 0.03526 0.3983h-0.3628v-0.09198h-0.17271v-0.20183h-0.06285v-0.03066h-0.28742v0.03066h-0.0258v0.04394h-0.09274v-0.18855h-0.05774v-0.0746h-0.29202v0.0746h-0.04855v0.36815h-0.07077v-0.91642h-0.04624v-0.06157h-0.29202v0.06157h-0.04675v1.0263h-0.07077v-0.75879h-0.38936v0.85077h-0.07537v-0.37275h-0.04829v-0.05263h-0.26979v0.05263h-0.04905v0.74116zm7.3429-0.79354v0.29509l-0.01916-0.00894-0.04726-0.02785v-0.32549l0.47367-0.47393-0.13388 0.47776h-0.24271v0.06336h-0.03066zm1.0434 0.13566h-0.02708v0.10322l-0.01073 0.00767-0.08508 0.04803-0.0534 0.02376v-0.41517h-0.23172l-0.12443-0.44352 0.60908 0.60908-0.0018 0.0023-0.0054 0.00766h-0.06949v0.05697zm0.107-0.0939-0.627-0.6275 0.002-0.0038 0.0028-0.0064 0.0015-0.0051h0.95373l-0.00051 0.03781-0.01 0.09709-0.01252 0.06183-0.01099 0.0023-0.01073 0.00332-0.01047 0.00434-0.01 0.00537-0.0095 0.00613-0.0087 0.00716-0.0079 0.00792-0.0074 0.00869-0.0064 0.0092-0.0054 0.00971-0.0046 0.01047-0.0036 0.01073-0.0026 0.01099-0.0013 0.01097-0.00051 0.01124 0.00077 0.01124 0.0018 0.01124 0.0028 0.01098 0.0038 0.01048 0.0049 0.01022 0.0056 0.00971 0.0066 0.00894 0.0077 0.00843 0.00051 0.00077-0.0069 0.01686-0.045 0.0864-0.053 0.0815-0.04 0.0493-0.01-0.0028-0.012-0.002-0.011-0.0011-0.01124 0.00026-0.01124 0.00128-0.01099 0.0023-0.01073 0.00331-0.01047 0.00434-0.01 0.00537-0.001 0.00051zm0.3329-0.68317h-0.95398l-0.0004-0.0025-0.0026-0.0066-0.003-0.0064 0.67448-0.67423 0.02325 0.02504-0.0046 0.01022-0.0036 0.01073-0.0025 0.01098-0.0015 0.01124-0.00051 0.01124 0.00077 0.01124 0.0018 0.01124 0.0026 0.01073 0.0038 0.01073 0.0048 0.01022 0.0056 0.00971 0.0066 0.0092 0.0074 0.00843 0.0082 0.00767 0.0089 0.0069 0.0094 0.00588 0.01022 0.00511 0.01047 0.00409 0.01073 0.00332 0.01124 0.00204 0.01099 0.00077h0.0115l0.01099-0.00102 0.0013-0.00025 0.0061 0.00971 0.04394 0.08712 0.03551 0.09095 0.01712 0.0608-0.0087 0.0069-0.0079 0.00792-0.0074 0.00869-0.0064 0.0092-0.0054 0.00996-0.0046 0.01022-0.0036 0.01073-0.0025 0.01099-0.0013 0.01123-0.00051 0.01124 0.00077 0.01124 0.0018 0.01124 0.0028 0.01073 0.0038 0.01073 0.0049 0.01022 0.0056 0.00945 0.0066 0.0092 0.0077 0.00843 0.0082 0.00766 0.0089 0.0069 0.0097 0.00588 0.01 0.00511 0.01047 0.00383 0.001 0.00025 0.0015 0.0184-0.00024 0.01942zm-1.9179 1.0666v0.24654h-0.23709v-0.15098h-0.05442v-0.09556h0.00332 0.02376 0.10475 0.02376 0.13592zm-0.92434 0.09479v0.15176h-1.3878v-0.15099h0.0069l0.2169-0.0378 0.2179-0.0227 0.219-0.0077 0.0378 0.0016 0.00051-0.00077 0.00051 0.00077 0.00051-0.00077 0.00051 0.00077 0.03781-0.00153 0.21896 0.00766 0.21818 0.02274 0.21257 0.03704zm-1.2286-0.0546-0.0138 0.0197-0.0396 0.0069-0.0187-0.0266 0.0281-0.0401h0.0161l0.02784 0.04011zm-0.0802 0.012 0.012 0.0171-0.0276 0.0049 0.0156-0.022zm-0.0085-0.012-0.026 0.0373-0.0179 0.0031-0.0281-0.0404l0.0281-0.04011h0.01584l0.0281 0.04012zm-0.08048 0.01201 0.01022 0.01456 0.0115 0.01635-0.00537 0.00102h-0.00613-0.03245l0.02223-0.03193zm-0.0081-0.012-0.0263 0.0376v-0.07511l0.02632 0.03756zm-0.9571-0.4356-0.0053-0.0023-0.0527-0.023 0.0534-0.0294 0.0483-0.0296-0.0437 0.0843zm2.4187 0.39805v0.07511l-0.02606-0.03755 0.02606-0.03756zm-0.03449 0.04957 0.02223 0.03193h-0.03858l-0.0046-0.00077-0.00077-0.00025 0.00077-0.00102 0.02095-0.02989zm-0.0209 0.0058-0.0156 0.0225-0.0179-0.0031-0.0261-0.0373 0.0281-0.0401h0.01609l0.02785 0.04011-0.01251 0.01788zm-0.0677-0.0059 0.0153 0.022-0.0276-0.0049 0.0123-0.0171zm-0.0085-0.012-0.0186 0.0266-0.0396-0.0069-0.0138-0.0197 0.0281-0.0401h0.01584l0.02811 0.04011zm-0.8962-0.0138-0.0567 0.0059 0.0224-0.0322h0.0161l0.01814 0.02631zm-0.0511-0.0263-0.0194 0.0281-0.0197-0.0281h0.03908v-0.00001zm-0.05595 0 0.02453 0.03475-0.07 0.00741 0.02964-0.04216h0.01583zm-0.0327 0l-0.0196 0.0281-0.0197-0.0281h0.03934v-0.00001zm-0.05595 0 0.0304 0.04343l-0.0279 0.0028-0.0375 0.0067-0.009-0.0128 0.0279-0.0401h0.0161v-0.00001zm-0.03271 0l-0.0197 0.0281-0.0197-0.0281h0.03934v-0.00001zm-0.08865 0l-0.0196 0.0281-0.0197-0.0281h0.03934v-0.00001zm-0.08891 0l-0.0197 0.0281-0.0196-0.0281h0.03934v-0.00001zm-1.1691 0h0.09606 0.02376 0.10041 0.02376 0.10475 0.02376 0.10475 0.02376 0.03653v0.09555h-0.06515v0.15099h-0.47239v-0.21971-0.02683zm1.6129 0-0.01686 0.02402-0.00537 0.00051-0.01711-0.02453h0.03934zm-1.5168-0.03525h-0.09606v-0.16811l0.06234-0.03602 0.03372-0.02172v0.22585zm2.2947 0.0873 0.0031 0.0044-0.0053-0.0011 0.0022-0.0033zm-0.7301-0.0306-0.0473 0.0015l0.0161-0.023h0.0161l0.01507 0.02147zm-1.4405-0.3794-0.0408 0.0321-0.0499 0.0353l0.05467-0.105 0.00537 0.0023 0.03066 0.01354 0.01788 0.00766-0.01788 0.01405zm2.1625 0.398-0.0092 0.0128-0.0376-0.0067-0.0278-0.0028 0.0304-0.0434h0.0161l0.0281 0.04011zm-0.6811-0.0401-0.0144 0.0204-0.0104 0.0006-0.0146-0.021h0.03935zm-1.4813-0.03525h-0.10041v-0.24092l0.00358-0.0023 0.00511-0.00383 0.05416-0.03832 0.03756-0.02963v0.315zm2.6803-0.24578v0.17884h-0.03986v-0.17884h0.03986zm-2.0196-0.24015v0.09785h-0.04011v-0.09785h0.04011zm-0.05544 0v0.09785h-0.04012v-0.09785h0.04012zm-0.05544 0v0.09785h-0.04011v-0.09785h0.04011zm-0.4213 0.48593h-0.10475v-0.33392l0.05161-0.04446 0.05314-0.05033v0.42871zm0.12851 0h-0.10475v-0.45349l0.02785-0.02861 0.0488-0.05595 0.0281-0.035v0.57305zm3.9368-0.48696v0.39038h-0.02861v-0.79123l0.11241 0.40086h-0.0838v-0.00001zm-0.0694-0.3992v0.89982l-0.04369-0.00256v-0.40111h-0.04905v-0.06336h-0.02862l0.12136-0.43279zm-0.044-0.0895-0.003-0.0061-0.0026-0.0066-0.0005-0.0026h-0.95424v0.01942l0.00843 0.09734 0.01226 0.06719h0.00051l0.01098 0.00255 0.01073 0.00358 0.01022 0.0046 0.00996 0.00537 0.0092 0.00639 0.0087 0.00715 0.00792 0.00818 0.00715 0.00869 0.00613 0.00945 0.00536 0.00996 0.00434 0.01022 0.00332 0.01099 0.0023 0.01098 0.00128 0.01124 0.00026 0.01124-0.001 0.0113-0.0018 0.011-0.003 0.011-0.0041 0.0104-0.0051 0.01-0.0059 0.0097-0.0069 0.009-0.0074 0.0081-0.00051 0.00025 0.00485 0.01226 0.04318 0.08585v-0.41797h0.36815v0.41107l0.4609-0.46115zm-0.00613-0.0557h-0.95373l0.00026-0.03781v-0.00076l0.001-0.0002 0.0104-0.0038 0.0103-0.0051 0.0097-0.0059 0.0089-0.0069 0.0082-0.0074 0.0077-0.0084 0.0066-0.009 0.0059-0.0097 0.0048-0.0102 0.0039-0.0105 0.003-0.011 0.0018-0.011 0.0008-0.0112-0.0003-0.0115-0.0015-0.011-0.0023-0.011-0.0036-0.0107-0.0043-0.0105-0.0057-0.0097-0.0063-0.0094-0.0072-0.0087-0.0079-0.0079-0.0087-0.0072-0.0008-0.0005 0.0233-0.0769 0.037-0.0902 0.043-0.0812 0.0007 0.0002 0.0113 0.001 0.0112 0.0003 0.0112-0.0008 0.011-0.002 0.0108-0.0031 0.0107-0.0041 0.0099-0.0051 0.0098-0.0059 0.0089-0.0069 0.0082-0.0076 0.0074-0.0084 0.0066-0.009 0.0059-0.0097 0.0049-0.0102 0.0038-0.0105 0.0028-0.011 0.0018-0.0112 0.0005-0.0113-0.0002-0.0112-0.0016-0.0113-0.0025-0.0109-0.0034-0.0105-0.0046-0.0105-0.0005-0.001 0.023-0.0238 0.6742 0.6745-0.002 0.0038-0.0026 0.0064-0.0015 0.0051zm-3.6386 0.28104v0.75036h-0.11855-0.03653v-0.6032l0.03909-0.0534 0.04165-0.06259 0.03884-0.06464v0.03347h0.0355zm-0.35257 0.29534h-0.00664-0.05263l0.04701-0.03245 0.0442-0.03321-0.03194 0.06566zm-0.32089-1.8883v0.57714 0.07563h-0.03091v-0.05698h-0.06566v0.05697h-0.01993v-0.05697h-0.06566v0.05697h-0.01993v-0.05697h-0.06566v0.05697h-0.01967v-0.05697h-0.06592v0.05697h-0.01967v-0.05697h-0.06591v0.05697h-0.01968v-0.05697h-0.06591v0.05697h-0.01967v-0.05697h-0.06567-0.00025v0.05697h-0.03066v-0.07562-0.57714-0.07563h0.03066v0.05697h0.00025 0.06566v-0.05697h0.01967v0.05697h0.06591v-0.05697h0.01967v0.05697h0.06592v-0.05697h0.01968v0.05697h0.06591v-0.05697h0.01967v0.05697h0.06566v-0.05697h0.01993v0.05697h0.06566v-0.05697h0.01993v0.05697h0.06566v-0.05697h0.03091v0.07563h0.00001zm0.84285 2.0975v0.19034h-0.04012v-0.19034h0.04012zm-0.7074-0.0011-0.0219 0.014-0.0366 0.0233-0.0539 0.0312v-0.15124l0.09044 0.06643 0.02198 0.01634zm1.209 0.3344 0.0023 0.0033-0.0054 0.0011 0.0031-0.0044zm-1.36-0.05213v0.02683h-0.60958v-0.035h0.60959v0.00817h-0.00001zm0.3989-0.4903-0.0171 0.0177-0.0036 0.0038-0.0534 0.0503-0.0297 0.0256-0.0133 0.0138 0.0547-0.1112h0.04522 0.01713zm0.00485-0.00639h-0.02197-0.03577l0.03245-0.06643 0.0723-0.02963-0.04701 0.09606zm-0.195 0.1043-0.0544 0.105-0.0016-0.0013-0.1075-0.0792 0.0501-0.0215 0.0569-0.0278l0.05646 0.02478zm3.1601-0.10424h0.03577l-0.0325-0.0665-0.0723-0.0296 0.04701 0.09606h0.02197zm1.7395-1.289-0.6746 0.6747-0.0008-0.0002-0.0064-0.0031-0.0064-0.0025-0.0018-0.0003v-0.88653l0.0049-0.001 0.011-0.0034 0.0104-0.0041 0.01-0.0051 0.0095-0.0061 0.0089-0.0069 0.0082-0.0079 0.0071-0.0084 0.0067-0.0092 0.0056-0.0097 0.0005-0.0013 0.0036 0.0002 0.0966 0.0146 0.0945 0.024 0.0569 0.0202 0.0008 0.0112 0.0018 0.011 0.0028 0.011 0.0038 0.0105 0.0049 0.0102 0.00588 0.00971 0.00664 0.00894 0.0074 0.00843 0.0084 0.00766 0.0089 0.0069 0.0095 0.00588 0.01022 0.00485 0.01047 0.00409 0.01099 0.00306 0.01099 0.00179 0.01124 0.00102 0.01124-0.00025 0.01124-0.00128 0.01099-0.0023 0.01073-0.00332 0.01048-0.00434 0.01-0.00536 0.0092-0.00613 0.00077-0.00051 0.01814 0.01073 0.07894 0.05723 0.06949 0.06131zm-0.7306-0.2169v0.88551l-0.0056 0.0018-0.0067 0.0028-0.0028 0.0018-0.675-0.6747 0.0095-0.0097 0.0743-0.0632 0.08-0.0559 0.0061-0.0036 0.0005 0.0005 0.0095 0.0062 0.0097 0.0056 0.0105 0.0043 0.0107 0.0036 0.011 0.0023 0.0112 0.0015 0.0113 0.0003 0.0112-0.0008 0.011-0.002 0.011-0.0028 0.0105-0.0039 0.0102-0.0048 0.0097-0.0059 0.0089-0.0066 0.0085-0.0077 0.0076-0.0084 0.0067-0.009 0.0058-0.0094 0.0051-0.0102 0.0039-0.0105 0.0031-0.011 0.0017-0.011 0.00077-0.01124v-0.00077l0.07026-0.02376 0.09504-0.02197 0.07716-0.01047v0.00026l0.00562 0.00971 0.00664 0.00919 0.00741 0.00843 0.00817 0.00792 0.00869 0.0069 0.00945 0.00613 0.01022 0.00511 0.01048 0.00409 0.01073 0.00332 0.01022 0.00204zm0.92077 1.6558h-0.03526l0.03628-0.04548 0.05825-0.08891 0.03219-0.06081v0.58123h-0.05723v-0.32906h-0.03424v-0.05697h0.00001zm-2.4203-0.0766h-0.03986v-0.09785h0.03986v0.09785zm-2.0917-0.5662h-0.0442v-0.07307h0.0442v0.07307zm1.6571 0.9895-0.0197 0.0281-0.0196-0.0281h0.03935v-0.00001zm-0.08866 0l-0.0196 0.0281-0.0197-0.0281h0.03934v-0.00001zm-0.05595 0 0.02938 0.04216-0.06974-0.00741 0.02427-0.03475h0.01609zm-0.0327 0l-0.0196 0.0281-0.0196-0.0281h0.03934v-0.00001zm-0.05621 0 0.02248 0.03219-0.05671-0.00587 0.0184-0.02632h0.01583zm-0.0327 0-0.01712 0.02453-0.00536-0.00051-0.01686-0.02402h0.03934zm-0.05595 0 0.0161 0.02299l-0.0471-0.0015 0.015-0.0215h0.0161v-0.00001zm-0.0327 0l-0.0144 0.021-0.0105-0.0006-0.0143-0.0204h0.03935zm-0.05595 0 0.0138 0.01993-0.04293-0.00153 0.01303-0.0184h0.0161zm-0.03271 0-0.01251 0.01789-0.01482-0.00051-0.01201-0.01738h0.03934zm-0.0562 0 0.01175 0.01686-0.02478-0.00101-0.01431 0.00051 0.0115-0.01635h0.01584v-0.00001zm-0.0327 0-0.01176 0.01712-0.00741 0.00026-0.00715-0.00026-0.01201-0.01712h0.03833zm-0.05493 0 0.01149 0.01635-0.01456-0.0005-0.02478 0.00102 0.01175-0.01686h0.0161v-0.00001zm-0.03296 0-0.01201 0.01738-0.01456 0.00051-0.01252-0.01789h0.03909zm-0.05595 0 0.01303 0.0184-0.04292 0.00153 0.01405-0.01993h0.01584zm1.2411-1.0626v0.07307h-0.04419v-0.07307h0.04419zm-0.07332 0.07307h-0.04445v-0.07307h0.04446v0.07307h-0.00001zm-0.07332-0.07307v0.07307h-0.04446v-0.07307h0.04446zm0.4259 0.4584-0.0546-0.0225 0.0396 0.0493 0.0636 0.0723-0.0486-0.0991zm-0.29866-0.08533h-0.03986v-0.04803h0.03986v0.04803zm-0.05544-0.04803v0.04803h-0.03986v-0.04803h0.03986zm-0.05544 0v0.04803h-0.03986v-0.04803h0.03986zm0.11088 0.2164v0.09785h-0.03986v-0.09785h0.03986zm-0.05544 0v0.09785h-0.03986v-0.09785h0.03986zm0.05544 0.15482v0.08712h-0.03986v-0.08712h0.03986zm-0.11088 0v0.08712h-0.03986v-0.08712h0.03986zm-2.0183-0.6232h-0.0442v-0.07307h0.0442v0.07307zm0.07358-0.07307v0.07307h-0.04445v-0.07307h0.04445zm-0.01941 0.32498v0.04803h-0.04011v-0.04803h0.04011zm-0.05544 0v0.04803h-0.04012v-0.04803h0.04012zm-0.05544 0v0.04803h-0.04011v-0.04803h0.04011zm0.11088 0.37122v0.08712h-0.04011v-0.08712h0.04011zm-0.11088 0v0.08712h-0.04011v-0.08712h0.04011zm-0.92052-2.6974v0.17654h-0.01967v-0.17654h0.01967zm-0.03219 0v0.17654h-0.01993v-0.17654h0.01993zm-0.03219 0v0.17654h-0.01993v-0.17654h0.01993zm-0.09683 0.17653h-0.01993v-0.17653h0.01993v0.17653zm-0.03245-0.17653v0.17654h-0.01967v-0.17654h0.01967zm-0.03219 0v0.17654h-0.01967v-0.17654h0.01967zm-0.03219 0v0.17654h-0.01993v-0.17654h0.01993zm-0.03219 0v0.17654h-0.01993v-0.17654h0.01993zm-0.03245 0v0.17654h-0.01967v-0.17654h0.01967zm-0.03219 0v0.17654h-0.01993v-0.17654h0.01993zm0.25804 0v0.17654h-0.01967v-0.17654h0.01967zm-0.03219 0v0.17654h-0.01993v-0.17654h0.01993zm0.24654 1.4672v0.40341h-0.02171v-0.40341h0.02171zm-0.03934 0v0.40341h-0.02172v-0.40341h0.02172zm-0.03909 0v0.40341h-0.02172v-0.40341h0.02172zm-0.03909 0v0.40341h-0.02171v-0.40341h0.02171zm-0.03934 0v0.40341h-0.02172v-0.40341h0.02172zm-0.03909 0v0.40341h-0.02172v-0.40341h0.02172zm-0.03909 0v0.40341h-0.02197v-0.40341h0.02197zm-0.03935 0v0.40341h-0.02171v-0.40341h0.02171zm-0.03909 0v0.40341h-0.02171v-0.40341h0.02171zm-0.03934 0v0.40341h-0.02172v-0.40341h0.02172zm-0.03909 0v0.40341h-0.02172v-0.40341h0.02172zm-0.03909 0v0.40341h-0.02197v-0.40341h0.02197zm-0.03934 0v0.40341h-0.02172v-0.40341h0.02172zm-0.03909 0v0.40341h-0.02172v-0.40341h0.02172zm-0.03935 0v0.40341h-0.02171v-0.40341h0.02171zm-0.03909 0v0.40341h-0.02171v-0.40341h0.02171zm0.58787 0.49615h-0.60958v-0.035h0.60959v0.035h-0.00001zm0.5624 0.3792-0.0378 0.0242 0.0386-0.0424 0.0118-0.0148-0.0126 0.033zm-0.0132 0.0518-0.0146 0.022 0.0278-0.0738 0.0399-0.0253-0.034 0.0508-0.0191 0.0263zm0.00153-0.03704-0.02632 0.07-0.0493 0.02044 0.02964-0.06106 0.04598-0.02938zm-0.55083-0.31987v0.40341h-0.02171v-0.40341h0.02171zm-0.03934 0v0.40341h-0.02172v-0.40341h0.02172zm-0.03909 0v0.40341h-0.02172v-0.40341h0.02172zm0.5413 0.4221 0.0547-0.0225-0.0396 0.0493-0.0637 0.0723 0.0486-0.0991zm0.0306-0.0629-0.0306 0.0629-0.0698 0.0283 0.0363-0.0301 0.0499-0.0458 0.0005-0.0002 0.0137-0.0151zm-0.61112-0.35921v0.40341h-0.02171v-0.40341h0.02171zm-0.03934 0v0.40341h-0.02172v-0.40341h0.02172zm-0.03909 0v0.40341h-0.02172v-0.40341h0.02172zm-0.03909 0v0.40341h-0.02197v-0.40341h0.02197zm-0.03935 0v0.40341h-0.02171v-0.40341h0.02171zm-0.03909 0v0.40341h-0.02171v-0.40341h0.02171zm-0.03934 0v0.40341h-0.02172v-0.40341h0.02172zm-0.03909 0v0.40341h-0.02172v-0.40341h0.02172zm-0.03909 0v0.40341h-0.02197v-0.40341h0.02197zm-0.03934 0v0.40341h-0.02172v-0.40341h0.02172zm-0.03909 0v0.40341h-0.02172v-0.40341h0.02172zm-0.03935 0v0.40341h-0.02171v-0.40341h0.02171zm-0.03909 0v0.40341h-0.02171v-0.40341h0.02171zm0.9147 0.5421-0.0498 0.102-0.0026 0.0051-0.0212-0.0095-0.0278-0.0122l0.0442-0.08533h0.05723zm-0.32677-0.04599h-0.60958v-0.03525h0.60959v0.03525h-0.00001zm0 0.06081v0.40341h-0.02171v-0.40341h0.02171zm-0.03934 0v0.40341h-0.02172v-0.40341h0.02172zm-0.03909 0v0.40341h-0.02172v-0.40341h0.02172zm-0.03909 0v0.40341h-0.02171v-0.40341h0.02171zm-0.03934 0v0.40341h-0.02172v-0.40341h0.02172zm-0.03909 0v0.40341h-0.02172v-0.40341h0.02172zm-0.03909 0v0.40341h-0.02197v-0.40341h0.02197zm-0.03935 0v0.40341h-0.02171v-0.40341h0.02171zm-0.03909 0v0.40341h-0.02171v-0.40341h0.02171zm2.9346 0.4694-0.0197 0.0281-0.0197-0.0281h0.03934v-0.00001zm-2.9738-0.46932v0.40341h-0.02172v-0.40341h0.02172zm-0.03909 0v0.40341h-0.02172v-0.40341h0.02172zm-0.03909 0v0.40341h-0.02197v-0.40341h0.02197zm-0.03934 0v0.40341h-0.02172v-0.40341h0.02172zm-0.03909 0v0.40341h-0.02172v-0.40341h0.02172zm-0.03935 0v0.40341h-0.02171v-0.40341h0.02171zm-0.03909 0v0.40341h-0.02171v-0.40341h0.02171zm3.859-0.1825-0.0005-0.0002-0.0138-0.0151 0.0306 0.0629 0.0698 0.0283-0.0363-0.0301-0.0498-0.0458zm-0.0258-0.0252-0.0457-0.0294l0.02631 0.07 0.04931 0.02044-0.02989-0.06106zm-0.0575-0.0442-0.0398-0.0253 0.0339 0.0508 0.0192 0.0263 0.0145 0.022-0.0278-0.0738zm-0.0008-0.0182-0.0117-0.0148 0.0125 0.033 0.0378 0.0242-0.0386-0.0424zm-0.0219-0.0255-0.0315-0.0378-0.0311-0.0414v0.02325l0.0373 0.06183 0.03628 0.02325-0.01099-0.02913zm-2.5173-0.0792v0.02325l-0.0373 0.0618-0.0363 0.0232 0.011-0.0291 0.0314-0.0378 0.0312-0.0414zm1.8844 0.8441-0.0196 0.0281-0.0197-0.0281h0.03935z"/><path d="m4.7556 1.3768 0.0386-0.0276 0.0434-0.0196 0.0463-0.011l0.035-0.00179 0.035 0.00179 0.04623 0.01098 0.04318 0.01967 0.03884 0.02759 0.03296 0.03424 0.01942 0.0304 0.00638 0.00945 0.01763 0.0442 0.0092 0.0465v0.04752l-0.0089 0.0467-0.0177 0.0442-0.0255 0.0401-0.0327 0.0345-0.0386 0.0276-0.0432 0.0196-0.0462 0.0115-0.036 0.0018-0.0361-0.0018-0.0462-0.0115-0.0432-0.0196-0.0386-0.0276-0.0329-0.0345-0.0256-0.0401-0.0176-0.0442-0.0087-0.0468v-0.04752l0.0092-0.0465 0.01763-0.0442 0.00613-0.00945 0.01967-0.0304 0.03296-0.03424zm-0.12622 0.47776h0.57893v-0.57714h-0.57893v0.57714z"/><path d="m4.7602 1.6522-0.0557 0.0322-0.0041-0.0064-0.0171-0.0434-0.0087-0.0457v-0.0184h0.06413v0.01226l0.00639 0.03372 0.01277 0.03194 0.00229 0.00384zm0.0018-0.0058 0.0181 0.0283 0.023 0.0243 0.0274 0.0194 0.0304 0.014 0.0324 0.008 0.0256 0.0012 0.0253-0.0012 0.0326-0.008 0.0304-0.014 0.0274-0.0194 0.023-0.0243 0.0179-0.0283 0.0125-0.0312 0.0064-0.0327-0.0003-0.0337-0.0064-0.0328-0.0125-0.0311-0.0043-0.0067-0.0138-0.0214-0.0233-0.0243-0.0273-0.0194-0.0304-0.0138-0.0325-0.0079-0.0247-0.001-0.0248 0.001-0.0325 0.0079-0.0306 0.0138-0.0274 0.0194l-0.023 0.02427-0.0138 0.02146-0.0046 0.00664-0.01251 0.03117-0.00639 0.0327v0.03373l0.00639 0.0327 0.01226 0.03117zm0.0033-0.1746-0.0557-0.0319 0.0166-0.0261 0.0322-0.0337 0.034-0.0237 0.0161 0.0278 0.0161 0.0279-0.024 0.0168-0.0238 0.0251l-0.0115 0.01788zm0.0672-0.0643-0.0322-0.056 0.0389-0.0176 0.0452-0.0107 0.0299-0.0016v0.06438l-0.02095 0.00076-0.03321 0.00818-0.02759 0.01252zm0.0864-0.0907-0.035 0.0018-0.0463 0.011-0.0434 0.0196-0.0386 0.0276-0.033 0.0342-0.0196 0.0304-0.0062 0.0095-0.0176 0.0442l-0.0092 0.0465v0.04752l0.0087 0.0468 0.0176 0.0442 0.0256 0.0401 0.0329 0.0345 0.0386 0.0276 0.0432 0.0196 0.0462 0.0115 0.0361 0.0018 0.036-0.0018 0.0462-0.0115 0.0432-0.0196 0.0386-0.0276 0.0327-0.0345 0.0255-0.0401 0.0177-0.0442 0.0089-0.0468v-0.0475l-0.0092-0.0465-0.0176-0.0442-0.0064-0.0095-0.0194-0.0304-0.033-0.0342-0.0388-0.0276-0.0432-0.0196-0.0462-0.011-0.035-0.00179zm0.18012 0.26596v-0.01226h0.06412v0.0184l-0.0087 0.0457-0.0174 0.0434-0.004 0.0064-0.0557-0.0322 0.0025-0.0038 0.0125-0.032 0.0067-0.0337zm-0.36024-0.02146h-0.06412v-0.01916l0.0089-0.0457 0.0173-0.0432 0.0036-0.0056 0.0557 0.0322-0.002 0.003-0.0128 0.032-0.0067 0.0337v0.01277zm0.3387-0.0815 0.0555-0.0322 0.0038 0.0056 0.0174 0.0432 0.0089 0.0457v0.01916h-0.06438v-0.01277l-0.0064-0.0337-0.013-0.032-0.0018-0.003zm-0.3679 0.2123 0.0161 0.025 0.0322 0.034 0.0345 0.0248 0.0322-0.056-0.0245-0.0176-0.0235-0.0248-0.0113-0.0176-0.0557 0.0322zm0.2139 0.0539 0.0214-0.001 0.0335-0.0082 0.0266-0.0123 0.0322 0.0557-0.0376 0.0174-0.0455 0.0112-0.0306 0.0016v-0.06438zm-0.1232 0.0342 0.0322-0.0557 0.0268 0.0123 0.0335 0.0082l0.02146 0.00102v0.06438l-0.0309-0.0016-0.0453-0.0112-0.0378-0.0174zm0.1439-0.3934-0.0208-0.0008v-0.06437l0.0299 0.0016 0.0453 0.0107 0.0388 0.0176-0.0324 0.056-0.0274-0.0125-0.0334-0.0082zm0.117 0.2907 0.0112-0.0176 0.0557 0.0322-0.0161 0.025-0.0322 0.034-0.0345 0.0248-0.0322-0.056 0.0243-0.0176 0.0238-0.0248zm0.0112-0.2057-0.0118-0.0178-0.0237-0.0251-0.0238-0.0168 0.0161-0.0279 0.0161-0.0278 0.0337 0.0237 0.0322 0.0338 0.0169 0.026-0.0557 0.0319z"/><polygon points="4.9033 1.5814 4.9079 1.585 4.9132 1.5871 4.9189 1.5878 4.9245 1.5871 4.9298 1.585 4.9344 1.5814 4.9378 1.5768 5.0448 1.4667 4.9298 1.547 4.8974 1.5697 4.8977 1.5718 4.9 1.5768"/><polygon points="4.8974 1.5697 4.9298 1.547 4.9245 1.5449 4.9189 1.5442 4.9132 1.5449 4.8381 1.4994 4.8969 1.5659"/></g></svg>
