<svg xmlns:rdf="http://www.w3.org/1999/02/22-rdf-syntax-ns#" xmlns="http://www.w3.org/2000/svg" height="11.57mm" width="12.697mm" version="1.1" xmlns:cc="http://creativecommons.org/ns#" xmlns:dc="http://purl.org/dc/elements/1.1/" viewBox="0 0 44.989 40.997001">
 <g transform="translate(453.92 -166.15)">
  <g transform="translate(-453.93 166.15)">
   <path d="m18.383 26.702c2.934 0 5.313-2.365 5.313-5.282s-2.379-5.282-5.313-5.282-5.314 2.365-5.314 5.282 2.38 5.282 5.314 5.282zm3.481-10.816c1.675 1.044 2.85 2.811 3.065 4.862 0.683 0.317 1.441 0.5 2.245 0.5 2.935 0 5.313-2.365 5.313-5.283s-2.379-5.282-5.313-5.282c-2.908 0-5.265 2.323-5.31 5.203zm11.825-0.453c0.683 0.317 1.441 0.5 2.245 0.5 2.935 0 5.314-2.365 5.314-5.282 0-2.918-2.379-5.282-5.314-5.282-2.907-0.001-5.265 2.322-5.309 5.202 1.675 1.044 2.85 2.811 3.064 4.862zm-15.572-3.968c3.185 0 5.767-2.567 5.767-5.733s-2.582-5.733-5.767-5.733-5.767 2.567-5.767 5.733c-0.001 3.166 2.581 5.733 5.767 5.733zm2.771 3.907c0.058-1.249 0.49-2.404 1.186-3.359-0.488-0.102-0.993-0.155-1.51-0.155h-4.894c-0.516 0-1.02 0.054-1.506 0.154 0.74 1.021 1.183 2.267 1.19 3.617 0.9-0.492 1.932-0.772 3.028-0.772 0.891-0.002 1.738 0.182 2.506 0.515zm8.541 6.237h-4.474c-0.049 1.78-0.813 3.383-2.021 4.535 3.334 0.986 5.774 4.06 5.774 7.691v1.689c4.417-0.162 6.963-1.405 7.13-1.489l0.355-0.179h0.038v-5.484c0-3.729-3.052-6.763-6.802-6.763zm8.759-5.315h-4.473c-0.049 1.78-0.813 3.383-2.021 4.534 3.334 0.986 5.774 4.06 5.774 7.691v1.689c4.416-0.161 6.963-1.405 7.13-1.49l0.355-0.179h0.038v-5.484c0-3.727-3.052-6.761-6.803-6.761zm-17.551 10.768h-4.508c-3.751 0-6.804 3.035-6.804 6.765v5.482l0.014 0.086 0.38 0.117c3.58 1.112 6.69 1.484 9.25 1.484 4.999 0 7.898-1.418 8.077-1.508l0.355-0.179h0.038v-5.482c0.001-3.73-3.05-6.765-6.802-6.765zm-6.805-0.918c-1.203-1.147-1.964-2.74-2.02-4.51-0.165-0.012-0.33-0.025-0.499-0.025h-4.507c-3.752 0-6.804 3.034-6.804 6.764v5.482l0.014 0.085 0.38 0.118c2.871 0.892 5.435 1.303 7.661 1.431v-1.655c0.001-3.63 2.44-6.705 5.775-7.69zm-4.772-4.895c1.039 0 2.006-0.302 2.826-0.816 0.261-1.689 1.171-3.165 2.472-4.17 0.005-0.099 0.015-0.197 0.015-0.297 0-2.918-2.379-5.282-5.312-5.282-2.935 0-5.314 2.365-5.314 5.282 0 2.918 2.378 5.283 5.313 5.283z" fill-rule="evenodd" clip-rule="evenodd" fill="#80ceff"/>
  </g>
 </g>
</svg>
