<svg xmlns:rdf="http://www.w3.org/1999/02/22-rdf-syntax-ns#" xmlns="http://www.w3.org/2000/svg" height="12.97mm" width="11.656mm" version="1.1" xmlns:cc="http://creativecommons.org/ns#" xmlns:dc="http://purl.org/dc/elements/1.1/" viewBox="0 0 41.299457 45.956813">
 <g transform="translate(-521.6 -419.74)">
  <g transform="matrix(1.4349 0 0 1.4349 521.6 408.98)">
   <path fill="#80ceff" d="m11.03 27.418-1.3772 2.5269c-0.06604 0.14779-0.2545 0.39826-0.72162 0.39826-0.57262 0-1.5318-0.36081-2.1488-0.62376l-0.1207 0.258-0.9351-0.43 0.1208-0.26c-0.8194-0.413-1.8358-1.012-2.0235-1.527l-0.0753-0.28551 0.0753-0.20014 1.051-2.7105c-1.0812 0.684-2.0142 2.177-3.1905 4.569l-1.3341 2.811c-0.11352 0.248-0.22426 0.502-0.3503 0.761l7.9809 3.691c0.122-0.259 0.2335-0.512 0.3503-0.755l1.2814-2.8313c1.0631-2.4508 1.5971-4.1251 1.4175-5.3928zm-2.5606 6.161-0.9927 2.154-6.646-3.076 0.9967-2.154c0.28349-0.60242 1.0184-0.91733 1.939-0.91733 0.68739 0 1.4839 0.17718 2.272 0.54202 1.8358 0.84887 2.9275 2.3916 2.431 3.451zm-0.5243-0.96122c0.10027 0.27906 0.1043 0.52108 0.01248 0.72564l-0.7559 1.636-5.6175-2.6 0.7578-1.637c0.16993-0.36926 0.69947-0.59034 1.4223-0.59034 0.62981 0 1.351 0.17557 2.034 0.49007 1.0575 0.48605 1.8802 1.2427 2.1467 1.9748zm1.5137-7.8569c0.19611 0.08336 0.40148 0.13772 0.61209 0.15463 0.03423 0.20215 0.0447 0.40873 0.02618 0.61692 0.58712 0.36484 0.94149 0.66726 0.87988 0.79692l-1.8338 3.3693c-0.1056 0.223-1.2565-0.092-2.5818-0.701-1.32-0.612-2.3126-1.288-2.2083-1.518l1.3836-3.5771c0.06362-0.12806 0.51947-0.05517 1.1678 0.15544 0.40551-0.41356 0.93947-0.63585 1.465-0.63585 0.03866 0.18564 0.09584 0.37772 0.21343 0.57866-0.3588-0.06363-0.72967 0.0447-1.0506 0.27947 0.32094 0.12403 0.66403 0.26698 1.0144 0.43048 0.35437 0.16671 0.68377 0.3294 0.98015 0.49209-0.01047-0.14577-0.0145-0.29598-0.06363-0.4337 0-0.004 0-0.0064-0.00443-0.0084zm13.636 0.57947c-0.07893 0.4337 0.02094 1.2512 0.20457 1.6474l4.6913 10.18c0.23799 0.52108 0.51303 1.1114 0.1043 1.7517-0.24201 0.37893-0.66283 0.60887-1.1094 0.60887-0.78806 0-1.1424-0.5984-1.4304-1.076l-5.7967-9.7423-1.5721 3.1881c-0.36685 0.7486-1.0969 1.8081-1.6575 2.4125l-3.1603 3.4072c-0.41276 0.44255-0.73491 0.78846-1.3398 0.78846-0.50336 0-0.96243-0.29034-1.1843-0.74457-0.36685-0.76954 0.07933-1.3265 0.47558-1.8165l3.1208-3.8678c0.33222-0.41477 0.77437-1.2616 0.92256-1.7742l1.1593-4.0494c0.16671-0.59437 0.36282-1.6518 0.41276-2.2655l0.51101-6.2179c-2.5261 0.83719-4.9982 4.136-5.8354 5.5172-0.35638 0.57665-0.65558 1.074-1.4074 1.076h-0.004c-0.45866 0-0.89236-0.24483-1.1247-0.64712-0.389-0.65679-0.1043-1.1742 0.2243-1.7674 0.19208-0.3439 4.8572-8.5732 11.152-8.0779 2.719 0.23275 3.5864 2.276 4.1618 3.6282 0.13128 0.31369 0.26255 0.62135 0.41276 0.89437l3.5908 6.4922c0.34228 0.62094 0.1357 1.4263-0.47115 1.7847-0.61289 0.3588-1.3844 0.19208-1.7602-0.40873l-2.673-4.2665-0.61813 3.3452zm1.5596-15.308c0.27141 1.6462-0.84645 3.1986-2.4898 3.4676-1.6474 0.27101-3.1982-0.84766-3.4651-2.4918-0.27101-1.6462 0.84243-3.1986 2.4854-3.4676 1.647-0.27141 3.1986 0.84525 3.4696 2.4918z"/>
  </g>
 </g>
</svg>
