<svg xmlns:rdf="http://www.w3.org/1999/02/22-rdf-syntax-ns#" xmlns="http://www.w3.org/2000/svg" height="11.287mm" width="8.4658mm" version="1.1" xmlns:cc="http://creativecommons.org/ns#" xmlns:dc="http://purl.org/dc/elements/1.1/" viewBox="0 0 29.996913 39.993998">
 <g transform="translate(444.68 -166.44)">
  <g transform="translate(-444.68 166.44)">
   <path d="m14.998 19.56c4.385 0 7.94-4.379 7.94-9.78 0-5.402-1.167-9.78-7.94-9.78s-7.94 4.379-7.94 9.78 3.555 9.78 7.94 9.78zm-14.997 14.933c-0.002-0.33-0.003-0.093 0 0zm29.993 0.257c0.004-0.09 0.001-0.626 0 0zm-0.017-0.652c-0.147-9.409-1.359-12.091-10.632-13.788 0 0-1.305 1.687-4.348 1.687s-4.347-1.687-4.347-1.687c-9.172 1.679-10.458 4.32-10.627 13.482-0.014 0.748-0.02 0.787-0.023 0.701 0.001 0.163 0.001 0.464 0.001 0.988 0 0 2.208 4.513 14.996 4.513s14.996-4.513 14.996-4.513c0-0.337 0-0.571 0.001-0.731-0.003 0.054-0.008-0.05-0.017-0.652z" fill-rule="evenodd" clip-rule="evenodd" fill="#80ceff"/>
  </g>
 </g>
</svg>
