<svg xmlns:rdf="http://www.w3.org/1999/02/22-rdf-syntax-ns#" xmlns="http://www.w3.org/2000/svg" height="11.006mm" width="11.852mm" version="1.1" xmlns:cc="http://creativecommons.org/ns#" xmlns:dc="http://purl.org/dc/elements/1.1/" viewBox="0 0 41.994104 38.996003">
 <g transform="translate(485.63 -155.88)">
  <g transform="translate(-485.63 155.88)">
   <path d="m15.425 31.674 0.1588-0.1555s6.3347-6.2937 12.017-11.933v-14.583c0-0.7584-0.6204-1.3688-1.3796-1.3688l-23.506-0.0113c0-0.9432 0.7061-1.4193 1.4246-1.4193h23.463c1.4666 0 1.4238 1.2859 1.4238 1.2859v14.681c0.7531-0.7511 1.4814-1.4739 2.1727-2.1576v-14.728c0-1.0254-0.8745-1.2845-1.2925-1.2845h-26.024c-3.884 0.0001-3.884 3.5762-3.884 3.5762v32.899c0 0.7569 0.6151 1.3729 1.3795 1.3729h11.751c0.2851-1.1311 0.9305-2.937 2.2089-5.9624l0.0859-0.2111zm-8.6419-20.273v-2.6744h14.247v2.6744h-14.247zm24.42 16.964h-0.0043l-0.0002-0.0014c-0.7341 0.7303-1.4623 1.451-2.1698 2.1565v2.8959c0 0.1541 0.0538 1.0572-0.7061 1.0572 0 0-0.425 0.0021-0.7192 0.0021v-2.538c-2.1727 2.1566-4.007 3.979-4.9995 4.9678l-0.9142 0.9449h4.5328c0.7592 0 1.381-0.6163 1.381-1.3733l2.2186-0.0027c1.4814 0 1.3809-1.4525 1.3809-1.4525v-6.6565zm5.8843-16.788c-1.6337 1.6286-20.693 20.554-20.693 20.554s-2.6984 6.3776-2.2516 6.8164c0.4446 0.4384 6.9043-2.3019 6.9043-2.3019 1.0369-1.0285 19.409-19.281 20.639-20.502 0.2159-0.2135 0.3072-0.4885 0.3072-0.8026 0.0032-1.9026-3.5032-5.1567-4.9064-3.763zm3.7989 3.8249c-1.092 1.074-16.255 16.131-19.893 19.749l-3.0353-3.0164 19.913-19.78c0.0266-0.0314 0.2187-0.0314 0.5125 0.0933 0.353 0.1444 0.7002 0.3842 1.0324 0.6682l-17.959 17.835c-0.0806 0.0805-0.1212 0.1848-0.1212 0.2888 0 0.1057 0.0405 0.2111 0.1212 0.2905 0.1617 0.1586 0.4246 0.1586 0.5856 0l17.954-17.838c0.5228 0.5963 0.8934 1.242 0.8934 1.6514 0.0001 0.0388-0.0042 0.0595-0.0042 0.0595z" fill-rule="evenodd" clip-rule="evenodd" fill="#80ceff"/>
  </g>
 </g>
</svg>
