<svg xmlns:rdf="http://www.w3.org/1999/02/22-rdf-syntax-ns#" xmlns="http://www.w3.org/2000/svg" height="11.852mm" width="7.9013mm" version="1.1" xmlns:cc="http://creativecommons.org/ns#" xmlns:dc="http://purl.org/dc/elements/1.1/" viewBox="0 0 27.9966 41.994799">
 <g transform="translate(443.56 -213.02)">
  <g transform="translate(-443.56 213.02)">
   <path d="m22.201 4.5241c-0.038-2.5051-2.08-4.5245-4.594-4.5245h-6.9821c-2.5142 0-4.5556 2.0193-4.5935 4.5245h-6.0316v37.47h27.997v-37.47h-5.7959zm-11.576-2.2622h6.9552 0.0269c1.2865 0 2.3331 1.0464 2.3331 2.333s-1.0466 2.3331-2.3331 2.3331h-6.9821c-1.2865 0-2.333-1.0464-2.333-2.3331 0-1.2866 1.0465-2.333 2.333-2.333zm3.3732 33.794h-9.3322v-2.2622h9.3322v2.2622zm0-7.0697h-9.3322v-2.2623h9.3322v2.2623zm0-6.9283h-9.3322v-2.2626h9.3322v2.2626zm0-7.07h-9.3322v-2.2623h9.3322v2.2623zm6.1887 22.628-2.7631-2.2913 1.4441-1.7412 1.1019 0.9138 1.7236-1.8895 1.6713 1.5246-3.1778 3.4836zm0-7.0697-2.7631-2.2913 1.4441-1.7416 1.1019 0.9138 1.7236-1.8895 1.6713 1.525-3.1778 3.4836zm0-6.9283-2.7631-2.2913 1.4441-1.7416 1.1019 0.9138 1.7236-1.8894 1.6713 1.5246-3.1778 3.4839zm0-7.07-2.7631-2.2913 1.4441-1.7413 1.1019 0.9135 1.7236-1.8892 1.6713 1.5247-3.1778 3.4836z" fill-rule="evenodd" clip-rule="evenodd" fill="#80ceff"/>
  </g>
 </g>
</svg>
