<svg xmlns:rdf="http://www.w3.org/1999/02/22-rdf-syntax-ns#" xmlns="http://www.w3.org/2000/svg" height="10.719mm" width="11.284mm" version="1.1" xmlns:cc="http://creativecommons.org/ns#" xmlns:dc="http://purl.org/dc/elements/1.1/" viewBox="0 0 39.981462 37.979998">
 <g transform="translate(403.95 -222.13)">
  <g transform="translate(-403.96 222.12)">
   <path d="m3.6257 12.054h5.2476l1.5814 4.5638h2.0432l-5.05-14.511h-2.305l-5.0303 14.511h1.9747l1.5384-4.5638zm1.8443-5.6625c0.2855-0.88 0.5273-1.7648 0.7466-2.6254h0.0443c0.2195 0.8409 0.4402 1.7015 0.7673 2.6513l1.4492 4.1731h-4.4566l1.4492-4.199zm32.282 19.581c0.9224 0 1.5165-0.0833 1.7795-0.2391 0-0.2743-0.2054-0.5106-0.6146-0.7144-0.3529-0.1976-0.6825-0.302-0.988-0.302-0.6761 0-1.5319 0.1182-2.5737 0.3497-1.3754 0.2867-2.2183 0.4491-2.525 0.4919-2.108 0.2291-3.6913 0.3863-4.7446 0.4768 0.4092 0.6426 0.8492 0.9697 1.3163 0.9697 0.4106 0 0.9597-0.0604 1.6487-0.1772 0.5414-0.0819 1.0918-0.1714 1.6473-0.2543 0.2348 0.2263 0.3528 0.5496 0.3528 0.9659v6.6596l-0.1102 0.1913-0.2426 0.1106c-1.0405-0.2615-1.8154-0.4492-2.326-0.5624 0.3796 0.2705 0.8018 0.731 1.2726 1.3764 0.5261 0.7044 0.9353 1.1784 1.2292 1.4213 0.952-0.5459 1.4293-1.6013 1.4293-3.1688v-3.6379c-0.0295-1.4213-0.1386-2.6188-0.3284-3.5951 1.5962-0.2439 2.8561-0.362 3.7774-0.362zm-26.618 3.198s-11.558 1.2821-8.2466-9.7275c-9.7119 14.787 8.2466 15.873 8.2466 15.873v2.6801h0.0244l9.1411-5.7532-9.1654-5.7703v2.6983zm18.62 0.0756c-0.0566 0-0.1758 0.2353-0.3503 0.7093-0.1912 0.532-0.3079 0.8329-0.3502 0.9034-0.2772 0.3168-0.5646 0.6416-0.8571 0.9722-0.3657 0.4591-0.5491 0.8074-0.5491 1.0554 0 0.1558 0.0628 0.2892 0.1873 0.3973 0.1232 0.1071 0.2669 0.1638 0.4272 0.1638 0.4555 0 0.8943-0.3019 1.3178-0.9059 0.3541-0.5054 0.5285-1.1232 0.5285-1.8542-0.0001-0.9607-0.118-1.4413-0.3541-1.4413zm5.889-8.1866c-0.2194 0-0.6376 0.0919-1.2535 0.2816-0.8635 0.2415-1.3036 0.3649-1.3177 0.3649-0.6723 0.1713-1.5743 0.3082-2.6995 0.41 0.0565 0.473 0.5543 0.7111 1.4934 0.7111 0.5107 0 1.4113-0.0947 2.7008-0.2806 1.4792-0.2314 2.2863-0.4453 2.4159-0.6481 0-0.2138-0.1758-0.4135-0.5261-0.6025-0.295-0.1586-0.5643-0.2364-0.8133-0.2364zm-7.6237 7.3665c0-0.7902-0.476-1.9586-1.4268-3.5084 0.0269-0.5196 0.3644-1.1083 1.0098-1.7675 0.7186-0.7469 1.1354-1.3083 1.2523-1.6804-0.308-0.3749-0.8044-0.6706-1.4948-0.8845-0.0718 0.0276-0.5491 0.2705-1.4266 0.7321-0.6287 0.3157-1.1125 0.4743-1.4498 0.4743-0.1618 0-0.3772-0.049-0.648-0.1409-0.2708-0.093-0.4875-0.1382-0.6491-0.1382l-0.3952 0.0639c0.2655 0.4301 0.3952 0.7183 0.3952 0.8616v10.104c0 0.2418-0.0527 0.6115-0.1642 1.0997-0.1104 0.4854-0.1655 0.8551-0.1655 1.0955 0 0.6302 0.2207 1.0769 0.6594 1.336l0.4619-0.1081c0.0873-0.0266 0.1541-0.5297 0.1977-1.5084 0.0435-1.0616 0.0667-2.6782 0.0667-4.8454 0-0.8026-0.0102-1.9952-0.0244-3.5727-0.014-1.6403-0.0218-2.8378-0.0218-3.5989 1.2856-0.331 2.2454-0.6102 2.8766-0.8416l0.154 0.0881 0.0655 0.171c-0.2195 0.4858-0.4389 0.9788-0.6583 1.4669-0.3362 0.7321-0.5056 1.1999-0.5056 1.3961 0 0.1448 0.1335 0.551 0.3965 1.2089 0.2938 0.731 0.4529 1.176 0.4825 1.3346l-0.197 0.216c-0.8057-0.1437-1.6038-0.2667-2.394-0.3676 0.3643 0.189 0.8699 0.5323 1.5139 1.034 0.6442 0.5058 1.142 0.8478 1.4934 1.0341 0.3978-0.1586 0.5954-0.4111 0.5954-0.7545zm0.841-19.568s11.556-1.2842 8.2473 9.725c9.712-14.786-8.247-15.872-8.247-15.872v-2.6954l-9.1654 5.7692 9.1654 5.7696v-2.6958zm9.2866 21.313c-0.9239-0.4177-1.8528-0.6415-2.7919-0.6692 0.4554 0.3458 1.1225 0.9559 2.0002 1.829 0.848 0.8188 1.523 1.4151 2.0222 1.7875 0.3349-0.0542 0.5042-0.3838 0.5042-0.9901-0.0001-0.7874-0.5775-1.4417-1.7347-1.9572z" fill-rule="evenodd" clip-rule="evenodd" fill="#80ceff"/>
  </g>
 </g>
</svg>
