<svg xmlns:rdf="http://www.w3.org/1999/02/22-rdf-syntax-ns#" xmlns="http://www.w3.org/2000/svg" height="13.009mm" width="13.734mm" version="1.1" xmlns:cc="http://creativecommons.org/ns#" xmlns:dc="http://purl.org/dc/elements/1.1/" viewBox="0 0 48.665469 46.09597">
 <g transform="translate(-632.75 -116.74)">
  <g fill="#80ceff" transform="matrix(.081774 0 0 .081774 632.78 105.44)">
   <path d="m165.6 571.6s-171.1 18.6-122.8-145.1c-145.1 219.5 122.8 236.3 122.8 236.3v39.1l135.8-85.6-135.8-85.6v40.9z"/>
   <path d="m429.7 270.3s171.1-18.6 122.8 145.1c143.2-221.4-122.8-236.3-122.8-236.3v-40.9l-135.8 85.6 135.8 85.6v-39.1z"/>
   <g enable-background="new    ">
    <path d="m52.6 263.9h47.8c10.4 0 18.2 2.5 23.4 7.4s7.8 12 7.8 21.1c0 9.4-2.8 16.7-8.5 22-5.6 5.3-14.3 7.9-25.9 7.9h-15.8v34.5h-28.8v-92.9zm28.8 39.6h7c5.5 0 9.4-1 11.7-2.9 2.2-1.9 3.4-4.4 3.4-7.4 0-2.9-1-5.4-2.9-7.4s-5.6-3-11-3h-8.2v20.7z"/>
    <path d="m137.8 263.9h31.2l12.8 38.3 12.7-38.3h29.2l-30.5 71.8c-2.5 5.8-4.7 10.1-6.5 13-1.9 2.9-4.6 5.2-8.3 7s-8.7 2.8-15.1 2.8c-3.4 0-9.2-0.5-17.4-1.5v-19.2c4.9 0.5 8.4 0.8 10.6 0.8 6.6 0 10.7-2.5 12.1-7.4l-30.8-67.3z"/>
    <path d="m295.8 318.8 25.2 7.6c-1.7 7.1-4.4 13-8 17.7s-8.2 8.3-13.5 10.7c-5.4 2.4-12.3 3.6-20.6 3.6-10.1 0-18.4-1.5-24.8-4.4s-11.9-8.1-16.6-15.5-7-16.9-7-28.4c0-15.4 4.1-27.2 12.3-35.5s19.8-12.4 34.7-12.4c11.7 0 20.9 2.4 27.6 7.1s11.7 12 14.9 21.8l-25.4 5.6c-0.9-2.8-1.8-4.9-2.8-6.2-1.6-2.2-3.6-3.9-5.9-5.1s-4.9-1.8-7.8-1.8c-6.5 0-11.5 2.6-15 7.9-2.6 3.9-3.9 10-3.9 18.3 0 10.3 1.6 17.4 4.7 21.2s7.5 5.7 13.2 5.7c5.5 0 9.7-1.5 12.5-4.6 2.8-2.9 4.9-7.4 6.2-13.3z"/>
   </g>
   <g enable-background="new    ">
    <path d="m271.2 472.4h77v19.9h-48.2v14.8h44.7v19h-44.7v18.3h49.6v21.1h-78.4v-93.1z"/>
    <path d="m365.3 472.4h26.8l35 51.5v-51.5h27.1v93h-27.1l-34.8-51.1v51.1h-27v-93z"/>
    <path d="m520.1 531.8v-19.4h44.4v39.7c-8.5 5.8-16 9.7-22.6 11.8-6.5 2.1-14.3 3.1-23.3 3.1-11 0-20-1.9-27-5.6-7-3.8-12.4-9.4-16.2-16.8s-5.7-16-5.7-25.6c0-10.2 2.1-19 6.3-26.5s10.3-13.2 18.4-17.1c6.3-3 14.8-4.5 25.4-4.5 10.3 0 18 0.9 23.1 2.8s9.3 4.7 12.7 8.7c3.4 3.9 5.9 8.9 7.6 14.9l-27.7 4.9c-1.1-3.5-3.1-6.2-5.8-8.1s-6.2-2.8-10.4-2.8c-6.3 0-11.3 2.2-15.1 6.6-3.7 4.4-5.6 11.3-5.6 20.8 0 10.1 1.9 17.3 5.7 21.6s9.1 6.5 15.8 6.5c3.2 0 6.3-0.5 9.2-1.4s6.3-2.5 10-4.8v-8.8h-19.2z"/>
   </g>
  </g>
 </g>
</svg>
