<svg xmlns:rdf="http://www.w3.org/1999/02/22-rdf-syntax-ns#" xmlns="http://www.w3.org/2000/svg" height="11.284mm" width="11.234mm" version="1.1" xmlns:cc="http://creativecommons.org/ns#" xmlns:dc="http://purl.org/dc/elements/1.1/" viewBox="0 0 39.806097 39.983698">
 <g transform="translate(478.91 -157.79)">
  <g transform="translate(-479.09 157.79)">
   <path d="m39.164 1.8422h-21.768c-0.4542 0-0.825 0.369-0.825 0.824v5.4072c0.4951 0.4705 0.9198 1.0441 1.1981 1.7706l0.232-0.1603c0.0683-0.0625 0.1472-0.1112 0.2197-0.1669v-6.028h20.116v14.322h-20.115v-1.5422l-1.6508 1.1052v1.261c0 0.455 0.3696 0.824 0.825 0.824h21.768c0.4576 0 0.8258-0.369 0.8258-0.824v-15.968c0-0.4564-0.3683-0.824-0.8258-0.824zm-18.665 11.647 0.9883-0.6609h-0.0014c0.0014-0.0056 0.0041-0.0056 0.007-0.0097 0.5035-0.4979 0.5961-1.2466 0.2832-1.8301l7.983-5.4047-0.3626-0.5344-8.0637 5.4588c-0.2524-0.1821-0.536-0.2976-0.8323-0.3076-0.4233-0.0139-0.853 0.1278-1.176 0.4508 0 0-0.007 0.0097-0.0097 0.0097l-0.1974 0.1365-1.7911 1.2192v-0.5179c-0.332-3.9459-4.916-3.8875-4.916-3.8875h-1.9856l-1.6698 2.7376-1.6767-2.7377h-1.904c-5.1723 0.0974-4.9896 3.887-4.9896 3.887v8.8452h0.0028c0.0013 0.0225-0.0028 0.05-0.0028 0.0681 0 0.8423 0.6815 1.5201 1.5225 1.5201 0.8384 0 1.5198-0.6793 1.5198-1.5201 0-0.018 0-0.0456-0.0028-0.0681h0.0028v-8.1811h0.9514l-0.0113 25.772c0 1.1329 0.9228 2.0543 2.054 2.0543 1.1355 0 2.0554-0.9214 2.0554-2.0543v-16.632h0.9159v16.65l0.0168 0.0183c0.0145 1.1135 0.9227 2.0152 2.0455 2.0152 1.1272 0 2.0444-0.9145 2.0444-2.0391l-0.0063-25.828h0.9903v2.6908 0.0124c0 0.8364 0.6815 1.5184 1.5184 1.5184 0.247 0 0.4687-0.0698 0.6787-0.1783l0.007 0.0097 2.6279-1.7592 1.3844-0.9242zm-11.774-6.5374c1.9221 0 3.481-1.5547 3.481-3.4725 0-1.9192-1.5589-3.4739-3.481-3.4739-1.9222 0-3.481 1.5547-3.481 3.4739 0 1.9178 1.5588 3.4725 3.481 3.4725z" fill-rule="evenodd" clip-rule="evenodd" fill="#80ceff"/>
  </g>
 </g>
</svg>
