<svg xmlns:rdf="http://www.w3.org/1999/02/22-rdf-syntax-ns#" xmlns="http://www.w3.org/2000/svg" height="12.427mm" width="14.579mm" version="1.1" xmlns:cc="http://creativecommons.org/ns#" xmlns:dc="http://purl.org/dc/elements/1.1/" viewBox="0 0 51.656338 44.034004">
 <g transform="translate(113.7 -510.29)">
  <g transform="matrix(1.3073 0 0 1.3073 -363.67 192.46)">
   <g transform="matrix(1.2372,0,0,1.2372,191.21,240.18)">
    <g fill="#80ceff">
     <path d="m13.1 20.8v-1s3.2 0.1 4.7-1.4c0 0-2.2-0.6-1.8-4.6s-0.5-7.5-3.7-7.2c0 0-1.4-1.7-4.2-0.6-1 0.4-3.5 1.3-3.4 6.8s-2 5.6-2 5.6 1.1 1.6 4.8 1.5v1l2.8 8.2 2.8-8.3z"/>
     <path d="m20 26.1c-0.2-1-0.8-1.9-1.7-2.3l-3.6-1.8-0.6-0.3 1.1 3.3-1.5-0.1-3.4 4.2-3.4-4.2-1.6 0.1 1.1-3.3-0.7 0.4-3.4 1.7c-0.9 0.5-1.6 1.3-1.7 2.3l-0.6 3.1c0 0.2 0.1 0.4 0.4 0.4h9.8 0.3 9.8c0.2 0 0.4-0.2 0.4-0.4l-0.7-3.1z"/>
     <path d="m29.9 4.4c-2.7-2.7-7.1-2.7-9.8 0-2.6 2.6-2.7 6.8-0.3 9.5l0.1 0.1c-0.3 0.6-0.7 1.3-1.4 1.6-0.2 0.1-0.2 0.5 0.1 0.5 0.8 0.1 1.9 0 3-0.8 2.7 1.6 6.1 1.2 8.4-1.1 2.6-2.7 2.6-7.1-0.1-9.8zm-7.9 5.8c-0.5 0-0.9-0.4-0.9-0.9s0.4-0.9 0.9-0.9 0.9 0.4 0.9 0.9-0.4 0.9-0.9 0.9zm3 0c-0.5 0-0.9-0.4-0.9-0.9s0.4-0.9 0.9-0.9 0.9 0.4 0.9 0.9-0.4 0.9-0.9 0.9zm3 0c-0.5 0-0.9-0.4-0.9-0.9s0.4-0.9 0.9-0.9 0.9 0.4 0.9 0.9-0.4 0.9-0.9 0.9z"/>
    </g>
   </g>
  </g>
 </g>
</svg>
