<svg xmlns:rdf="http://www.w3.org/1999/02/22-rdf-syntax-ns#" xmlns="http://www.w3.org/2000/svg" height="16.426mm" width="10.255mm" version="1.1" xmlns:cc="http://creativecommons.org/ns#" xmlns:dc="http://purl.org/dc/elements/1.1/" viewBox="0 0 36.337615 58.203545">
 <g transform="translate(148.84 -540.94)">
  <g transform="matrix(1.1727 0 0 1.1727 -11.858 -119.55)">
   <g transform="matrix(1.562,0,0,1.562,-129.15,563.14)">
    <g fill="#80ceff">
     <circle cx="13.956" cy="5.6213" r="2.4859"/>
     <path d="m16.139 15.039h-0.08638v-4.1058c1.6866-0.75227 3.0408-1.9665 3.7247-3.8089 0.82335-2.2175-0.16784-4.7482-1.5133-6.5195-1.0027-1.3208-3.2688-0.02351-2.2514 1.3159 0.93159 1.2268 1.6937 2.6674 1.3296 4.2463-0.316 1.3659-1.556 2.1302-2.807 2.573-0.406-0.1203-0.846-0.1351-1.261-0.0443-1.217-0.4548-2.284-1.1995-2.682-2.5291-0.455-1.5182 0.447-3.0845 1.329-4.2463 1.018-1.34-1.249-2.6368-2.2512-1.3159-1.4177 1.8681-2.2055 4.2053-1.5128 6.5195 0.52101 1.7402 1.8834 2.9342 3.4618 3.6892v4.5574l-2.0854 6.23s10.038 2.7374 9.2132-8.6484l-2.6084 2.0862z"/>
     <path d="m10.785 30.567c0 1.6806 2.6073 1.6806 2.6073 0v-8.0301h-2.6073v8.0301z"/>
     <path d="m25.612 8.4095c-1.3657 1.1208-4.7378 3.9713-6.1035 5.0921 0 0 0.09404 2.8068-0.35481 3.7914 0 0 6.7458-5.747 8.1126-6.8678 1.3-1.0653-0.353-3.0821-1.654-2.0155z"/>
    </g>
   </g>
  </g>
 </g>
</svg>
